<?xml version="1.0" standalone="no"?>
<!DOCTYPE svg PUBLIC "-//W3C//DTD SVG 1.1//EN" "http://www.w3.org/Graphics/SVG/1.1/DTD/svg11.dtd" >
<svg xmlns="http://www.w3.org/2000/svg">
<metadata>Generated by IcoMoon</metadata>
<defs>
<font id="icomoon" horiz-adv-x="1024">
<font-face units-per-em="1024" ascent="960" descent="-64" />
<missing-glyph horiz-adv-x="1024" />
<glyph unicode="&#x20;" horiz-adv-x="512" d="" />
<glyph unicode="&#xe900;" glyph-name="arrow-down" horiz-adv-x="1864" d="M996.358-37.6l841.376 842.308c16.198 16.742 26.181 39.584 26.181 64.757s-9.983 48.015-26.206 64.783c-16.662 15.896-39.312 25.694-64.252 25.694-19.347 0-37.317-5.897-52.21-15.99l-9.922-10.661-776.463-774.6-779.569 774.289c-14.056 8.957-31.188 14.275-49.562 14.275-51.459 0-93.176-41.716-93.176-93.176 0-18.295 5.273-35.358 14.382-49.754l840.529-841.304c16.543-16.638 39.448-26.936 64.758-26.936 25.001 0 47.655 10.047 64.144 26.324z" />
<glyph unicode="&#xe901;" glyph-name="arrow-left" horiz-adv-x="563" d="M14.507 412.501l462.165-462.336c9.2-8.901 21.751-14.387 35.584-14.387s26.384 5.486 35.598 14.4c8.977 9.203 14.523 21.817 14.523 35.726 0 10.454-3.133 20.176-8.512 28.279l-5.855 5.443-425.643 426.667 425.472 428.373c5.217 7.89 8.323 17.573 8.323 27.982 0 28.277-22.923 51.2-51.2 51.2-10.539 0-20.334-3.184-28.476-8.643l-461.639-461.878c-9.143-9.090-14.801-21.677-14.801-35.585 0-13.738 5.521-26.186 14.465-35.247z" />
<glyph unicode="&#xe902;" glyph-name="calendar" horiz-adv-x="1052" d="M231.083 366.421c30.728 0 55.637 24.91 55.637 55.637s-24.91 55.637-55.637 55.637c-30.728 0-55.637-24.91-55.637-55.637 0.097-30.689 24.949-55.541 55.628-55.637zM810.667 366.421c30.728 0 55.637 24.91 55.637 55.637s-24.91 55.637-55.637 55.637c-30.728 0-55.637-24.91-55.637-55.637 0.097-30.689 24.949-55.541 55.628-55.637zM520.875 366.421c30.728 0 55.637 24.91 55.637 55.637s-24.91 55.637-55.637 55.637c-30.728 0-55.637-24.91-55.637-55.637s24.91-55.637 55.637-55.637zM231.765 231.936c-30.728 0-55.637-24.91-55.637-55.637s24.91-55.637 55.637-55.637c30.728 0 55.637 24.91 55.637 55.637s-24.91 55.637-55.637 55.637zM521.387 231.936c-30.728 0-55.637-24.91-55.637-55.637s24.91-55.637 55.637-55.637c30.728 0 55.637 24.91 55.637 55.637-0.097 30.689-24.949 55.541-55.628 55.637zM811.179 231.936c-30.728 0-55.637-24.91-55.637-55.637s24.91-55.637 55.637-55.637c30.728 0 55.637 24.91 55.637 55.637s-24.91 55.637-55.637 55.637zM998.229 876.544h-138.581v83.456h-74.581v-83.456h-518.656v83.456h-74.24v-83.456h-138.581c-0.001 0-0.002 0-0.002 0-29.417 0-53.297-23.702-53.587-53.050v-833.905c0-29.597 23.993-53.589 53.589-53.589h944.64c29.597 0 53.589 23.993 53.589 53.589v833.877c-0.29 29.376-24.17 53.077-53.587 53.077-0.001 0-0.002 0-0.003 0zM977.579 10.24h-903.339v559.957h903.339zM977.579 644.608h-903.339v157.696h117.931v-51.2h74.24v51.2h518.656v-51.2h74.24v51.2h117.931v-157.696z" />
<glyph unicode="&#xe903;" glyph-name="checkmark" d="M512 960c-282.77 0-512-229.23-512-512s229.23-512 512-512c282.77 0 512 229.23 512 512-0.678 282.497-229.503 511.322-511.935 512zM772.096 529.749l-283.307-269.483c-10.060-9.083-23.373-14.733-38.001-15.018-15.097 0.358-28.554 6.839-38.088 17.035l-160.626 161.993c-9.017 9.759-14.548 22.857-14.548 37.246 0 30.351 24.604 54.955 54.955 54.955 14.389 0 27.487-5.53 37.283-14.581l123.867-123.87 243.541 230.571c9.917 9.403 23.349 15.185 38.13 15.185 15.467 0 29.456-6.331 39.516-16.543 8.663-9.927 13.941-22.989 13.941-37.284 0-15.703-6.369-29.919-16.664-40.205z" />
<glyph unicode="&#xe904;" glyph-name="close" d="M1024 878.421l-81.579 81.579-430.421-430.421-430.421 430.421-81.579-81.579 430.421-430.421-430.421-430.421 81.579-81.579 430.421 430.421 430.421-430.421 81.579 81.579-430.421 430.421 430.421 430.421z" />
<glyph unicode="&#xe905;" glyph-name="email" horiz-adv-x="1365" d="M0 85.299v725.402c0.905 2.283 1.818 5.152 2.554 8.092 14.297 80.456 82.928 140.493 165.715 141.207q514.329 0.001 1028.582 0.001c79.218-0.436 145.525-55.189 163.599-128.887 1.879-7.51 3.722-13.859 5.156-20.208v-725.606c-0.855-1.681-1.623-3.654-2.197-5.707-10.409-69.988-63.172-124.964-130.893-138.501-23.858-3.532-50.183-5.449-76.956-5.449-8.743 0-17.439 0.204-26.082 0.609q-478.214-0.25-957.241-0.25c-0.699-0.010-1.525-0.016-2.351-0.016-77.104 0-142.218 51.336-163.027 121.694-2.763 10.419-4.606 19.020-6.859 27.622zM464.486 460.493c-20.48-20.48-40.96-40.96-61.44-61.44l-217.088-217.293c-9.553-7.946-15.589-19.835-15.589-33.134 0-4.473 0.683-8.786 1.95-12.841 5.372-17.37 21.563-29.991 40.701-29.991 13.129 0 24.871 5.94 32.685 15.279q135.427 135.030 270.595 270.608c3.143 3.689 6.115 7.769 8.767 12.067l17.448-15.139 108.544-98.714c7.787-8.584 18.985-13.952 31.437-13.952s23.649 5.368 31.405 13.916l112.672 102.435 11.469 10.24 100.352-100.557 180.838-180.838c7.779-8.040 18.667-13.031 30.72-13.031 23.597 0 42.727 19.129 42.727 42.727 0 11.544-4.578 22.019-12.018 29.708q-90.715 91.329-181.851 182.055l-97.69 97.894 11.264 10.65 267.264 243.098c9.464 7.569 15.473 19.115 15.473 32.064 0 3.97-0.565 7.808-1.618 11.438-3.473 14.904-15.116 26.684-29.957 30.371-3.747 1.025-7.726 1.58-11.834 1.58-12.788 0-24.32-5.376-32.459-13.992q-212.602-194.786-426.004-389.141l-10.854-9.421-203.162 184.32-234.906 214.221c-7.865 8.366-19.005 13.577-31.361 13.577-3.997 0-7.867-0.545-11.54-1.566-14.735-3.742-26.291-15.503-29.749-30.372-0.931-3.44-1.435-7.073-1.435-10.823 0-13.059 6.111-24.69 15.63-32.191l167.818-152.437z" />
<glyph unicode="&#xe906;" glyph-name="feed-podcast" horiz-adv-x="676" d="M299.154 35.913h-129.755c-30.281 0-30.281-99.913 0-99.913h336.457c30.281 0 30.281 99.913 0 99.913h-126.537l-3.803 63.488c223.232 19.749 304.859 205.824 299.886 400.091-1.17 47.982-83.237 42.423-77.824-6.144 21.358-444.855-539.063-435.931-520.923 8.485 1.609 39.936-74.898 40.375-76.507-2.926-3.803-179.054 85.285-380.343 301.934-399.653l-2.926-63.488zM339.968 894.171v0c0.006 0 0.012 0 0.019 0 23.869 0 46.333-6.011 65.963-16.602 53.534-28.893 85.131-88.87 88.496-169.62v-274.578c-1.886-63.271-34.879-118.449-84.145-150.971-20.332-11.662-43.847-18.282-68.909-18.282-0.089 0-0.178 0-0.267 0-24.504 0.032-47.573 6.201-67.751 17.053-50.288 26.687-83.203 80.812-91.98 152.2v275.749c0 71.387 38.766 141.019 94.354 169.399 18.666 9.763 40.755 15.538 64.183 15.652zM339.968 960c-34.454-0.040-66.929-8.474-95.502-23.365-80.772-41.293-129.047-137.549-129.047-227.515v-279.698c11.557-103.57 63.488-172.763 127.854-206.848 28.343-15.355 62.044-24.394 97.854-24.43 0.109 0 0.226 0 0.342 0 36.917 0 71.553 9.768 101.464 26.86 69.066 39.261 117.341 128.349 117.341 208.367v275.895c-4.389 115.273-56.759 190.903-124.050 226.743-27.851 15.109-60.98 23.991-96.183 23.991-0.026 0-0.052 0-0.078 0z" />
<glyph unicode="&#xe907;" glyph-name="feed-rehab" horiz-adv-x="1121" d="M1021.6 860.96c-61.528 61.241-146.375 99.1-240.064 99.1-84.818 0-162.388-31.029-221.98-82.354-57.914 51.266-134.745 82.297-218.824 82.297-0.482 0-0.964-0.001-1.446-0.003-93.521-0.372-178.229-38.117-239.961-99.075-61.334-60.861-99.324-145.243-99.324-238.497 0-0.010 0-0.020 0-0.030 0.372-93.594 38.117-178.302 99.075-240.034l436.605-437.084c6.547-5.746 15.184-9.251 24.64-9.251s18.093 3.505 24.683 9.287l436.597 436.603c60.833 61.719 98.4 146.513 98.4 240.081 0 0.14 0 0.28 0 0.421 0.001 0.27 0.001 0.616 0.001 0.961 0 92.778-37.604 176.774-98.402 237.577zM244.48 372.64c0.029 0 0.062 0 0.096 0 14.691 0 27.19 9.384 31.831 22.484l48.073 139.596 91.040-284.32c4.471-13.661 17.104-23.355 32-23.355s27.529 9.694 31.933 23.117l60.387 169.198h75.52c0.045 0 0.098 0 0.152 0 14.631 0 27.089 9.308 31.774 22.325l35.434 99.435 68.64-203.040c4.352-11.449 14.265-19.875 26.349-22.049 2.165-0.445 4.41-0.682 6.711-0.682 10.271 0 19.439 4.721 25.453 12.11l89.167 112.060h83.68l-8.64-8.8-414.080-413.28-355.2 355.2zM850.88 494.24l-59.84-76.32-80 236.16c-4.471 13.661-17.104 23.355-32 23.355s-27.529-9.694-31.933-23.117l-57.987-169.038h-75.36c-0.045 0-0.098 0-0.152 0-14.631 0-27.089-9.308-31.774-22.325l-35.274-97.195-90.88 286.72c-4.471 13.661-17.104 23.355-32 23.355s-27.529-9.694-31.933-23.117l-72.067-213.998h-80c-44.514 47.695-71.842 111.929-71.842 182.546 0 0.399 0.001 0.797 0.003 1.195 0.096 74.453 30.141 141.932 78.741 191 48.331 48.618 115.283 78.722 189.265 78.722 1.235 0 2.468-0.008 3.7-0.025 74.387-0.049 141.93-30.103 191.035-78.739l5.099-5.099c6.025-6.39 14.548-10.369 24-10.369s17.975 3.979 23.985 10.352l5.135 5.136c49.189 49.024 117.055 79.334 192 79.334s142.811-30.311 192.007-79.342c48.667-48.52 78.783-115.639 78.783-189.792 0-42.102-9.708-81.937-27.009-117.387l-146.661 1.586c-0.287 0.009-0.624 0.014-0.962 0.014-10.718 0-20.205-5.269-26.013-13.359z" />
<glyph unicode="&#xe908;" glyph-name="feed-video" horiz-adv-x="1695" d="M1627.75 837.12v0c-18.866 10.489-41.377 16.664-65.331 16.664s-46.466-6.175-66.030-17.020l-283.154-163.485v114.278c-0.577 95.004-77.438 171.864-172.386 172.441h-868.407c-95.004-0.577-171.864-77.438-172.441-172.386v-679.172c0.577-95.004 77.438-171.864 172.386-172.441h868.407c95.004 0.577 171.864 77.438 172.441 172.386v114.334l283.853-163.84c19.011-10.986 41.817-17.468 66.138-17.468 48.42 0 90.839 25.693 114.367 64.189 10.932 18.574 17.193 40.214 17.193 63.317 0 1.419-0.024 2.833-0.071 4.241l0.005 550.297c-1.212 48.322-27.525 90.237-66.345 113.32zM1591.501 723.046v-550.912c0.040-0.57 0.063-1.236 0.063-1.907 0-15.835-12.837-28.672-28.672-28.672-0.671 0-1.336 0.023-1.996 0.068-6.187 0.593-11.896 2.572-16.877 5.623l-335.699 195.076v214.221l336.691 194.765c3.726 2.891 8.468 4.635 13.618 4.635 3.144 0 6.137-0.65 8.85-1.823 7.999-2.939 14.88-7.712 20.29-13.818 2.64-3.783 4.191-8.409 4.191-13.397 0-1.217-0.092-2.413-0.27-3.58zM96.461 787.149c0.324 19.421 8.066 36.974 20.507 50 12.723 13.164 30.25 21.67 49.759 22.697l868.332 0.008c0.794 0.031 1.726 0.049 2.663 0.049 39.985 0 72.41-32.37 72.499-72.335v-679.125c0.020-0.619 0.031-1.348 0.031-2.079 0-38.796-31.45-70.246-70.246-70.246-0.731 0-1.459 0.011-2.185 0.033l-868.041-0.003c-0.619-0.020-1.348-0.031-2.079-0.031-38.796 0-70.246 31.45-70.246 70.246 0 0.731 0.011 1.459 0.033 2.185zM264.397 626.176h651.059c0.958-0.065 2.077-0.102 3.204-0.102 27.711 0 50.176 22.465 50.176 50.176s-22.465 50.176-50.176 50.176c-1.127 0-2.246-0.037-3.355-0.11l-650.909 0.008c-0.958 0.065-2.077 0.102-3.204 0.102-27.711 0-50.176-22.465-50.176-50.176s22.465-50.176 50.176-50.176c1.127 0 2.246 0.037 3.355 0.11z" />
<glyph unicode="&#xe909;" glyph-name="filter" horiz-adv-x="1235" d="M1234.773 448c-0.096-16.55-13.487-29.941-30.028-30.037h-787.636c-13.43-43.777-53.494-75.055-100.864-75.055s-87.434 31.279-100.667 74.309l-185.541 0.746c-16.636 0-30.123 13.486-30.123 30.123s13.486 30.123 30.123 30.123h185.344c13.43 43.777 53.494 75.055 100.864 75.055s87.434-31.279 100.667-74.309l787.824-0.746c16.61-0.097 30.037-13.584 30.037-30.208 0 0 0 0 0-0.001zM1204.736 71.509h-486.4c-13.43 43.777-53.494 75.055-100.864 75.055s-87.434-31.279-100.667-74.309l-486.768-0.746c-16.636 0-30.123-13.486-30.123-30.123s13.486-30.123 30.123-30.123h486.4c13.43-43.777 53.494-75.055 100.864-75.055s87.434 31.279 100.667 74.309l486.597 0.746c16.636 0 30.123 13.486 30.123 30.123s-13.486 30.123-30.123 30.123zM30.037 824.491h787.627c13.43-43.777 53.494-75.055 100.864-75.055s87.434 31.279 100.667 74.309l185.541 0.746c16.636 0 30.123 13.486 30.123 30.123s-13.486 30.123-30.123 30.123h-185.173c-13.43 43.777-53.494 75.055-100.864 75.055s-87.434-31.279-100.667-74.309l-787.995-0.746c-16.636 0-30.123-13.486-30.123-30.123s13.486-30.123 30.123-30.123z" />
<glyph unicode="&#xe90a;" glyph-name="gender" d="M928.085 832c0-70.692-57.308-128-128-128s-128 57.308-128 128c0 70.692 57.308 128 128 128s128-57.308 128-128zM928.085 640h-256c0 0 0 0 0 0-52.972 0-95.915-42.942-95.915-95.915 0-0.060 0-0.12 0-0.18v-191.991c0-0.051 0-0.111 0-0.171 0-52.972 42.942-95.915 95.915-95.915 0.060 0 0.12 0 0.18 0l-0.009-256c0.097-35.213 28.616-63.733 63.82-63.829h128.009c35.346 0 64 28.654 64 64v256c52.933 0.097 95.818 42.981 95.915 95.905v192.009c0 0 0 0 0 0 0 53.006-42.922 95.988-95.905 96.085zM128 832c0-70.692 57.308-128 128-128s128 57.308 128 128c0 70.692-57.308 128-128 128s-128-57.308-128-128zM66.901 159.915h93.184v-160.085c0.097-35.273 28.714-63.829 64-63.829 0 0 0 0 0 0h64c35.346 0 64 28.654 64 64v159.915h93.184c0.010 0 0.023 0 0.035 0 36.949 0 66.901 29.953 66.901 66.901 0 8.977-1.768 17.541-4.975 25.363l-130.739 327.234c-14.555 35.707-49.002 60.416-89.219 60.416-0.014 0-0.028 0-0.041 0h-62.121c-39.924-0.247-74.052-24.805-88.343-59.605l-131.987-328.32c-3.045-7.376-4.813-15.94-4.813-24.917 0-36.949 29.953-66.901 66.901-66.901 0.012 0 0.024 0 0.037 0z" />
<glyph unicode="&#xe90b;" glyph-name="information" d="M680.179 578.169c-1.95 95.114-79.514 171.473-174.913 171.473-69.443 0-129.436-40.46-157.692-99.093-3.294-6.787-4.954-13.545-4.954-20.69 0-5.402 0.949-10.582 2.69-15.383l-0.1 0.314c6.068-18.018 22.81-30.764 42.529-30.764 17.88 0 33.313 10.48 40.49 25.632 14.008 28.892 42.652 48.379 75.897 48.868 45.971-0.399 83.346-36.382 85.966-81.686 0.048-1.175 0.070-2.282 0.070-3.393 0-37.077-23.873-68.578-57.086-79.971-42.488-14.056-72.247-52.71-72.621-98.367v-42.567c-0.055-0.835-0.087-1.81-0.087-2.792 0-24.826 20.126-44.952 44.952-44.952s44.952 20.126 44.952 44.952c0 0.982-0.032 1.957-0.094 2.924l0.007 42.39c0.553 6.378 5.043 11.571 11.003 13.167 69.799 23.626 119.069 88.445 119.069 164.773 0 1.816-0.028 3.626-0.083 5.429zM550.704 192.868c0-24.922-20.203-45.125-45.125-45.125s-45.125 20.203-45.125 45.125c0 24.922 20.203 45.125 45.125 45.125s45.125-20.203 45.125-45.125zM512 960c-282.77 0-512-229.23-512-512s229.23-512 512-512c282.77 0 512 229.23 512 512-0.296 282.651-229.349 511.704-511.971 512zM512 20.523c-1.29-0.014-2.814-0.022-4.339-0.022-236.101 0-427.499 191.398-427.499 427.499 0 234.575 188.932 425.023 422.928 427.475l8.91 0.002c232.45-4.832 419.035-194.408 419.035-427.563s-186.586-422.732-418.585-427.556z" />
<glyph unicode="&#xe90c;" glyph-name="meal-planning" horiz-adv-x="940" d="M131.584 567.467h338.261c0.219-0.005 0.476-0.008 0.734-0.008 9.448 0 18.029 3.708 24.368 9.749 6.331 6.346 10.255 15.124 10.255 24.818s-3.924 18.473-10.27 24.833c-6.415 6.533-15.341 10.583-25.214 10.583-0.136 0-0.271-0.001-0.406-0.002h-339.094c-17.584-2.111-31.083-16.939-31.083-34.92 0-18.464 14.233-33.603 32.326-35.045zM625.152 188.416c1.133-0.025 2.468-0.040 3.807-0.040 23.549 0 46.056 4.462 66.722 12.586 18.189-8.124 40.696-12.586 64.245-12.586 1.339 0 2.674 0.014 4.005 0.043 96.911-0.003 175.929 87.89 175.929 195.922 0 93.184-58.709 172.544-140.288 191.147v14.336c13.158 3.724 24.487 8.201 35.239 13.65 43.547 21.548 76.752 61.057 89.916 108.871 0.967 3.762 1.359 6.689 1.359 9.707 0 15.961-10.955 29.363-25.756 33.098-17.1 4.842-36.467 7.598-56.478 7.598-15.683 0-30.97-1.692-45.69-4.904l1.41 111.021c-0.097 50.294-40.842 91.039-91.127 91.136h-480.436c-8.427-0.938-15.825-4.743-21.325-10.402l-196.275-196.446c-6.423-6.215-10.411-14.913-10.411-24.542 0-0.012 0-0.024 0-0.036v-701.438c0.097-50.294 40.842-91.039 91.127-91.136h617.311c50.294 0.097 91.039 40.842 91.136 91.127v84.148c0.001 0.106 0.002 0.231 0.002 0.356 0 19.057-15.163 34.573-34.083 35.141l-0.052 0.001c-19.364-0.193-34.987-15.935-34.987-35.326 0-0.061 0-0.121 0-0.182v-84.129c0.008-0.207 0.012-0.45 0.012-0.695 0-11.217-9.093-20.309-20.309-20.309-0.244 0-0.487 0.004-0.73 0.013l-618.29-0.001c-0.207-0.008-0.45-0.012-0.695-0.012-11.217 0-20.309 9.093-20.309 20.309 0 0.244 0.004 0.487 0.013 0.73l-0.001 652.253h175.275c19.284 0.096 34.89 15.703 34.987 34.977v175.455h428.032c0.207 0.008 0.45 0.012 0.695 0.012 11.217 0 20.309-9.093 20.309-20.309 0-0.244-0.004-0.487-0.013-0.73l0.001-139.57c-19.786-13.612-36.151-30.684-48.564-50.486-6.061 6.333-11.644 12.619-17.523 18.612-6.292 6.605-15.173 10.772-25.029 10.883-0.336 0.010-0.708 0.016-1.081 0.016-19.323 0-34.987-15.664-34.987-34.987 0-9.844 4.066-18.738 10.609-25.096 20.037-18.824 34.62-43.218 41.28-70.709-8.546 1.406-18.589 2.776-28.951 2.776-0.131 0-0.263 0-0.394-0.001-97.089 0-176.108-87.723-176.108-195.584s79.189-196.267 176.469-196.267zM625.152 509.781c17.73-0.932 33.741-7.611 46.373-18.191 6.024-5.211 14.093-8.447 22.917-8.447s16.893 3.236 23.085 8.585c12.464 10.442 28.475 17.12 46.011 18.044 58.733 0.008 106.349-56.312 106.349-125.432s-47.616-125.781-106.155-125.781c-3.203-0.371-6.914-0.583-10.675-0.583-14.69 0-28.624 3.233-41.131 9.027-4.7 3.104-11.159 5.096-18.082 5.096s-13.382-1.992-18.834-5.433c-11.755-5.456-25.69-8.689-40.38-8.689-3.761 0-7.472 0.212-11.122 0.624-58.091-0.041-105.707 56.45-105.707 125.74s48.811 125.44 107.349 125.44zM750.933 652.8c8.763 10.636 19.499 19.3 31.694 25.511 14.705 7.513 31.225 12.388 48.71 13.879l4.929 0.034c-9.234-11.366-20.603-20.609-33.547-27.206-15.542-7.682-33.135-12.076-51.739-12.218zM724.48 581.12h5.12v-6.827l-3.584-1.195c-0.512 3.243-1.024 5.973-1.707 8.875zM210.603 854.187v-104.96h-105.131zM131.584 441.003h282.112c19.37 0 35.072 15.702 35.072 35.072s-15.702 35.072-35.072 35.072h-283.477c-18.067-1.611-32.124-16.677-32.124-35.026 0-18.83 14.804-34.203 33.408-35.115zM108.373 211.627c6.086-5.709 14.298-9.216 23.328-9.216 0.019 0 0.037 0 0.056 0h281.938c19.37 0 35.072 15.702 35.072 35.072s-15.702 35.072-35.072 35.072h-283.477c-18.685-0.916-33.487-16.288-33.487-35.118 0-10.279 4.411-19.528 11.444-25.957zM131.584 328.533h254.123c9.655 0.004 18.428 3.772 24.935 9.915 6.397 6.105 10.427 14.678 10.563 24.193 0.001 0.076 0.001 0.136 0.001 0.196 0 19.511-15.817 35.328-35.328 35.328-0.060 0-0.12 0-0.18 0h-255.991c-16.795-2.852-29.424-17.295-29.424-34.687 0-18.058 13.615-32.937 31.14-34.93z" />
<glyph unicode="&#xe90d;" glyph-name="nav-feed" d="M109.739 960c-60.49-0.289-109.449-49.248-109.739-109.711v-804.038c0 0 0-0.001 0-0.001 0-60.71 49.069-109.959 109.711-110.249h219.334c0.152-0.002 0.332-0.004 0.512-0.004 20.173 0 36.526 16.353 36.526 36.526 0 19.993-16.063 36.234-35.987 36.522h-220.358c-0.257-0.007-0.56-0.010-0.864-0.010-19.7 0-35.669 15.97-35.669 35.669 0 0.304 0.004 0.607 0.011 0.908l-0.001 804.649c-0.010 0.308-0.015 0.671-0.015 1.035 0 19.7 15.97 35.669 35.669 35.669 0.305 0 0.61-0.004 0.913-0.011l803.966 0.001c0.257 0.007 0.56 0.010 0.864 0.010 19.7 0 35.669-15.97 35.669-35.669 0-0.304-0.004-0.607-0.011-0.908l0.001-219.433c-0.002-0.152-0.004-0.332-0.004-0.512 0-20.173 16.353-36.526 36.526-36.526 19.993 0 36.234 16.063 36.522 35.987s0 0.027 0 1.051v219.307c-0.288 60.431-49.151 109.353-109.531 109.738h-804.047zM986.965 521.387c-302.729-0.291-548.061-245.623-548.352-548.324-0.002-0.18-0.004-0.36-0.004-0.54 0-20.173 16.353-36.526 36.526-36.526 19.993 0 36.234 16.063 36.522 35.987s0 0.027 0 1.051c0 0.101 0 0.222 0 0.342 0 262.128 212.496 474.624 474.624 474.624 0.24 0 0.48 0 0.72-0.001 0.115-0.002 0.295-0.004 0.475-0.004 20.173 0 36.526 16.353 36.526 36.526 0 19.993-16.063 36.234-35.987 36.522h-1.051zM986.965 302.080c-181.609-0.291-328.754-147.435-329.045-329.017-0.002-0.18-0.004-0.36-0.004-0.54 0-20.173 16.353-36.526 36.526-36.526 19.993 0 36.234 16.063 36.522 35.987s0 0.027 0 1.051c0 141.385 114.615 256 256 256 0.152-0.002 0.332-0.004 0.512-0.004 20.173 0 36.526 16.353 36.526 36.526 0 19.993-16.063 36.234-35.987 36.522h-1.051zM986.965 82.773c-60.49-0.289-109.449-49.248-109.739-109.711-0.002-0.18-0.004-0.36-0.004-0.54 0-20.173 16.353-36.526 36.526-36.526 19.993 0 36.234 16.063 36.522 35.987s0 0.027 0 1.051c-0.002 0.153-0.004 0.334-0.004 0.516 0 19.888 16.123 36.011 36.011 36.011 0.181 0 0.362-0.001 0.543-0.004 20.144 0 36.495 16.352 36.495 36.523s-16.352 36.523-36.523 36.523v0z" />
<glyph unicode="&#xe90e;" glyph-name="nav-home" horiz-adv-x="1277" d="M795.989-64h268.117c21.323 0.097 38.571 17.405 38.571 38.741 0 0 0 0 0 0v452.779l-77.312 61.269v-475.477h-190.805v119.467c-4.512 104.909-90.657 188.251-196.267 188.251s-191.755-83.342-196.253-187.844l-0.014-119.873h-191.317v475.477l-77.312-61.269v-452.779c0-21.396 17.345-38.741 38.741-38.741h268.288c21.323 0.097 38.571 17.405 38.571 38.741 0 0 0 0 0 0v157.696c0 65.98 53.487 119.467 119.467 119.467s119.467-53.487 119.467-119.467v-157.696c0-0.002 0-0.004 0-0.006 0-21.156 16.958-38.352 38.023-38.735zM1213.952 417.792c6.996-6.018 16.168-9.682 26.195-9.682 1.715 0 3.405 0.107 5.064 0.315 10.019 0.826 18.909 5.882 24.833 13.387 4.068 6.662 6.442 14.628 6.442 23.149 0 13.253-5.744 25.164-14.877 33.38l-221.908 175.311v267.605c0 21.396-17.345 38.741-38.741 38.741h-126.293c-21.249-0.193-38.4-17.464-38.4-38.74 0-0.001 0-0.001 0-0.002v-107.008l-174.421 137.728c-6.453 4.982-14.648 7.995-23.546 8.021h-0.006c-9.023-0.635-17.213-3.737-24.034-8.629l-599.412-472.651c-11.776-11.776-21.675-40.107-8.875-56.32 6.463-7.774 15.879-12.901 26.504-13.647 1.435-0.165 2.957-0.255 4.501-0.255 9.542 0 18.278 3.45 25.030 9.17l576.114 454.609zM913.408 882.688h48.981v-168.277l-48.981 39.083z" />
<glyph unicode="&#xe90f;" glyph-name="nav-links" d="M984.235 487.765h-432.469v432.469c-1.407 20.812-18.634 37.162-39.68 37.162s-38.273-16.349-39.673-37.040l-0.007-432.591h-432.64c-0.779 0.054-1.688 0.085-2.604 0.085-21.962 0-39.765-17.804-39.765-39.765s17.804-39.765 39.765-39.765c0.916 0 1.825 0.031 2.726 0.092l432.347-0.007v-432.64c1.407-20.812 18.634-37.162 39.68-37.162s38.273 16.349 39.673 37.040l0.007 432.591h432.64c20.812 1.407 37.162 18.634 37.162 39.68s-16.349 38.273-37.040 39.673z" />
<glyph unicode="&#xe910;" glyph-name="nav-nutrition" horiz-adv-x="970" d="M553.118 812.386v0 0 0zM725.937 26.112v0zM970.122 416.335c-0.896 47.867-9.421 93.453-24.404 135.994l13.061-37.375-12.13 34.343-13.233 37.337 13.233-37.179c-52.145 147.141-170.142 173.292-240.246 174.238 30.634 41.671 51.892 92.070 59.661 146.812 1.458 8.155 2.176 15.523 2.176 23.059 0 13.935-2.455 27.296-6.956 39.675-9.826 23.453-34.559 27.864-58.348 26.762-42.729-4.426-81.55-17.854-115.633-38.355-48.691-24.933-87.349-66.648-108.451-117.488-30.943 37.813-69.037 69.662-112.753 92.113-11.393 7.804-23.323 11.961-36.224 11.961-0.938 0-1.871-0.022-2.799-0.065-14.539-2.878-25.452-15.635-25.452-30.941 0-11.753 6.436-22.004 15.975-27.419 53.719-29.541 109.488-63.097 130.44-124.537 4.21-12.042 6.642-25.923 6.642-40.373 0-3.256-0.123-6.483-0.366-9.676-49.522 26.729-107.658 43.987-169.35 48.394-5.468 0.28-10.238 0.394-15.035 0.394-32.16 0-63.123-5.129-92.114-14.613-92.43-30.915-147.569-114.411-167.734-208.461-6.192-30.678-9.735-65.943-9.735-102.035 0-73.638 14.751-143.831 41.46-207.784 34.914-88.911 97.457-181.071 187.726-228.017 31.334-17.025 68.613-27.034 108.23-27.034 14.253 0 28.204 1.296 41.74 3.775 24.452 6.323 47.105 15.28 68.219 26.716 10.075 5.025 23.799 8.423 38.316 8.423 7.878 0 15.522-1 22.813-2.881l10.553-4.115c34.759-18.395 75.9-29.406 119.564-29.931 112.333-0.002 200.397 87.117 253.802 178.017 48.715 82.316 77.5 181.42 77.5 287.246 0 4.579-0.054 9.145-0.161 13.698zM553.118 812.386v0c41.433 56.556 124.298 83.023 152.655 84.598-0.087-15.771-2.558-30.934-7.069-45.19-6.447-25.238-15.835-48.305-27.866-69.686-26.505-47.074-71.719-82.835-129.693-77.321-2.863 0.487-5.104 2.675-5.664 5.47-3.374 10.233-5.316 21.961-5.316 34.142 0 25.681 8.63 49.346 23.149 68.253zM869.455 211.062c-29.46-72.468-76.249-142.572-143.518-184.793l57.502 35.761-57.502-36.234c-4.254-2.678-3.623-2.206 0 0-24.721-16.073-54.956-25.644-87.425-25.679-18.292 0.12-35.898 2.817-52.547 7.744-16.998 5.917-31.786 11.988-46.159 18.793l-9.69 3.553c-13.045 4.589-28.087 7.24-43.747 7.24-10.799 0-21.304-1.261-31.375-3.642-30.586-6.275-57.525-27.228-89.663-33.214-60.022-11.028-116.421 15.754-160.059 55.296-74.988 68.057-119.257 168.409-135.798 266.87-15.754 95.468-9.61 218.978 65.694 289.713s189.046 54.981 274.432 15.754c25.049-11.658 58.132-34.028 86.961-26.624 31.657 10.62 58.313 22.074 83.848 35.384 32.669 14.956 74.607 24.558 118.788 24.558 13.426 0 26.646-0.887 39.602-2.605 42.583-6.057 80.835-27.362 108.61-58.273 31.544-39.344 52.277-88.305 57.254-141.837 2.096-17.805 3.247-37.197 3.247-56.857 0-68.924-14.141-134.545-39.68-194.12zM958.779 514.954l9.767-27.569zM785.014 523.146c-4.088 5.89-8.492 11.044-13.357 15.722-29.808 27.286-72.029-19.975-42.254-46.284 14.56-16.542 24.275-37.669 26.74-60.96 1.045-7.985 1.618-16.661 1.618-25.471 0-18.515-2.531-36.438-7.265-53.444-5.566-11.197-9.32-25.877-10.055-41.347 2.257-14.1 13.277-24.798 27.088-26.556 34.5-3.955 40.959 41.574 46.157 66.15 3.86 16.74 6.072 35.963 6.072 55.703 0 8.121-0.374 16.155-1.107 24.084-2.849 34.259-15.042 66.204-34.033 92.99z" />
<glyph unicode="&#xe911;" glyph-name="nav-programming" horiz-adv-x="1136" d="M7.447 960l122.88-1.117-1.117-140.195-122.88 1.117 1.117 140.195zM246.132 925.184l889.577-8.378-0.559-75.217-889.577 8.378 0.559 75.217zM1.117 77.312l122.694-1.117-0.931-140.195-122.88 1.117 1.117 140.195zM239.802 42.682l889.577-8.564-0.559-75.031-889.577 8.378 0.559 75.217zM4.282 518.749l122.88-1.303-1.117-140.195-122.88 1.303 1.117 140.195zM242.967 483.933l889.577-8.378-0.559-75.217-889.577 8.378 0.559 75.217z" />
<glyph unicode="&#xe912;" glyph-name="nutrition-blog" d="M678.617 189.397h-262.075c-0.156 0.002-0.34 0.004-0.524 0.004-21.088 0-38.183-17.095-38.183-38.183 0-0.184 0.001-0.368 0.004-0.552 0.098-21.273 17.389-38.502 38.703-38.502 0 0 0 0 0 0h262.075c21.258 0.289 38.414 17.446 38.703 38.676-0.098 21.328-17.389 38.558-38.703 38.558 0 0 0 0 0 0zM795.943 338.311h-379.401c-20.703-0.474-37.362-17.133-37.835-37.791-0.013-0.407-0.020-0.833-0.020-1.261 0-20.973 16.909-37.996 37.838-38.182h379.418c0.002 0 0.004 0 0.006 0 21.375 0 38.704 17.328 38.704 38.704 0 0.244-0.002 0.488-0.007 0.731-0.761 20.849-17.74 37.526-38.677 37.799zM763.661 783.837h-314.837c-38.146-0.483-68.941-31.278-69.423-69.378v-234.872c0-38.342 31.082-69.424 69.424-69.424h314.837c38.146 0.483 68.941 31.278 69.423 69.378v234.177c-0.095 38.444-31.037 69.629-69.378 70.118zM756.545 486.53h-300.605v220.073h301.299zM890.706 960h-568.060c-0.078 0-0.17 0-0.262 0-70.397 0-127.999-54.787-132.491-124.050-0.162-1.746-0.242-3.316-0.242-4.905s0.081-3.16 0.238-4.707l-0.016-339.635h-56.58c-0.232 0.001-0.507 0.002-0.782 0.002-70.398 0-128-54.789-132.491-124.052-0.184-1.85-0.277-3.541-0.277-5.252s0.093-3.402 0.275-5.065l-0.018-283.043c0.099-73.576 59.717-133.195 133.284-133.294h757.422c73.576 0.099 133.195 59.717 133.294 133.284v757.422c-0.099 73.576-59.717 133.195-133.284 133.294zM189.353 69.12c-0.668-30.557-25.314-55.143-55.832-55.712l-0.054-0.001c-30.961 0-56.060 25.099-56.060 56.060v283.075c-0.003 0.208-0.004 0.453-0.004 0.699 0 30.577 24.788 55.365 55.365 55.365 0.246 0 0.491-0.002 0.736-0.005h56.023zM946.766 69.12c-0.671-30.617-25.413-55.238-56.014-55.712l-635.793-0.001 3.992 11.628c4.82 13.214 7.67 28.468 7.81 44.368v757.302c-0.003 0.208-0.004 0.453-0.004 0.699 0 30.577 24.788 55.365 55.365 55.365 0.246 0 0.491-0.002 0.736-0.005h567.849c30.8-0.097 55.766-24.94 56.059-55.685z" />
<glyph unicode="&#xe913;" glyph-name="nutrition-calculator" horiz-adv-x="939" d="M853.333 960h-768c-47.128 0-85.333-38.205-85.333-85.333v-853.333c0-47.128 38.205-85.333 85.333-85.333h768c47.128 0 85.333 38.205 85.333 85.333v853.333c0 47.128-38.205 85.333-85.333 85.333zM881.835 21.333c0.001-0.102 0.002-0.222 0.002-0.342 0-15.647-12.684-28.331-28.331-28.331-0.061 0-0.121 0-0.182 0.001h-767.991c-0.051 0-0.112-0.001-0.173-0.001-15.647 0-28.331 12.684-28.331 28.331 0 0.12 0.001 0.24 0.002 0.36v853.315c0 0.051-0.001 0.111-0.001 0.171 0 15.647 12.684 28.331 28.331 28.331 0.060 0 0.12 0 0.18-0.001h767.991c0.051 0 0.111 0.001 0.171 0.001 15.647 0 28.331-12.684 28.331-28.331 0-0.060 0-0.12-0.001-0.18zM142.165 561.664h638.123c0.051 0 0.111-0.001 0.171-0.001 15.647 0 28.331 12.684 28.331 28.331 0 0.060 0 0.12-0.001 0.18v227.489c0 0.051 0.001 0.111 0.001 0.171 0 15.647-12.684 28.331-28.331 28.331-0.060 0-0.12 0-0.18-0.001h-638.113c-0.051 0-0.111 0.001-0.171 0.001-15.647 0-28.331-12.684-28.331-28.331 0-0.060 0-0.12 0.001-0.18v-227.66c0.097-15.667 12.82-28.331 28.501-28.331 0 0 0 0 0.001 0zM170.667 789.333h581.12v-170.667h-581.12zM284.501 504.832h-142.336c-0.051 0-0.111 0.001-0.171 0.001-15.647 0-28.331-12.684-28.331-28.331 0-0.060 0-0.12 0.001-0.18v-142.327c0-0.051-0.001-0.111-0.001-0.171 0-15.647 12.684-28.331 28.331-28.331 0.060 0 0.12 0 0.18 0.001h142.327c0.051 0 0.111-0.001 0.171-0.001 15.647 0 28.331 12.684 28.331 28.331 0 0.060 0 0.12-0.001 0.18v142.327c0 0.051 0.001 0.111 0.001 0.171 0 15.647-12.684 28.331-28.331 28.331-0.060 0-0.12 0-0.18-0.001zM256 362.667h-85.333v85.333h85.333zM284.501 248.661h-142.336c-0.051 0-0.111 0.001-0.171 0.001-15.647 0-28.331-12.684-28.331-28.331 0-0.060 0-0.12 0.001-0.18v-142.327c0-0.051-0.001-0.111-0.001-0.171 0-15.647 12.684-28.331 28.331-28.331 0.060 0 0.12 0 0.18 0.001h142.327c0.051 0 0.111-0.001 0.171-0.001 15.647 0 28.331 12.684 28.331 28.331 0 0.060 0 0.12-0.001 0.18v142.497c0 0 0 0 0 0.001 0 15.647-12.684 28.331-28.331 28.331-0.060 0-0.12 0-0.18-0.001zM256 106.667h-85.333v85.333h85.333zM540.501 504.832h-142.336c-0.051 0-0.111 0.001-0.171 0.001-15.647 0-28.331-12.684-28.331-28.331 0-0.060 0-0.12 0.001-0.18v-142.327c0-0.051-0.001-0.111-0.001-0.171 0-15.647 12.684-28.331 28.331-28.331 0.060 0 0.12 0 0.18 0.001h142.327c0.051 0 0.111-0.001 0.171-0.001 15.647 0 28.331 12.684 28.331 28.331 0 0.060 0 0.12-0.001 0.18v142.327c0 0.051 0.001 0.111 0.001 0.171 0 15.647-12.684 28.331-28.331 28.331-0.060 0-0.12 0-0.18-0.001zM512 362.667h-85.333v85.333h85.333zM540.501 248.661h-142.336c-0.051 0-0.111 0.001-0.171 0.001-15.647 0-28.331-12.684-28.331-28.331 0-0.060 0-0.12 0.001-0.18v-142.327c0-0.051-0.001-0.111-0.001-0.171 0-15.647 12.684-28.331 28.331-28.331 0.060 0 0.12 0 0.18 0.001h142.327c0.051 0 0.111-0.001 0.171-0.001 15.647 0 28.331 12.684 28.331 28.331 0 0.060 0 0.12-0.001 0.18v142.497c0 0 0 0 0 0.001 0 15.647-12.684 28.331-28.331 28.331-0.060 0-0.12 0-0.18-0.001zM512 106.667h-85.333v85.333h85.333zM796.501 504.832h-142.336c-0.051 0-0.111 0.001-0.171 0.001-15.647 0-28.331-12.684-28.331-28.331 0-0.060 0-0.12 0.001-0.18v-142.327c0-0.051-0.001-0.111-0.001-0.171 0-15.647 12.684-28.331 28.331-28.331 0.060 0 0.12 0 0.18 0.001h142.327c0.051 0 0.111-0.001 0.171-0.001 15.647 0 28.331 12.684 28.331 28.331 0 0.060 0 0.12-0.001 0.18v142.327c0 0.051 0.001 0.111 0.001 0.171 0 15.647-12.684 28.331-28.331 28.331-0.060 0-0.12 0-0.18-0.001zM768 362.667h-85.333v85.333h85.333zM796.501 248.661h-142.336c-0.051 0-0.111 0.001-0.171 0.001-15.647 0-28.331-12.684-28.331-28.331 0-0.060 0-0.12 0.001-0.18v-142.327c0-0.051-0.001-0.111-0.001-0.171 0-15.647 12.684-28.331 28.331-28.331 0.060 0 0.12 0 0.18 0.001h142.327c0.051 0 0.111-0.001 0.171-0.001 15.647 0 28.331 12.684 28.331 28.331 0 0.060 0 0.12-0.001 0.18v142.497c0 0 0 0 0 0.001 0 15.647-12.684 28.331-28.331 28.331-0.060 0-0.12 0-0.18-0.001zM768 106.667h-85.333v85.333h85.333z" />
<glyph unicode="&#xe914;" glyph-name="nutrition-found" horiz-adv-x="1136" d="M1135.957 373.76c0.002 0.317 0.002 0.692 0.002 1.067 0 127.341-103.23 230.571-230.571 230.571-10.471 0-20.779-0.698-30.88-2.050-22.371 73.175-95.587 190.764-237.752 170.796l-28.501-4.096v-28.843c1.305-56.456 25.032-107.127 62.587-143.655 21.684-22.732 48.133-40.626 77.775-52.113-27.52-26.26-49.853-58.871-63.059-95.821l-207.693-1.616v-34.133c0-3.243 0-6.485 0-9.728-7.537 12.299-15.419 22.95-24.122 32.863l1.594 27.553c22.857 11.791 42.405 26.436 59.158 43.795 37.651 36.649 61.374 87.315 62.693 143.523l0.005 29.087-28.501 4.096c-8.989 1.398-19.356 2.196-29.911 2.196-18.613 0-36.646-2.483-53.786-7.136l12.87 244.044c0.027 0.51 0.043 1.106 0.043 1.707 0 18.851-15.282 34.133-34.133 34.133-0.015 0-0.030 0-0.045 0h-375.464c-0.013 0-0.028 0-0.043 0-18.851 0-34.133-15.282-34.133-34.133 0-0.6 0.015-1.197 0.046-1.79l27.133-566.701c-7.632-21.493-12.043-46.283-12.043-72.103 0-15.189 1.526-30.021 4.434-44.351l-53.66 1.425 1.536-68.267c13.76-125.333 112.15-223.956 236.173-237.968l649.758-0.112c127.606 11.49 228.793 110.921 242.918 236.691l3.183 69.485h-39.253c26.020 36.65 41.608 82.293 41.643 131.576zM654.507 263.168l63.147 63.147v-81.408c-23.541 3.353-44.814 9.748-64.581 18.854zM852.309 264.363c-19.228-9.253-41.539-16.132-64.987-19.482l-1.231 85.189zM834.219 379.733h118.443c-7.826-29.528-23.007-54.832-43.481-74.714zM718.165 645.803c-16.96 17.105-30.113 38.014-38.064 61.331 67.931-5.011 105.648-64.744 122.374-102.974v0c-33.522 2.389-63.071 17.668-84.043 40.852zM904.533 537.088c89.504-0.672 161.802-73.384 161.802-162.982 0-53.443-25.722-100.878-65.461-130.601l-58.112-0.305c49.648 40.862 81.363 101.955 82.43 170.487l0.002 34.313h-265.728c27.4 53.276 81.996 89.088 144.957 89.088 0.039 0 0.078 0 0.116 0zM673.621 379.733l-77.141-77.141c-21.577 20.393-37.501 46.552-45.314 76.013zM560.981 243.2h-52.565c2.28 12.149 3.584 26.125 3.584 40.407 0 0.135 0 0.269 0 0.403 0 4.929 0 9.878 0 14.827 13.758-21.705 29.923-40.313 48.477-56.212zM135.168 243.2h-11.435c-3.736 12.435-5.968 26.744-6.143 41.547-0.001 90.346 73.162 163.509 163.412 163.509s163.413-73.163 163.413-163.413c-0.248-14.928-2.538-29.226-6.602-42.756l-302.646 1.113zM466.773 555.349c-20.826-23.517-50.183-39.070-83.178-41.784l-0.448-0.030c17.067 38.229 53.589 97.963 122.709 104.107-8.522-24.421-21.894-45.268-39.070-62.281zM309.419 513.707c-8.353 1.362-18.193 2.282-28.195 2.553-60.538-0.006-115.375-23.095-156.459-60.899l-11.954 256.149c22.528 13.483 59.221 28.672 93.355 13.312 54.633-23.985 118.314-37.944 185.255-37.944 2.552 0 5.099 0.020 7.641 0.061l-2.432-42.501c-40.090-33.831-70.388-78.070-86.82-128.566zM408.405 891.733l-6.485-136.533c-3.356-0.1-7.304-0.156-11.265-0.156-56.489 0-110.282 11.541-159.151 32.394-15.318 6.841-36.254 11.406-58.256 11.406-23.198 0-45.211-5.075-64.989-14.176l-4.153 107.066zM68.267 379.733h1.365l-1.365-3.584zM864.256 4.267h-597.333c-99.887 0.152-182.553 73.685-196.984 169.567l991.437 1.099c-14.027-97.493-96.88-171.62-197.095-171.861z" />
<glyph unicode="&#xe915;" glyph-name="nutrition" horiz-adv-x="970" d="M553.118 812.386v0 0 0zM725.937 26.112v0zM970.122 416.335c-0.896 47.867-9.421 93.453-24.404 135.994l13.061-37.375-12.13 34.343-13.233 37.337 13.233-37.179c-52.145 147.141-170.142 173.292-240.246 174.238 30.634 41.671 51.892 92.070 59.661 146.812 1.458 8.155 2.176 15.523 2.176 23.059 0 13.935-2.455 27.296-6.956 39.675-9.826 23.453-34.559 27.864-58.348 26.762-42.729-4.426-81.55-17.854-115.633-38.355-48.691-24.933-87.349-66.648-108.451-117.488-30.943 37.813-69.037 69.662-112.753 92.113-11.393 7.804-23.323 11.961-36.224 11.961-0.938 0-1.871-0.022-2.799-0.065-14.539-2.878-25.452-15.635-25.452-30.941 0-11.753 6.436-22.004 15.975-27.419 53.719-29.541 109.488-63.097 130.44-124.537 4.21-12.042 6.642-25.923 6.642-40.373 0-3.256-0.123-6.483-0.366-9.676-49.522 26.729-107.658 43.987-169.35 48.394-5.468 0.28-10.238 0.394-15.035 0.394-32.16 0-63.123-5.129-92.114-14.613-92.43-30.915-147.569-114.411-167.734-208.461-6.192-30.678-9.735-65.943-9.735-102.035 0-73.638 14.751-143.831 41.46-207.784 34.914-88.911 97.457-181.071 187.726-228.017 31.334-17.025 68.613-27.034 108.23-27.034 14.253 0 28.204 1.296 41.74 3.775 24.452 6.323 47.105 15.28 68.219 26.716 10.075 5.025 23.799 8.423 38.316 8.423 7.878 0 15.522-1 22.813-2.881l10.553-4.115c34.759-18.395 75.9-29.406 119.564-29.931 112.333-0.002 200.397 87.117 253.802 178.017 48.715 82.316 77.5 181.42 77.5 287.246 0 4.579-0.054 9.145-0.161 13.698zM553.118 812.386v0c41.433 56.556 124.298 83.023 152.655 84.598-0.087-15.771-2.558-30.934-7.069-45.19-6.447-25.238-15.835-48.305-27.866-69.686-26.505-47.074-71.719-82.835-129.693-77.321-2.863 0.487-5.104 2.675-5.664 5.47-3.374 10.233-5.316 21.961-5.316 34.142 0 25.681 8.63 49.346 23.149 68.253zM869.455 211.062c-29.46-72.468-76.249-142.572-143.518-184.793l57.502 35.761-57.502-36.234c-4.254-2.678-3.623-2.206 0 0-24.721-16.073-54.956-25.644-87.425-25.679-18.292 0.12-35.898 2.817-52.547 7.744-16.998 5.917-31.786 11.988-46.159 18.793l-9.69 3.553c-13.045 4.589-28.087 7.24-43.747 7.24-10.799 0-21.304-1.261-31.375-3.642-30.586-6.275-57.525-27.228-89.663-33.214-60.022-11.028-116.421 15.754-160.059 55.296-74.988 68.057-119.257 168.409-135.798 266.87-15.754 95.468-9.61 218.978 65.694 289.713s189.046 54.981 274.432 15.754c25.049-11.658 58.132-34.028 86.961-26.624 31.657 10.62 58.313 22.074 83.848 35.384 32.669 14.956 74.607 24.558 118.788 24.558 13.426 0 26.646-0.887 39.602-2.605 42.583-6.057 80.835-27.362 108.61-58.273 31.544-39.344 52.277-88.305 57.254-141.837 2.096-17.805 3.247-37.197 3.247-56.857 0-68.924-14.141-134.545-39.68-194.12zM958.779 514.954l9.767-27.569zM785.014 523.146c-4.088 5.89-8.492 11.044-13.357 15.722-29.808 27.286-72.029-19.975-42.254-46.284 14.56-16.542 24.275-37.669 26.74-60.96 1.045-7.985 1.618-16.661 1.618-25.471 0-18.515-2.531-36.438-7.265-53.444-5.566-11.197-9.32-25.877-10.055-41.347 2.257-14.1 13.277-24.798 27.088-26.556 34.5-3.955 40.959 41.574 46.157 66.15 3.86 16.74 6.072 35.963 6.072 55.703 0 8.121-0.374 16.155-1.107 24.084-2.849 34.259-15.042 66.204-34.033 92.99z" />
<glyph unicode="&#xe916;" glyph-name="play" horiz-adv-x="941" d="M0 59.392c0.613-68.529 56.308-123.846 124.923-123.846 22.586 0 43.772 5.994 62.054 16.477l690.761 390.163c37.993 20.776 63.33 60.464 63.33 106.069s-25.337 85.293-62.703 105.755l-691.998 390.117c-17.711 10.238-38.959 16.278-61.617 16.278-68.444 0-124.016-55.117-124.75-123.388z" />
<glyph unicode="&#xe917;" glyph-name="register-password" horiz-adv-x="2150" d="M512 960c227.532-0.872 420.134-149.435 486.985-354.764l997.815-3.636c84.831 0 153.6-68.769 153.6-153.6v-358.4c0-84.831-68.769-153.6-153.6-153.6s-153.6 68.769-153.6 153.6v204.8h-204.8v-204.8c0-84.831-68.769-153.6-153.6-153.6s-153.6 68.769-153.6 153.6v204.8h-331.191c-67.44-209.157-260.369-357.815-488.018-357.815-282.608 0-511.707 229.099-511.707 511.707s229.099 511.707 511.707 511.707c0.003 0 0.006 0 0.009 0zM512 652.8c-113.108 0-204.8-91.692-204.8-204.8s91.692-204.8 204.8-204.8c113.108 0 204.8 91.692 204.8 204.8 0.009 0.7 0.014 1.526 0.014 2.354 0 111.815-90.644 202.459-202.459 202.459-0.828 0-1.654-0.005-2.48-0.015z" />
<glyph unicode="&#xe918;" glyph-name="search" d="M1010.688 9.899l-200.363 200.533 7.168 9.216c60.911 76.97 98.037 175.2 98.985 282.069-0.096 253.219-205.219 458.283-458.238 458.283-253.079 0-458.24-205.161-458.24-458.24s205.161-458.24 458.24-458.24c0.386-0.001 0.843-0.002 1.299-0.002 106.663 0 204.607 37.333 281.477 99.644l8.381 6.854 200.704-200.704c7.566-8.147 18.336-13.228 30.293-13.228s22.727 5.081 30.27 13.202c8.079 7.636 13.093 18.392 13.093 30.319s-5.014 22.683-13.050 30.275zM458.069 129.365c-205.028 0.099-371.197 166.329-371.197 371.371 0 205.102 166.268 371.371 371.371 371.371s371.371-166.268 371.371-371.371c0-0.54-0.001-1.080-0.003-1.619-0.582-204.647-166.586-370.411-371.352-370.604z" />
<glyph unicode="&#xe919;" horiz-adv-x="1231" d="M615.526 919.808c0.002 0 0.004 0 0.006 0 145.012 0 274.718-65.527 361.125-168.587l45.806 6.949c-94.423 123.186-241.628 201.825-407.2 201.825-226.198 0-418.115-146.772-485.712-350.276l44.528 4.118c69.223 180.076 240.628 305.625 441.403 305.971z" />
<glyph unicode="&#xe91a;" horiz-adv-x="1231" d="M615.526-23.808c-0.002 0-0.004 0-0.006 0-145.012 0-274.718 65.527-361.125 168.587l-45.806-6.949c94.423-123.186 241.628-201.825 407.2-201.825 226.198 0 418.115 146.772 485.712 350.276l-44.221-4.067c-69.244-180.193-240.802-305.803-441.727-306.022z" />
<glyph unicode="&#xe91b;" horiz-adv-x="1231" d="M1230.95 795.085l-254.874-43.366q14.694-17.306 27.699-35.84l227.277 38.656v40.038z" />
<glyph unicode="&#xe91c;" horiz-adv-x="1231" d="M174.694 616.090l-174.694-29.85v-40.96l160.563 27.648q6.042 22.016 14.131 43.162z" />
<glyph unicode="&#xe91d;" horiz-adv-x="1231" d="M1070.592 323.123q-6.042-22.016-14.131-43.162l174.541 29.696v40.96z" />
<glyph unicode="&#xe91e;" horiz-adv-x="1231" d="M227.226 180.326l-227.226-38.656v-40.96l254.925 43.366q-14.694 17.51-27.699 36.25z" />
<glyph unicode="&#xe91f;" horiz-adv-x="1231" d="M732.467 706.56h-233.882c-46.798 0-84.736-37.938-84.736-84.736v-259.174c-0.001-0.194-0.001-0.425-0.001-0.655 0-73.009 38.973-136.915 97.249-172.050l207.495-0.505c59.323 35.608 98.407 99.593 98.407 172.706 0 0.177 0 0.354-0.001 0.531v259.403c-0.145 46.616-37.911 84.364-84.52 84.48zM683.469 517.12c33.37-13.366 60.22-37.155 77.121-67.278 46.475-85.349 18.93-179.967-51.419-227.071h-187.238c-45.181 30.502-74.496 81.516-74.496 139.376 0 0.105 0 0.209 0 0.313-0.051 114.825 115.302 203.043 235.981 154.864zM504.269 615.885h222.413v-42.752c0-0.015 0-0.033 0-0.051 0-4.544-1.336-8.777-3.638-12.325l-13.002-20.392c-27.376 14.85-59.939 23.579-94.541 23.579s-67.165-8.73-95.607-24.106l-11.99 21.007c-2.271 3.471-3.626 7.72-3.635 12.286zM751.309 542.72c5.607 8.595 8.946 19.112 8.96 30.409v48.951c0 15.383-12.47 27.853-27.853 27.853h-233.83c-15.383 0-27.853-12.47-27.853-27.853v-48.435c0.003-11.318 3.344-21.855 9.093-30.681l12.975-20.263c-17.711-13.688-32.739-29.759-44.903-47.91l-0.46 147.29c0 28.277 22.923 51.2 51.2 51.2h233.882c28.277 0 51.2-22.923 51.2-51.2v-148.122c-12.624 18.881-27.652 34.952-44.898 48.294z" />
<glyph unicode="&#xe920;" horiz-adv-x="1231" d="M518.81 355.021v0c-0.177 2.198-0.278 4.759-0.278 7.343 0 53.726 43.554 97.28 97.28 97.28 2.584 0 5.145-0.101 7.678-0.299 17.124 14.767 6.782 33.864-7.964 33.864-72.071-0.087-130.473-58.489-130.56-130.552 0-14.754 19.098-25.096 33.843-7.637z" />
<glyph unicode="&#xe921;" horiz-adv-x="1231" d="M615.526 919.808c0.002 0 0.004 0 0.006 0 145.012 0 274.718-65.527 361.125-168.587l45.806 6.949c-94.423 123.186-241.628 201.825-407.2 201.825-226.198 0-418.115-146.772-485.712-350.276l44.528 4.118c69.223 180.076 240.628 305.625 441.403 305.971z" />
<glyph unicode="&#xe922;" horiz-adv-x="1231" d="M615.526-23.808c-0.002 0-0.004 0-0.006 0-145.012 0-274.718 65.527-361.125 168.587l-45.806-6.949c94.423-123.186 241.628-201.825 407.2-201.825 226.198 0 418.115 146.772 485.712 350.276l-44.221-4.067c-69.244-180.193-240.802-305.803-441.727-306.022z" />
<glyph unicode="&#xe923;" horiz-adv-x="1231" d="M1230.95 795.085l-254.874-43.366q14.694-17.306 27.699-35.84l227.277 38.656v40.038z" />
<glyph unicode="&#xe924;" horiz-adv-x="1231" d="M174.694 616.090l-174.694-29.85v-40.96l160.563 27.648q6.042 22.016 14.131 43.162z" />
<glyph unicode="&#xe925;" horiz-adv-x="1231" d="M1070.592 323.123q-6.042-22.016-14.131-43.162l174.541 29.696v40.96z" />
<glyph unicode="&#xe926;" horiz-adv-x="1231" d="M227.226 180.326l-227.226-38.656v-40.96l254.925 43.366q-14.694 17.51-27.699 36.25z" />
<glyph unicode="&#xe927;" horiz-adv-x="1231" d="M858.931 669.542h-97.28v38.298h-292.506v-38.298h-100.864v-99.584c0-0.124-0.001-0.271-0.001-0.418 0-66.065 49.93-120.468 114.113-127.531 18.606-37.324 50.595-65.458 89.58-77.992l1.056-17.497c-30.478-13.118-53.511-38.581-63.076-69.919l-16.949-0.788v-0.41h-21.965v-87.040h288.973v87.040h-37.53v0.41h-1.178c-9.779 32.123-32.809 57.583-62.562 70.43l-0.722 17.276c40.041 12.827 72.030 40.961 89.672 77.346 65.147 8.003 115.077 62.406 115.077 128.47 0 0.147 0 0.293-0.001 0.44v99.766zM728.218 219.955h-225.28v23.245h33.075v0.41h159.13v-0.41h33.075zM543.539 275.61c9.412 21.315 27.343 37.404 49.36 44.141l11.978 3.527v36.659h21.35v-36.659l11.418-3.379c22.577-6.884 40.508-22.973 49.721-43.783zM640 391.68h-49.459c-37.746 8.984-67.85 35.459-81.695 70.179l-3.143 8.26-0.922 2.355h-10.547c-52.337 1.456-94.209 44.23-94.209 96.784 0 0.174 0 0.349 0.001 0.523v67.916h100.966v38.349h229.069v-38.298h100.915v-67.789c0.001-0.147 0.001-0.322 0.001-0.496 0-52.554-41.872-95.328-94.075-96.781l-10.681-0.003-0.922-2.355-2.867-7.475c-14.154-35.69-44.458-62.28-81.645-71.012z" />
<glyph unicode="&#xe928;" horiz-adv-x="1231" d="M421.325 620.288h-3.84v-50.33c0.060-38.658 27.521-70.884 63.998-78.3l15.158-2.699 4.557-0.87v132.198h-79.872zM469.146 588.493v-57.498c-12.095 8.819-19.866 22.941-19.866 38.877 0 0.012 0 0.024 0 0.037v18.584z" />
<glyph unicode="&#xe929;" horiz-adv-x="1231" d="M749.005 491.571c36.991 7.503 64.452 39.729 64.512 78.381v50.336h-83.456v-132.454l4.557 0.87zM781.722 588.493v-18.534c0-0.010 0-0.023 0-0.035 0-15.936-7.77-30.058-19.729-38.782l-0.136 57.352z" />
<glyph unicode="&#xe92a;" horiz-adv-x="1231" d="M649.779 587.725l-34.253 49.971-3.174-4.608-31.078-45.363-52.736-15.36-5.12-1.587 36.966-48.026-1.536-54.989v-5.581l5.12 1.894 51.814 18.432 51.814-18.432 5.12-1.894v5.581l-1.997 54.784 36.966 48.026-5.12 1.587zM638.925 531.405l0.666-24.166-24.013 8.55-1.28-0.461-22.733-8.090 0.666 24.115v1.638l-0.819 1.075-14.746 19.149 24.474 7.219 0.768 1.126 13.67 19.917 13.67-19.917 0.512-0.922 1.331-0.41 23.142-6.81-15.565-20.224z" />
<glyph unicode="&#xe92b;" horiz-adv-x="1231" d="M615.526 919.808c0.002 0 0.004 0 0.006 0 145.012 0 274.718-65.527 361.125-168.587l45.806 6.949c-94.423 123.186-241.628 201.825-407.2 201.825-226.198 0-418.115-146.772-485.712-350.276l44.528 4.118c69.223 180.076 240.628 305.625 441.403 305.971z" />
<glyph unicode="&#xe92c;" horiz-adv-x="1231" d="M615.526-23.808c-0.002 0-0.004 0-0.006 0-145.012 0-274.718 65.527-361.125 168.587l-45.806-6.949c94.423-123.186 241.628-201.825 407.2-201.825 226.198 0 418.115 146.772 485.712 350.276l-44.221-4.067c-69.244-180.193-240.802-305.803-441.727-306.022z" />
<glyph unicode="&#xe92d;" horiz-adv-x="1231" d="M1230.95 795.085l-254.874-43.366q14.694-17.306 27.699-35.84l227.277 38.656v40.038z" />
<glyph unicode="&#xe92e;" horiz-adv-x="1231" d="M174.694 616.090l-174.694-29.85v-40.96l160.563 27.648q6.042 22.016 14.131 43.162z" />
<glyph unicode="&#xe92f;" horiz-adv-x="1231" d="M1070.592 323.123q-6.042-22.016-14.131-43.162l174.541 29.696v40.96z" />
<glyph unicode="&#xe930;" horiz-adv-x="1231" d="M227.226 180.326l-227.226-38.656v-40.96l254.925 43.366q-14.694 17.51-27.699 36.25z" />
<glyph unicode="&#xe931;" horiz-adv-x="1231" d="M642.304 678.4c-0.323 0.016-0.702 0.026-1.082 0.026-12.64 0-22.886-10.247-22.886-22.886s10.247-22.886 22.886-22.886c0.381 0 0.759 0.009 1.135 0.028l38.603-0.002 12.134-26.675h-168.96c-8.959-0.059-16.693-5.245-20.42-12.769l-41.788-86.457c-14.326 5.064-30.847 7.99-48.052 7.99-82.003 0-148.48-66.477-148.48-148.48s66.477-148.48 148.48-148.48c72.444 0 132.77 51.881 145.851 120.516l55.904 0.928c8.97 0.020 16.721 5.221 20.421 12.768l88.738 183.891 18.586-40.96c-44.566-26.067-74.027-73.692-74.027-128.199 0-81.749 66.27-148.019 148.019-148.019s148.019 66.27 148.019 148.019c0 81.749-66.27 148.019-148.019 148.019-11.067 0-21.85-1.215-32.224-3.518l-68.801 153.783c-3.677 7.898-11.517 13.29-20.624 13.363zM487.987 678.4c-0.323 0.016-0.702 0.026-1.082 0.026-12.64 0-22.886-10.247-22.886-22.886s10.247-22.886 22.886-22.886c0.381 0 0.759 0.009 1.135 0.028l64.92-0.002c0.323-0.016 0.702-0.026 1.082-0.026 12.64 0 22.886 10.247 22.886 22.886s-10.247 22.886-22.886 22.886c-0.381 0-0.759-0.009-1.135-0.028zM686.080 560.282l-67.123-139.11-56.832 139.11h123.955zM584.192 384.973h-23.040c-5.409 41.319-27.115 76.729-58.34 100.126l21.681 45.998zM817.664 469.094c56.862-0.003 102.957-46.1 102.957-102.963 0-56.865-46.098-102.963-102.963-102.963s-102.963 46.098-102.963 102.963c0 36.429 18.919 68.44 47.467 86.742l46.081-100.208c3.706-7.98 11.652-13.414 20.867-13.414 0.008 0 0.016 0 0.024 0 0.013 0 0.029 0 0.046 0 3.4 0 6.623 0.755 9.512 2.106 7.817 3.627 13.236 11.543 13.236 20.725 0 3.436-0.759 6.694-2.118 9.617l-43.973 96.781c3.517 0.424 7.589 0.666 11.718 0.666 0.020 0 0.041 0 0.061 0zM413.747 469.094c0.059 0 0.129 0 0.199 0 9.957 0 19.583-1.421 28.685-4.072l-45.677-92.952c-1.431-2.903-2.268-6.321-2.268-9.933 0-12.591 10.168-22.807 22.741-22.886h95.598c-12.252-44.129-52.069-75.981-99.326-75.981-56.837 0-102.912 46.075-102.912 102.912s46.075 102.912 102.912 102.912c0.017 0 0.034 0 0.052 0zM514.918 384.973h-60.979l28.058 57.907c16.624-14.775 28.381-34.7 32.765-57.259z" />
<glyph unicode="&#xe932;" horiz-adv-x="1231" d="M615.526 919.808c0.002 0 0.004 0 0.006 0 145.012 0 274.718-65.527 361.125-168.587l45.806 6.949c-94.423 123.186-241.628 201.825-407.2 201.825-226.198 0-418.115-146.772-485.712-350.276l44.528 4.118c69.223 180.076 240.628 305.625 441.403 305.971z" />
<glyph unicode="&#xe933;" horiz-adv-x="1231" d="M615.526-23.808c-0.002 0-0.004 0-0.006 0-145.012 0-274.718 65.527-361.125 168.587l-45.806-6.949c94.423-123.186 241.628-201.825 407.2-201.825 226.198 0 418.115 146.772 485.712 350.276l-44.221-4.067c-69.244-180.193-240.802-305.803-441.727-306.022z" />
<glyph unicode="&#xe934;" horiz-adv-x="1231" d="M1230.95 795.085l-254.874-43.366q14.694-17.306 27.699-35.84l227.277 38.656v40.038z" />
<glyph unicode="&#xe935;" horiz-adv-x="1231" d="M174.694 616.090l-174.694-29.85v-40.96l160.563 27.648q6.042 22.016 14.131 43.162z" />
<glyph unicode="&#xe936;" horiz-adv-x="1231" d="M1070.592 323.123q-6.042-22.016-14.131-43.162l174.541 29.696v40.96z" />
<glyph unicode="&#xe937;" horiz-adv-x="1231" d="M227.226 180.326l-227.226-38.656v-40.96l254.925 43.366q-14.694 17.51-27.699 36.25z" />
<glyph unicode="&#xe938;" horiz-adv-x="1231" d="M850.381 590.95l-0.461 0.41c4.881 2.393 9.057 5.408 12.645 9.010 8.804 9.226 14.22 21.747 14.22 35.534s-5.417 26.309-14.238 35.553l-23.328 23.378c-8.892 8.832-21.143 14.29-34.67 14.29-0.249 0-0.498-0.002-0.747-0.006-13.678-0.144-26.118-5.493-35.425-14.16-3.882-3.881-7.115-8.473-9.472-13.554l-0.992 0.578c-8.893 8.837-21.148 14.299-34.679 14.299-0.408 0-0.815-0.005-1.221-0.015-13.656-0.143-26.095-5.492-35.402-14.159-3.782-3.817-6.984-8.279-9.411-13.192-8.529 6.44-19.312 10.515-31.048 10.515-0.291 0-0.582-0.003-0.872-0.008-13.672-0.144-26.112-5.492-35.419-14.16l0.032 0.029c-8.758-9.215-14.146-21.706-14.146-35.456s5.388-26.241 14.167-35.478l32.542-32.541-140.339-139.418-32.41 32.41c-8.893 8.837-21.148 14.299-34.679 14.299-0.408 0-0.815-0.005-1.221-0.015-13.656-0.143-26.095-5.492-35.402-14.159-8.925-8.899-14.466-21.248-14.466-34.892 0-0.323 0.003-0.645 0.009-0.967 0.090-11.87 4.16-22.82 10.942-31.558-5.566-2.342-10.247-5.597-14.221-9.559-8.801-9.223-14.218-21.745-14.218-35.532s5.417-26.309 14.238-35.553l1.824-1.823c-5.37-2.407-9.964-5.574-13.882-9.427-9.077-9.121-14.693-21.706-14.693-35.603s5.615-26.483 14.701-35.612l23.192-23.192c8.893-8.837 21.148-14.299 34.679-14.299 0.408 0 0.815 0.005 1.221 0.015 13.656 0.143 26.095 5.492 35.402 14.159 3.882 3.881 7.115 8.473 9.472 13.554l0.992-0.578c8.893-8.837 21.148-14.299 34.679-14.299 0.408 0 0.815 0.005 1.221 0.015 13.656 0.143 26.095 5.492 35.402 14.159 3.96 3.945 7.246 8.625 9.626 13.807 8.485-6.347 19.196-10.362 30.844-10.362 0.305 0 0.609 0.003 0.913 0.008 13.67 0.144 26.11 5.492 35.417 14.16l-0.032-0.029c8.758 9.215 14.146 21.706 14.146 35.456s-5.388 26.241-14.167 35.478l-40.53 40.528 139.981 139.981 40.397-40.397c8.893-8.837 21.148-14.299 34.679-14.299 0.408 0 0.815 0.005 1.221 0.015 13.656 0.143 26.095 5.492 35.402 14.159 8.925 8.899 14.466 21.248 14.466 34.892 0 0.323-0.003 0.645-0.009 0.967-0.090 11.87-4.16 22.82-10.942 31.558 5.575 2.417 10.256 5.755 14.211 9.805 8.846 8.902 14.308 21.157 14.308 34.688 0 0.408-0.005 0.815-0.015 1.221-0.143 13.656-5.492 26.095-14.159 35.402zM558.080 366.438l-31.949 31.949 139.981 139.981 31.949-31.949zM444.211 236.8c-0.142-4.553-2.076-8.628-5.115-11.567-2.9-2.796-6.845-4.515-11.192-4.515s-8.292 1.72-11.192 4.516l-22.984 23.086c-2.768 2.906-4.471 6.847-4.471 11.187s1.703 8.282 4.478 11.194c2.889 2.785 6.834 4.504 11.181 4.504s8.292-1.72 11.192-4.516l23.24-22.37c2.943-2.961 4.786-7.018 4.864-11.505zM602.624 266.394c-0.142-4.553-2.076-8.628-5.115-11.567-2.9-2.796-6.845-4.515-11.192-4.515s-8.292 1.72-11.192 4.516l-29.589 29.589-92.57 93.594-29.594 29.594c-3.020 2.934-4.893 7.034-4.893 11.571s1.874 8.637 4.889 11.567c2.863 2.546 6.651 4.1 10.802 4.1 0.002 0 0.003 0 0.005 0 4.553-0.142 8.628-2.076 11.566-5.115l152.785-152.786c2.471-2.804 3.995-6.493 4.045-10.537zM405.709 353.997c2.895 2.791 6.84 4.511 11.187 4.511s8.292-1.72 11.192-4.516l92.769-93.589c3.019-2.72 4.909-6.643 4.909-11.008s-1.89-8.288-4.896-10.996c-2.879-2.89-6.845-4.672-11.226-4.672-0.054 0-0.108 0-0.162 0.001-0.041-0.001-0.1-0.001-0.158-0.001-4.285 0-8.169 1.72-10.997 4.508l-92.619 92.568c-3.020 2.934-4.893 7.034-4.893 11.571s1.874 8.637 4.889 11.567zM812.954 477.594c0.033-0.37 0.051-0.801 0.051-1.237 0-4.012-1.58-7.655-4.152-10.34-2.89-2.786-6.835-4.505-11.182-4.505s-8.292 1.72-11.192 4.516l-152.776 152.008c-3.020 2.934-4.893 7.034-4.893 11.571s1.874 8.637 4.889 11.567c2.899 2.795 6.844 4.515 11.191 4.515s8.292-1.72 11.192-4.516l29.589-29.589 92.57-92.826 29.85-29.798c2.923-2.921 4.775-6.915 4.915-11.34zM787.354 659.2c0 0.001 0 0.003 0 0.005 0 4.151 1.553 7.939 4.11 10.815 2.881 2.775 6.826 4.494 11.173 4.494s8.292-1.72 11.192-4.516l23.189-23.189c3.143-2.702 5.121-6.682 5.121-11.124 0-0.049 0-0.098-0.001-0.147-0.142-4.546-2.076-8.621-5.115-11.559-2.9-2.796-6.845-4.515-11.192-4.515s-8.292 1.72-11.192 4.516l-23.035 23.035c-2.708 3.201-4.354 7.375-4.354 11.934 0 0.088 0.001 0.176 0.002 0.264zM710.554 657.971c2.895 2.791 6.84 4.511 11.187 4.511s8.292-1.72 11.192-4.516l57.595-57.595 34.355-34.611c3.044-2.943 4.978-7.018 5.119-11.545l0.001-0.64c0.071-0.497 0.112-1.071 0.112-1.655 0-3.71-1.644-7.036-4.244-9.289-2.911-2.804-6.856-4.524-11.203-4.524s-8.292 1.72-11.192 4.516l-92.923 92.974c-2.754 2.902-4.447 6.834-4.447 11.162s1.694 8.259 4.454 11.169z" />
<glyph unicode="&#xe939;" glyph-name="trash" horiz-adv-x="851" d="M425.131 43.52c16.927 0.096 30.624 13.793 30.72 30.711v527.369c0 17.013-13.792 30.805-30.805 30.805s-30.805-13.792-30.805-30.805v-527.189c0.373-16.908 13.982-30.517 30.855-30.89zM589.824 43.52c16.927 0.096 30.624 13.793 30.72 30.711v527.369c0 17.013-13.792 30.805-30.805 30.805s-30.805-13.792-30.805-30.805v-527.189c0.959-16.661 14.23-29.932 30.803-30.887zM261.632 43.52c16.927 0.096 30.624 13.793 30.72 30.711v527.369c0 17.013-13.792 30.805-30.805 30.805s-30.805-13.792-30.805-30.805v-527.189c0.462-16.871 14.019-30.429 30.847-30.89zM851.456 806.4c-1.011 28.922-24.294 52.086-53.171 52.905l-233.549 0.002v37.376c0 34.969-28.348 63.317-63.317 63.317h-152.405c-34.969 0-63.317-28.348-63.317-63.317v-37.547h-233.643c-28.77-0.096-52.056-23.44-52.056-52.224 0-0.18 0.001-0.36 0.003-0.54v-87.354c0.097-28.709 23.344-51.957 52.044-52.053h14.004v-645.632c-0.011-0.513-0.018-1.118-0.018-1.724 0-46.186 37.441-83.627 83.627-83.627 0.606 0 1.211 0.006 1.814 0.019l549.286-0.002c47.128 0 85.333 38.205 85.333 85.333v645.12h13.995c28.748 0 52.053 23.305 52.053 52.053zM723.797 666.453v-646.997c0-13.29-10.774-24.064-24.064-24.064h-549.035c-13.29 0-24.064 10.774-24.064 24.064v646.997zM505.344 896.683v-37.547h-159.232v37.547c0.087 1.472 1.259 2.644 2.723 2.73h153.608c0.001 0 0.003 0 0.005 0 1.542 0 2.804-1.203 2.896-2.723zM788.821 797.525v-70.656h-728.405v70.656z" />
<glyph unicode="&#xe93a;" glyph-name="update-sub" horiz-adv-x="959" d="M515.072 562.517l78.165 397.483-593.237-594.773h492.373l-124.928-429.227 591.872 626.517z" />
<glyph unicode="&#xe93b;" glyph-name="user-edit" horiz-adv-x="1354" d="M1326.251 771.243l-159.232 159.232c-17.934 18.203-42.854 29.481-70.408 29.481-26.701 0-50.929-10.591-68.712-27.8l0.027 0.026-592.043-591.872-100.523-401.067 400.384 100.523 37.717 38.229 554.667 554.155c16.325 18.069 26.314 42.134 26.314 68.532 0 27.37-10.738 52.232-28.231 70.603zM489.984 29.013l-64.341 68.267 51.2 202.923 219.307-219.477zM716.8 161.963l-158.72 158.037 531.115 529.067 158.72-158.037zM0-64h219.477l4.096 33.109 8.363 66.389h-231.936v-99.499z" />
<glyph unicode="&#xe93c;" glyph-name="user-mentality" horiz-adv-x="832" d="M413.55-64c-241.957 0-413.55 168.375-413.55 399.214 0 121.71 73.143 254.83 76.946 259.072 5.701 9.701 16.085 16.111 27.967 16.111 14.95 0 27.53-10.147 31.227-23.93s19.215-75.563 46.57-115.645c14.818-24.171 33.566-44.412 55.578-60.441-9.106 40.033-14.669 86.47-14.669 134.207 0 36.271 3.212 71.792 9.366 106.293 44.957 246.949 239.956 306.195 247.855 307.804 2.888 0.888 6.207 1.4 9.646 1.4 8.193 0 15.707-2.903 21.571-7.736 6.194-6.333 10.052-15.078 10.052-24.724 0-1.997-0.165-3.956-0.483-5.864 0.028-1.402-32.008-176.068 35.283-325.279 6.437-12.873 14.629-29.257 23.991-44.91 3.352 26.051 7.862 48.863 13.732 71.123 12.633 48.163 46.024 90.673 90.497 115.919 4.76 2.213 9.209 3.213 13.891 3.213 7.908 0 15.149-2.852 20.752-7.583 7.511-5.323 12.384-14.040 12.384-23.896 0-2.302-0.266-4.541-0.768-6.69 0.039-1.411-9.616-62.266 41.73-147.258 46.519-76.946 59.246-126.683 59.246-222.793 1.463-229.23-175.104-397.605-418.816-397.605zM99.328 491.886c-20.044-46.569-32.77-100.616-35.222-157.326-0.033-194.93 144.205-335.949 349.444-335.949s355.913 141.019 355.913 334.994c0 83.383-9.655 121.856-49.737 189.147-21.154 33.612-37.279 72.804-46.106 114.686-7.893-8.631-13.487-21.539-16.384-35.437-9.763-38.265-15.297-81.397-15.297-125.82 0-8.42 0.199-16.794 0.592-25.116 0.020 0.422 0.057-0.456 0.057-1.343 0-13.55-8.609-25.090-20.656-29.447-3.362-1.173-6.988-1.812-10.762-1.812-10.575 0-19.979 5.009-25.971 12.784-29.379 39.807-57.586 84.9-82.299 132.11-55.705 118.7-54.096 239.825-49.415 310.481-52.955-30.427-134.583-99.328-160.914-238.885-24.869-136.338 24.869-272.53 24.869-274.725 1.419-3.32 2.244-7.182 2.244-11.238 0-8.134-3.32-15.494-8.678-20.796-5.408-6.792-13.674-11.106-22.947-11.106-3.251 0-6.378 0.53-9.299 1.509-64.151 20.3-116.95 61.67-151.41 115.846-9.139 16.002-18.298 34.506-26.512 53.515z" />
<glyph unicode="&#xe93d;" glyph-name="user-picture" d="M942.080 960h-860.16c-45.204-0.097-81.823-36.716-81.92-81.911v-860.169c0.097-45.204 36.716-81.823 81.911-81.92h860.169c45.204 0.097 81.823 36.716 81.92 81.911v860.169c-0.097 45.204-36.716 81.823-81.911 81.92zM942.080 17.92h-860.16v860.16h860.16zM839.68 222.72h-655.36l245.76 245.76 184.32-184.32 81.92 81.92zM593.92 611.84c0 56.554 45.846 102.4 102.4 102.4s102.4-45.846 102.4-102.4c0-56.554-45.846-102.4-102.4-102.4-0.306-0.003-0.667-0.005-1.029-0.005-55.988 0-101.376 45.388-101.376 101.376 0 0.362 0.002 0.723 0.006 1.084z" />
<glyph unicode="&#xe93e;" glyph-name="user-profile-filled" horiz-adv-x="952" d="M475.989 472.917c134.504 0 243.541 109.037 243.541 243.541s-109.037 243.541-243.541 243.541c-134.504 0-243.541-109.037-243.541-243.541s109.037-243.541 243.541-243.541zM39.253-64h912.725c0 262.882-213.108 475.989-475.989 475.989s-475.989-213.108-475.989-475.989z" />
<glyph unicode="&#xe93f;" glyph-name="user-profile" horiz-adv-x="937" d="M468.388 960c-139.121 0-251.901-112.78-251.901-251.901s112.78-251.901 251.901-251.901c139.121 0 251.901 112.78 251.901 251.901-0.198 139.041-112.86 251.702-251.881 251.9zM468.388 543.073c-2.291-0.114-4.974-0.178-7.673-0.178-91.141 0-165.026 73.885-165.026 165.026s73.885 165.026 165.026 165.026c2.637 0 5.26-0.062 7.867-0.184l-0.369 0.014c91.141 0 165.026-73.885 165.026-165.026s-73.885-165.026-165.026-165.026zM468.214 393.049v0c-254.68-0.021-461.875-203.303-468.202-456.462l87.212-0.587c6.417 205.682 174.692 369.978 381.34 369.978s374.922-164.296 381.325-369.389l87.238-0.589c-6.625 253.819-213.96 457.049-468.762 457.049-0.053 0-0.105 0-0.158 0z" />
<glyph unicode="&#xe940;" glyph-name="workout-mode" horiz-adv-x="899" d="M451.072 298.155c40.156 6.338 70.498 40.702 70.498 82.152 0 0.519-0.005 1.036-0.014 1.553 0.003 0.185 0.004 0.495 0.004 0.805 0 17.412-3.514 34.003-9.872 49.103l-70.857 161.642-69.973-162.475c-6.152-14.261-9.73-30.863-9.73-48.302 0-0.239 0.001-0.478 0.002-0.716v-4.571c-0.086-1.403-0.135-3.042-0.135-4.693s0.049-3.291 0.146-4.918c5.192-39.694 38.986-70.205 79.905-70.205 3.534 0 7.015 0.228 10.429 0.669zM797.355 834.731c-2.206-0.023-4.195-0.932-5.631-2.388l-51.201-51.201c-1.479-1.456-2.395-3.48-2.395-5.717s0.916-4.261 2.394-5.716l93.356-93.356c1.447-1.428 3.437-2.31 5.632-2.31s4.185 0.882 5.633 2.311l51.199 51.199c1.428 1.447 2.31 3.437 2.31 5.632s-0.882 4.185-2.311 5.633l-93.354 93.695c-1.437 1.374-3.389 2.219-5.539 2.219-0.033 0-0.066 0-0.098-0.001zM332.971 960h216.747c4.43 0 8.021-3.591 8.021-8.021v-72.192c0-4.43-3.591-8.021-8.021-8.021h-216.747c-4.43 0-8.021 3.591-8.021 8.021v72.192c0 4.43 3.591 8.021 8.021 8.021zM441.344 818.688c-243.748 0-441.344-197.596-441.344-441.344s197.596-441.344 441.344-441.344c243.748 0 441.344 197.596 441.344 441.344-0.291 243.631-197.714 441.053-441.316 441.344zM441.344 24.235c-195.017 0-353.109 158.092-353.109 353.109s158.092 353.109 353.109 353.109c195.017 0 353.109-158.092 353.109-353.109-0.194-194.939-158.171-352.915-353.091-353.109z" />
</font>
</defs>
</svg>
