<svg xmlns="http://www.w3.org/2000/svg" viewBox="0 0 351.27 293.1"><defs><style>.cls-1{fill:#5ac7d4;}.cls-2{fill:#d32027;}</style></defs><title>Asset 1scale</title><g id="Layer_2" data-name="Layer 2"><g id="ICONLOGO_Image" data-name="ICONLOGO Image"><circle class="cls-1" cx="311.41" cy="124.02" r="5.61"/><circle class="cls-1" cx="38.68" cy="171.99" r="5.61"/><g id="zybrM5"><path class="cls-2" d="M286.24,81.44c0,.34,0,.67,0,1q0,46.59,0,93.19v1l-19.81,3.23-9-42.23h-.12v43.7l-19.78,3.23c-.16-.59-.21-94.18,0-95.2l19.8-3.23,9,40.2.16,0V84.75a6,6,0,0,1,.58-.16l11.71-1.91,7.12-1.14a.72.72,0,0,0,.2-.11Z"/><path class="cls-2" d="M63.81,117.78c1.48-.26,2.95-.53,4.43-.77l11.94-2,4-.65V209.6l-2.56.44L69.71,212l-5.05.83a6.73,6.73,0,0,1-.85,0Z"/><path class="cls-2" d="M218.65,140.07q0,16.46,0,32.92a17.73,17.73,0,0,1-13.06,16.76c-1.6.4-3.25.6-4.88.86l-12,2c-1.66.27-3.31.61-5,.79a11.77,11.77,0,0,1-13.16-9.55,15.62,15.62,0,0,1-.29-3q0-32.85,0-65.69a17.72,17.72,0,0,1,13-16.79c1.62-.41,3.3-.61,5-.88,4.31-.71,8.62-1.42,12.94-2.1a33.6,33.6,0,0,1,5.61-.71,11.79,11.79,0,0,1,11.75,10.81c.07.77.11,1.55.11,2.32Q218.65,123.92,218.65,140.07Zm-28.09,4.51q0,13.36,0,26.71c0,.26,0,.52,0,.78a1.46,1.46,0,0,0,1.73,1.44c1.43-.22,2.86-.46,4.28-.72a2.07,2.07,0,0,0,1.72-1.69,4,4,0,0,0,0-.93q0-26.75,0-53.5c0-.23,0-.47,0-.7a1.45,1.45,0,0,0-1.69-1.4q-2.19.32-4.36.73a2.11,2.11,0,0,0-1.72,2c0,.26,0,.52,0,.78Q190.55,131.33,190.55,144.57Z"/><path class="cls-2" d="M151.43,158.8v.81c0,8.1-.05,16.21,0,24.31a17.81,17.81,0,0,1-12.73,16.71,46.77,46.77,0,0,1-4.73.87q-6,1-11.94,1.95c-2,.32-3.92.72-5.9.9a11.73,11.73,0,0,1-12.87-9.92,16.1,16.1,0,0,1-.2-2.7c0-21.85,0-43.7,0-65.55a17.91,17.91,0,0,1,12.79-16.82c1.57-.42,3.2-.61,4.8-.88q6-1,11.94-1.95c2-.32,3.93-.71,5.9-.88a11.72,11.72,0,0,1,12.79,10.29,15.38,15.38,0,0,1,.15,2.09q0,11.18,0,22.37c0,.23,0,.46,0,.75l-20.22,5.74c0-.37,0-.67,0-1q0-9,0-18.09c0-.26,0-.52,0-.78a1.42,1.42,0,0,0-1.68-1.48c-.77.07-1.53.22-2.3.34l-1.84.3a2.22,2.22,0,0,0-2,2.24c0,.21,0,.41,0,.62q0,26.6,0,53.2c0,.26,0,.52,0,.78a1.43,1.43,0,0,0,1.67,1.42c.82-.08,1.64-.23,2.46-.36l1.76-.29a2.18,2.18,0,0,0,1.9-2.13c0-.23,0-.47,0-.7q0-10.13,0-20.27v-1Z"/></g><path class="cls-1" d="M175.59,11.5A134.8,134.8,0,0,1,279.14,60l12.94-2.2A146.38,146.38,0,0,0,175.59,0c-65,0-120.27,42.56-139.38,101.28l13-2.2A135.27,135.27,0,0,1,175.59,11.5Z"/><path class="cls-1" d="M175.59,281.6A134.8,134.8,0,0,1,72,233.14l-12.94,2.2A146.38,146.38,0,0,0,175.59,293.1c65,0,120.27-42.56,139.38-101.28L302,194A135.27,135.27,0,0,1,175.59,281.6Z"/><polygon class="cls-1" points="351.24 53.53 0 113.27 0 124.94 351.27 65.19 351.27 53.68 351.24 53.53"/><polygon class="cls-1" points="0 227.9 0 239.56 351.27 179.81 351.27 168.15 0 227.9"/></g></g></svg>