<svg xmlns="http://www.w3.org/2000/svg" viewBox="0 0 443.86 370.36"><defs><style>.cls-1{fill:none;}.cls-2{fill:#d4edf0;}.cls-3{fill:#d32027;}.cls-4{fill:#5ac7d4;}</style></defs><title>Asset 1logo2</title><g id="Layer_2" data-name="Layer 2"><g id="standard"><g id="_Group_" data-name="&lt;Group&gt;"><path id="_Path_" data-name="&lt;Path&gt;" class="cls-1" d="M131.13,172.06c.6-3,1.18-6,1.75-9a.87.87,0,0,0,0-.54c-.12-.22-.32-.54-.51-.56a1.34,1.34,0,0,0-1,.26,2,2,0,0,0-.42,1c-.56,2.72-1.12,5.43-1.61,8.16a4.69,4.69,0,0,0,.21,1.5C130.5,173.16,131,172.81,131.13,172.06Z"/><path id="_Path_2" data-name="&lt;Path&gt;" class="cls-1" d="M135.49,172.19c3-.46,6-.95,9.05-1.35a2.2,2.2,0,0,0,2.17-2.1c.1-.81.31-1.62.54-2.77-4.21-1.32-8.21-2.35-12.18-3.28-1.28,2.12-2.35,7.43-2,9.62C133.89,172.72,134.68,172.31,135.49,172.19Z"/><path id="_Path_3" data-name="&lt;Path&gt;" class="cls-1" d="M133.71,159.85a8.1,8.1,0,0,0,.58-1.56c1.45-5.5,3.9-10.59,6.34-15.69.32-.66.77-1.27,1.14-1.91a.88.88,0,0,0-.27-1.22.91.91,0,0,0-1.43.25,11,11,0,0,0-.72,1.19,105.56,105.56,0,0,0-7.19,17.44c-.11.35-.19.71-.33,1.2a4.07,4.07,0,0,0,.72.69A.77.77,0,0,0,133.71,159.85Z"/><path id="_Path_4" data-name="&lt;Path&gt;" class="cls-1" d="M186.82,163.95c-1.09-2.1-11.25-16.28-16.46-23a6.54,6.54,0,0,0-.76-.72c-5.57,4.53-14.72,22.6-14.53,28.6,2.05.06,24.76-3.26,30.51-4.46A9.55,9.55,0,0,0,186.82,163.95Z"/><path id="_Path_5" data-name="&lt;Path&gt;" class="cls-1" d="M201.09,149.9c1.74-10.53,3.34-20.8,4.85-31.09,0-.24-.16-.51-.24-.75-7.1.49-23.67,8.81-28.42,14.62a9.42,9.42,0,0,0,1,.93q10.48,7.69,21,15.34A14.38,14.38,0,0,0,201.09,149.9Z"/><path id="_Path_6" data-name="&lt;Path&gt;" class="cls-1" d="M150.58,169.24a9.13,9.13,0,0,0,.6-1.85,73.27,73.27,0,0,1,13-26.92c.72-1,1.55-1.85,2.27-2.82s.7-1.14-.73-2.59c-7.54,7.09-16.32,24.27-17.42,34.71C149.46,170.15,150.2,170,150.58,169.24Z"/><path id="_Path_7" data-name="&lt;Path&gt;" class="cls-1" d="M150.77,155.7c1.28-2.76,2.55-5.53,3.92-8.5-3.63-2.27-7.31-4.21-11.25-6.56a87.37,87.37,0,0,0-8.29,20.12,16.19,16.19,0,0,0,1.85.77q4.71,1.3,9.45,2.53a5.66,5.66,0,0,0,1.24,0C148.92,161.33,149.53,158.39,150.77,155.7Z"/><path id="_Path_8" data-name="&lt;Path&gt;" class="cls-1" d="M195.79,95.09l-.27.09a91.06,91.06,0,0,0-18,7.46,4.46,4.46,0,0,0-1.11.8.9.9,0,0,0-.1.75c.07.23.32.41.51.62a3.91,3.91,0,0,0,.83-.16c.76-.34,1.52-.69,2.26-1.08a80.5,80.5,0,0,1,11.21-4.92c1.75-.62,3.52-1.17,5.28-1.78.72-.25,1-.7.73-1.24S196.39,94.91,195.79,95.09Z"/><path id="_Path_9" data-name="&lt;Path&gt;" class="cls-1" d="M181,112.33c1.12,1.77,1.73,3.89,3.39,5.39,1.94-.95,3.75-1.89,5.6-2.72s3.63-1.43,5.39-2.26,4-1,5.66-2.11c-.32-3-2.43-10.48-3.44-12.27-5.51,1-17.38,6.05-19.82,8.49C178.8,108.67,179.82,110.54,181,112.33Z"/><path id="_Path_10" data-name="&lt;Path&gt;" class="cls-1" d="M210.12,92.81c-.49-.22-.89-.59-1.22-.53-2.82.49-5.62,1.05-8.43,1.62a4.18,4.18,0,0,0-1.29.48.81.81,0,0,0-.32.69,1.35,1.35,0,0,0,.62.79,2,2,0,0,0,1.07,0c2.45-.47,4.89-.95,7.34-1.45a5.29,5.29,0,0,0,1.55-.53C209.71,93.71,209.82,93.29,210.12,92.81Z"/><path id="_Path_11" data-name="&lt;Path&gt;" class="cls-1" d="M174.45,124.43c1.33-1,2.7-2,4-3s3-1.56,4.11-3.08c-1.06-1.84-2.07-3.7-3.19-5.5s-1.75-3.86-3.34-5.29c-4.52,1.94-14,9.31-16,12.34,1.49,1.73,8.52,6.83,10.5,7.59C171.85,126.5,173.13,125.44,174.45,124.43Z"/><path id="_Path_12" data-name="&lt;Path&gt;" class="cls-1" d="M207.58,108.3q.92-5.75,1.78-11.51c0-.22-.2-.49-.34-.83-2.53-.17-4.91.7-7.33,1.15a2.4,2.4,0,0,0-2,1.23c.61,3.35,1.82,6.75,2.63,10.25a10.94,10.94,0,0,0,.63,1.56,11.19,11.19,0,0,0,4.28-1A4.13,4.13,0,0,0,207.58,108.3Z"/><path id="_Path_13" data-name="&lt;Path&gt;" class="cls-1" d="M173.39,130a4.34,4.34,0,0,0,.77-.29c.53-.37,1.06-.76,1.57-1.16,8.65-6.85,18.18-11.92,29-14.37a2.52,2.52,0,0,0,2.23-1.78c.13-.34-.07-.8-.14-1.35a76,76,0,0,0-35,17.5,4.37,4.37,0,0,0,.55.8A8.27,8.27,0,0,0,173.39,130Z"/><path id="_Path_14" data-name="&lt;Path&gt;" class="cls-1" d="M100.9,177.45c.16-.77.33-1.39.4-2,.24-2.12.4-4.25.65-6.37a119.81,119.81,0,0,1,32.4-67.6,9.79,9.79,0,0,0,.92-1.31A5.68,5.68,0,0,0,132.86,98c-.3.27-.58.5-.83.76a116.08,116.08,0,0,0-11.43,13.71,122.16,122.16,0,0,0-10,16.45,126.59,126.59,0,0,0-12.88,45.11,8.62,8.62,0,0,0,.18,4Z"/><path id="_Path_15" data-name="&lt;Path&gt;" class="cls-1" d="M170.25,242.6a80,80,0,0,0-10.33,7.66,42.15,42.15,0,0,0,7.14,6.45c2.93,2.06,5.7,4.4,9.15,6,2.43-3.59,4.26-7.32,6.61-11.16l-6.48-4.38C174.23,245.73,172.54,243.69,170.25,242.6Z"/><path id="_Path_16" data-name="&lt;Path&gt;" class="cls-1" d="M199,267.86c.4-1.43.8-2.87,1.17-4.31s1-2.6.77-4.18c-2.8-1-5.62-1.92-8.35-3s-5.51-2.54-8.41-3.89c-2.37,3.63-4.28,7.33-6.58,11.16a83.27,83.27,0,0,0,20.08,8.35A16.44,16.44,0,0,0,199,267.86Z"/><path id="_Path_17" data-name="&lt;Path&gt;" class="cls-1" d="M153.57,85.06a118.3,118.3,0,0,1,19-10.65,116.27,116.27,0,0,1,20.3-7A138.71,138.71,0,0,1,214.17,64a4,4,0,0,0,.48-3.13c-1.9-.79-3.85-.09-5.73.1a121.05,121.05,0,0,0-37.34,9.92,125.41,125.41,0,0,0-33.12,21.51,21.67,21.67,0,0,0-3.87,4l2.27,2.4A123.13,123.13,0,0,1,153.57,85.06Z"/><path id="_Path_18" data-name="&lt;Path&gt;" class="cls-1" d="M142.23,234.36a118.62,118.62,0,0,0,8.28,11.17c1,1.2,2.1,2.35,3.17,3.51a2.8,2.8,0,0,0,.87.67.93.93,0,0,0,.76-.08c.2-.13.29-.44.5-.79-.39-.49-.74-1-1.17-1.47a77.42,77.42,0,0,1-9.07-11.6c-.75-1.17-1.5-2.35-2.32-3.47a1.12,1.12,0,0,0-1-.25.87.87,0,0,0-.65,1.07A4,4,0,0,0,142.23,234.36Z"/><path id="_Path_19" data-name="&lt;Path&gt;" class="cls-1" d="M141.37,228.84c-1.09-2.25-2.21-4.49-3.29-6.74a94,94,0,0,1-4.14-11.2c-.29-.88-.79-1.16-1.39-.86s-.63.83-.42,1.41c0,.09.06.18.08.27a98.21,98.21,0,0,0,7.53,18.2,2.93,2.93,0,0,0,.64.88.84.84,0,0,0,.74.11,4.18,4.18,0,0,0,.85-.75C141.74,229.67,141.56,229.25,141.37,228.84Z"/><path id="_Path_20" data-name="&lt;Path&gt;" class="cls-1" d="M164.57,236.94a4.19,4.19,0,0,0-.42-.92,77.17,77.17,0,0,1-7.71-10.59,5.87,5.87,0,0,0-1.06-1c-3.36,1.95-6.66,3.84-9.93,5.77a4.13,4.13,0,0,0-.85,1,7.56,7.56,0,0,0,.35.91c2.93,5.23,6.79,9.77,10.69,14.27a7.87,7.87,0,0,0,1.37,1C159.77,243.89,162.22,240.41,164.57,236.94Z"/><path id="_Path_21" data-name="&lt;Path&gt;" class="cls-1" d="M195.14,272.83a75.86,75.86,0,0,1-13.65-5.49c-1.15-.61-2.32-1.17-3.49-1.72a7.21,7.21,0,0,0-1-.32c-.23.27-.48.44-.55.67a1.06,1.06,0,0,0,.09.76,1.62,1.62,0,0,0,.62.52A93.13,93.13,0,0,0,195.54,275a1.54,1.54,0,0,0,.81.12,1.32,1.32,0,0,0,.81-.58,1,1,0,0,0-.24-.95A7.27,7.27,0,0,0,195.14,272.83Z"/><path id="_Path_22" data-name="&lt;Path&gt;" class="cls-1" d="M158.72,118.44a9.66,9.66,0,0,0,1.31-1,100,100,0,0,1,13.52-10.3c.54-.34,1-.76,1.6-1.18-.26-1.13-.74-1.47-1.49-1.05-1.05.59-2.06,1.26-3.08,1.91-4.35,2.73-8.17,6.14-12.1,9.41a12.76,12.76,0,0,0-1.38,1.57C157.49,118.65,158,118.88,158.72,118.44Z"/><path id="_Path_23" data-name="&lt;Path&gt;" class="cls-1" d="M177.22,237.49c5.32,6,21.09,14,28.55,14.61a2.12,2.12,0,0,0,.19-.76q-2.32-15.17-4.68-30.34c0-.25-.27-.47-.53-.91-2,1.5-4,2.83-5.86,4.31s-3.91,2.85-5.87,4.27-4.12,2.89-6.1,4.44S178.87,235.72,177.22,237.49Z"/><path id="_Path_24" data-name="&lt;Path&gt;" class="cls-1" d="M135.2,196.76c7.81,1.22,15.61,2.48,23.42,3.71l24.26,3.79c4.78.75,9.56,1.48,14.33,2.26a3.71,3.71,0,0,0,2.94-.36,37.77,37.77,0,0,0,5.82-6.09,25.13,25.13,0,0,1-6.12-14.15c-2.08-.32-128-.56-131.63-.28a5.41,5.41,0,0,0-1.1.47c1,.25,1.58.44,2.17.53,5.15.78,10.3,1.53,15.45,2.32,8.18,1.26,16.36,2.56,24.53,3.83C117.92,194.11,126.56,195.41,135.2,196.76Z"/><path id="_Path_25" data-name="&lt;Path&gt;" class="cls-1" d="M186.24,206q-15.26-2.48-30.53-4.91c-.24,0-.51.14-.94.28a64.76,64.76,0,0,0,6.56,17.1c2.72,5.17,6.05,9.53,8.47,11.34,5.71-7.57,11.09-15.14,16.56-22.64a2.59,2.59,0,0,0,.26-.74C186.47,206.29,186.37,206,186.24,206Z"/><path id="_Path_26" data-name="&lt;Path&gt;" class="cls-1" d="M274.54,140.26a2.39,2.39,0,0,0-.66.45C268.3,148.34,262.74,156,257,163.85c3.22.95,29.75,5,32,5C289.32,163.2,280.27,145.26,274.54,140.26Z"/><path id="_Path_27" data-name="&lt;Path&gt;" class="cls-1" d="M235.93,105.64c.62,3.92.66,3.95,4.67,4.52a3.72,3.72,0,0,0,.64-.12c1.17-4,2.38-8,3.22-12a33.05,33.05,0,0,0-8.8-2.13,3.66,3.66,0,0,0-1.07.31c0,.56.06,1,.13,1.47C235.12,100.31,235.51,103,235.93,105.64Z"/><path id="_Path_28" data-name="&lt;Path&gt;" class="cls-1" d="M293.39,169a1.67,1.67,0,0,0,1.53,1,3.41,3.41,0,0,0,1.05-.33,74.3,74.3,0,0,0-9.51-24.17c-2.71-4.53-6.2-9-8.33-10.53L277,136.7c.8,1.07,1.36,1.93,2,2.7a61.3,61.3,0,0,1,7.4,11.15,67.86,67.86,0,0,1,6.36,16.36A16.76,16.76,0,0,0,293.39,169Z"/><path id="_Path_29" data-name="&lt;Path&gt;" class="cls-1" d="M238.09,113.77a74.37,74.37,0,0,1,19.2,7.4,67.86,67.86,0,0,1,11.73,8c1.28,1.11,1.41,1.09,3.11-.56-.69-.63-1.2-1.16-1.77-1.63a74.24,74.24,0,0,0-22.93-13c-3.16-1.09-6.43-1.87-9.66-2.76-.21-.06-.5.16-.89.3l.54,2A3.91,3.91,0,0,0,238.09,113.77Z"/><path id="_Path_30" data-name="&lt;Path&gt;" class="cls-1" d="M243,110.75c1.75.93,3.83,1.15,5.67,2s3.78,1.55,5.65,2.36,3.53,2,5.62,2.6c2.26-3.59,4.35-7.18,6.44-11.14a81.77,81.77,0,0,0-19.89-8.34C245.59,99.77,243.41,107.57,243,110.75Z"/><path id="_Path_31" data-name="&lt;Path&gt;" class="cls-1" d="M240.4,133.95c.43,2.66.85,5.32,1.28,8s.54,5.28,1.41,7.87a3.9,3.9,0,0,0,.94-.31q11.16-8.11,22.3-16.26a2.39,2.39,0,0,0,.45-.67c-5.2-5.87-21.42-14.15-28.71-14.53.12,2.69.71,5.31,1.06,8S240,131.29,240.4,133.95Z"/><path id="_Path_32" data-name="&lt;Path&gt;" class="cls-1" d="M160.45,255.72a103.25,103.25,0,0,0,11.63,8.59c.7.43,1.43.81,2.12,1.2,1-1,1.06-1.28.4-1.79a14,14,0,0,0-1.38-.94,77.24,77.24,0,0,1-10.73-7.92c-1.25-1.1-2.49-2.22-3.77-3.29a.77.77,0,0,0-1.2.2,1.07,1.07,0,0,0,0,1A27.61,27.61,0,0,0,160.45,255.72Z"/><path id="_Path_33" data-name="&lt;Path&gt;" class="cls-1" d="M244,94c-3-.59-6-1.18-9-1.72a1,1,0,0,0-.79.54,1.08,1.08,0,0,0,.32,1,4.49,4.49,0,0,0,1.54.57c2.19.45,4.38.86,6.57,1.28l1.26.25c.3,0,.51,0,.66-.07s.54-.34.55-.53a1.57,1.57,0,0,0-.31-1A1.32,1.32,0,0,0,244,94Z"/><path id="_Path_34" data-name="&lt;Path&gt;" class="cls-1" d="M279.28,133.36c1.16,1.42,2.24,2.67,3.25,4s2.07,2.85,3.15,4.25,1.51,3,3,4.16l11.07-6.43c-.58-1-.91-1.8-1.38-2.47-2-2.8-4-5.61-6-8.34-1.23-1.62-2.61-3.13-4-4.65a8.05,8.05,0,0,0-1.44-1Z"/><path id="_Compound_Path_" data-name="&lt;Compound Path&gt;" class="cls-1" d="M310.56,121.35a108.55,108.55,0,0,1,19.79,53.78,43,43,0,0,0,9.4,1.86,3.51,3.51,0,0,0,1-.27c0-1.14,0-2.15,0-3.17a10.13,10.13,0,0,0-.08-1.11,120.11,120.11,0,0,0-9.87-36.23,97.43,97.43,0,0,0-6-11.63c-2.25-3.53-4.51-7.07-6.94-10.48A103.38,103.38,0,0,0,308,102.35a11,11,0,0,0-1.23-1c-.38.25-.62.38-.84.55s-.39.4-.62.57c-.73.53-.87.47-1.69-.73l1.71-2.19c-2.29-2-4.34-3.93-6.46-5.72A118.77,118.77,0,0,0,271.32,76.4a120.37,120.37,0,0,0-38.44-10.15,3.78,3.78,0,0,0-2.69.29,29.21,29.21,0,0,0,1.55,9.37,120.69,120.69,0,0,1,28.64,6.74c9.45,3.55,23.11,11.19,25.81,14.56a.74.74,0,0,1-1.17.21c-.92-.63-1.77-1.37-2.7-2a119.16,119.16,0,0,0-21.48-11.28,115.1,115.1,0,0,0-26.21-6.62,3.74,3.74,0,0,0-2.79.27,24.59,24.59,0,0,0,.75,6c.37,2.07.27,4.26,1.22,6.11,4.16.9,8.16,1.75,12.16,2.62a63.14,63.14,0,0,1,11.93,3.93,121.1,121.1,0,0,1,11,5.36,107,107,0,0,1,10.51,6.87c3.28,2.41,6.32,5.15,9.4,7.69,1.11,0,1.67-1.26,3.07-1l-1.41,2.89,1.26,1.48c1.77,2,3.66,4,5.3,6.11a100.21,100.21,0,0,1,11.77,19.27,93.3,93.3,0,0,1,6.61,19.83c.48,2.28.85,4.58,1.27,6.87.31,1.69.3,1.69,2.08,2,2.76.43,5.51.87,8.27,1.28a10.41,10.41,0,0,0,1.54,0c.69-1.41.11-2.68,0-3.95a101.15,101.15,0,0,0-6.6-26.19A104.66,104.66,0,0,0,310,122.87c-.54-.76-1.09-1.51-1.57-2.31-.15-.25-.05-.65-.07-1.09A4.46,4.46,0,0,1,310.56,121.35Zm-18.83-16.07a9.44,9.44,0,0,0-.7,1.49l-2.16-2.25c2.11-1.37,4-2.72,4.92-5.22a2.84,2.84,0,0,1,1.62,1.57,1.22,1.22,0,0,1-.35,1.51c-.71.59-1.47,1.12-2.17,1.71A7.28,7.28,0,0,0,291.72,105.28Zm.79,2.73a9.14,9.14,0,0,0,4.92-5.6l0,0h0l0,0-.14,0-.4.1s.05-.14.07-.14l.33,0,.2,0,0,.08c1.34,1.77,1.39,2.33.12,3.84-1,1.19-2.1,2.3-3.25,3.55A3.84,3.84,0,0,1,292.51,108Zm11,5L302,111.87c.09-.32.08-.54.19-.64a11,11,0,0,0,.86-.69,1,1,0,0,0-.07-1.49,1.06,1.06,0,0,0-1.5-.2,29,29,0,0,0-2.81,2.63c-.87,1-.71,1.84.42,2.53a13.68,13.68,0,0,0,2.22.8,3,3,0,0,1-3.25-.65,3.35,3.35,0,0,1-1-2.77,4.12,4.12,0,0,1,5.21-3.58,3.05,3.05,0,0,1,2.12,2A3.09,3.09,0,0,1,303.5,113Z"/><path id="_Path_35" data-name="&lt;Path&gt;" class="cls-1" d="M301.36,138.36l1.3-.92a92.19,92.19,0,0,0-11.55-15.71c-.54-.6-1-1.37-2-1.56l-.89,1.11c2.35,2.81,4.69,5.43,6.83,8.21S299.2,135.33,301.36,138.36Z"/><path id="_Path_36" data-name="&lt;Path&gt;" class="cls-1" d="M263.19,115.32c-.6,1-1.16,2.09-1.82,3.28,1.31,1.18,2.86,1.87,4.18,2.86s2.72,2,4,3,2.59,2.1,4,3.23c3-1.69,9.25-6.36,10.54-7.83a6.81,6.81,0,0,0-2-2.2,100.33,100.33,0,0,0-12.76-9.46,11.61,11.61,0,0,0-1.56-.66C266.2,110.2,264.68,112.75,263.19,115.32Z"/><path id="_Path_37" data-name="&lt;Path&gt;" class="cls-1" d="M282,113.11c-3.26-2.47-6.57-4.87-9.9-7.25a8.09,8.09,0,0,0-2.25-1c-.2-.06-.62.32-.81.59a.76.76,0,0,0,.1.73,7.64,7.64,0,0,0,1.33,1,82.2,82.2,0,0,1,13.3,10.1,9.89,9.89,0,0,0,1.53,1.2c.69.43,1.23.17,1.66-.68a8.73,8.73,0,0,0-1-1.21C284.7,115.38,283.41,114.17,282,113.11Z"/><path id="_Path_38" data-name="&lt;Path&gt;" class="cls-1" d="M267.41,103.12a7.94,7.94,0,0,0-.72-.43,95.8,95.8,0,0,0-18-7.47,4,4,0,0,0-.81-.2.86.86,0,0,0-1,.76,1.16,1.16,0,0,0,.4.92,4.48,4.48,0,0,0,1.29.47A85.4,85.4,0,0,1,263,103c1.31.68,2.66,1.29,3.93,1.9C268,103.91,268.07,103.57,267.41,103.12Z"/><path id="_Path_39" data-name="&lt;Path&gt;" class="cls-1" d="M155.5,121.65c.48-.72.05-1.2-.82-1.5a6.5,6.5,0,0,0-1,.78,115.15,115.15,0,0,0-9.84,12.44,37.75,37.75,0,0,0-2.1,3.61c-.11.21.11.72.32,1a.74.74,0,0,0,1.2-.09c.7-1,1.3-2,2-3a99.34,99.34,0,0,1,8.51-11A18.74,18.74,0,0,0,155.5,121.65Z"/><path id="_Path_40" data-name="&lt;Path&gt;" class="cls-1" d="M308.69,160.88a3.6,3.6,0,0,0,0-.74c-.14-.63-.29-1.27-.48-1.89a95.75,95.75,0,0,0-7.1-16.64,4.26,4.26,0,0,0-.8-.8c-1.93,1.1-3.83,2.09-5.62,3.24s-3.88,1.73-5.34,3.36c.94,2,1.86,3.78,2.7,5.63s1.54,3.58,2.28,5.38,1,3.93,2.07,5.65A68.54,68.54,0,0,0,308.69,160.88Z"/><path id="_Path_41" data-name="&lt;Path&gt;" class="cls-1" d="M309.64,101.38c1.51,1.64,3.1,3.22,4.54,4.93a123.25,123.25,0,0,1,18.58,29.42,117.74,117.74,0,0,1,10,39.31,3.84,3.84,0,0,0,.81,2.45c.8.07,1.59.8,2.69.32a4.34,4.34,0,0,0,.16-1c-.09-1.67-.2-3.34-.34-5a109.3,109.3,0,0,0-3.39-18.65,120.68,120.68,0,0,0-6.13-17.66A125.19,125.19,0,0,0,323,111.8c-2.57-3.53-5.39-6.89-8.22-10.22a21.43,21.43,0,0,0-4.32-4.08l-2.26,2.18C308.8,100.42,309.21,100.91,309.64,101.38Z"/><path id="_Path_42" data-name="&lt;Path&gt;" class="cls-1" d="M208.38,110.36q-1.12,7.16-2.23,14.33l-3.35,21.49c-.76,4.87-1.48,9.74-2.31,14.6a2.85,2.85,0,0,0,1,2.94c1.53,1.35,3,2.8,4.75,4.5a40.3,40.3,0,0,1,6.86-4.65,33.24,33.24,0,0,1,7.91-2.23,6.4,6.4,0,0,0,.32-3.16q0-62.3,0-124.6c0-.56,0-1.12,0-1.67,0-.34-.08-.74-.67-.59-.23,1.16-.51,2.34-.69,3.53-1.22,8.09-2.41,16.18-3.64,24.26q-1.27,8.41-2.59,16.81Q211.09,93.14,208.38,110.36Z"/><path id="_Path_43" data-name="&lt;Path&gt;" class="cls-1" d="M219.18,334.4c-.16-1-.37-2-.56-3l.7,3.88Z"/><path id="_Compound_Path_2" data-name="&lt;Compound Path&gt;" class="cls-1" d="M124.83,135.38a103.35,103.35,0,0,0-7.78,19.72,105.31,105.31,0,0,0-3.46,18.08,2.2,2.2,0,0,0,.47,2.12,11.32,11.32,0,0,0,1.62,0q4.28-.62,8.55-1.3c3.34-.54,2.82,0,3.32-3.33a94.76,94.76,0,0,1,12-33.74,92.57,92.57,0,0,1,13-17.42,12.56,12.56,0,0,0,.87-1.1c.1-1.33-1.64-1.89-.8-3.33.45.27.83.51,1.23.72s1,.49,1.52.77c1.08-1,2.07-2,3.12-2.9a100.15,100.15,0,0,1,21.27-14.29,95,95,0,0,1,26.75-8.62c1.27-.21,2.53-.5,3.69-.73a55.63,55.63,0,0,0,2-12.64,5.13,5.13,0,0,0-1.28-.14c-3,.42-6.09.81-9.11,1.33a106.08,106.08,0,0,0-42,17.27c-.92.63-1.8,1.33-2.73,1.93-.21.14-.6,0-.91,0,2-2.54,4.5-4,6.94-5.51s5.1-3.09,7.74-4.48,5.17-2.57,7.84-3.67S184.09,82,186.92,81s5.51-1.73,8.31-2.41,5.83-1.24,8.76-1.74,5.66-.79,8.62-1.2c.28-1.6.64-3,.76-4.51s.82-3,.4-4.66a6.63,6.63,0,0,0-3.36-.2,127.92,127.92,0,0,0-21.08,4,117.09,117.09,0,0,0-17.53,6.51A121.73,121.73,0,0,0,154.15,87a137.81,137.81,0,0,0-14.91,12.18,7.87,7.87,0,0,0-.83,1.09,6.29,6.29,0,0,1,.84,1.24,1.11,1.11,0,0,1-.14,1,1.14,1.14,0,0,1-1,.2,7,7,0,0,1-1.31-.73,3,3,0,0,0-.65.34,121.57,121.57,0,0,0-14.82,18.85,119,119,0,0,0-7.5,13.71,117.05,117.05,0,0,0-8,23.2,128.81,128.81,0,0,0-2.53,15.13,7,7,0,0,0,.15,4,52.75,52.75,0,0,0,8.5-1.49c.23-1.87.45-3.61.68-5.35a107.55,107.55,0,0,1,12-37.28,105.68,105.68,0,0,1,7.89-12.52c.31-.43.57-1,1.3-.85.59.86-.15,1.37-.56,1.93A110.41,110.41,0,0,0,124.83,135.38ZM144.22,102a6.38,6.38,0,0,0,3.63,2c.06,0,.17-.09.2-.17a.46.46,0,0,0,0-.23h0l0,0h0l0,0-1.19-3.84a6.18,6.18,0,0,1,1.35.11c.95.31,1.86.7,2.72,1a.79.79,0,0,0,.21-1.15l-.14-.14h0c0-.58,0-1.16,0-1.73l0-.05-2.08-.1,1.52-1.7.56,1.81h0q0,.89,0,1.73l.11.18a6.18,6.18,0,0,1,1.94,3.54c-.35.55-.76.41-1.19.22L149,102.25l-1,1.33v0a1.4,1.4,0,0,1,.49.14c1,.67,1.13,1.75,1.6,2.7-.45.17-.66.33-.78.28-2.23-.88-4.45-1.78-6.91-2.77Zm-5.07,4.9a2.08,2.08,0,0,1,2.12.15,10.15,10.15,0,0,1,1.63,1.49c.74.81,1.42,1.68,2.41,2.88l-1.38.91-1.58-1.62c-.52-.53-1.06-1-1.57-1.57-.66-.7-1.37-1.24-2.39-.86C138.18,107.41,138.65,107.11,139.14,106.88Zm-3.23,3.19c.94-.73,1.76-.66,2.36.32a10.89,10.89,0,0,0,3.93,3.92L140.37,116c-2.2-2.85-3.47-4-5.38-4.86A7.5,7.5,0,0,1,135.92,110.07Z"/><path id="_Path_44" data-name="&lt;Path&gt;" class="cls-1" d="M155.63,145.69c1.52-2.21,3-4.24,4.34-6.34s3.5-3.81,4.68-6.18c-2.47-3.39-4.87-6.69-7.29-10-.09-.12-.32-.14-.49-.2-3.54,2.69-11.13,12.77-12.29,16.45,1.77,1.07,3.55,2.25,5.43,3.23S153.5,145.1,155.63,145.69Z"/><path id="_Path_45" data-name="&lt;Path&gt;" class="cls-1" d="M225.11,332.83l-.17,1.17.42-2.43A6.94,6.94,0,0,0,225.11,332.83Z"/><path id="_Path_46" data-name="&lt;Path&gt;" class="cls-1" d="M312,159c0-.18-.13-.35-.18-.53a83.38,83.38,0,0,0-7.43-18c-.64-1.18-1-1.41-1.59-1.13s-.74.87,0,2.14a88.4,88.4,0,0,1,5.75,13c.67,1.92,1.3,3.85,2,6C312.11,160,312.2,159.87,312,159Z"/><polygon id="_Path_47" data-name="&lt;Path&gt;" class="cls-1" points="221.4 28.59 221.3 28.76 221.45 28.78 221.4 28.59"/><path id="_Path_48" data-name="&lt;Path&gt;" class="cls-1" d="M299.3,170.79c3.58.54,7.16,1.11,10.74,1.64a2.92,2.92,0,0,0,1-.21,24.72,24.72,0,0,0-2-9.57c-2.1.55-4.08,1-6,1.6s-4.17.81-6.13,2c.19,1,.34,1.89.53,2.79A2.08,2.08,0,0,0,299.3,170.79Z"/><path id="_Path_49" data-name="&lt;Path&gt;" class="cls-1" d="M312.86,171.88c.05.26.1.61.28.75a1.65,1.65,0,0,0,1,.35c.19,0,.46-.29.57-.51a4.26,4.26,0,0,0,.17-1.08c-.56-2.65-1.16-5.54-1.79-8.43a1.16,1.16,0,0,0-.38-.71,1.6,1.6,0,0,0-1-.2.78.78,0,0,0-.48.57,5.67,5.67,0,0,0,.15,1.36Q312.09,167.93,312.86,171.88Z"/><path id="_Path_50" data-name="&lt;Path&gt;" class="cls-1" d="M231.13,64.22A119.12,119.12,0,0,1,249.58,67a115.49,115.49,0,0,1,22.67,7.73,122.16,122.16,0,0,1,33.13,22.38c.39.38.82.7,1.28,1.09A6.57,6.57,0,0,0,309,95.85c-1-1-1.83-2-2.75-2.74-3.27-2.76-6.46-5.63-9.89-8.17A125.58,125.58,0,0,0,268.5,69.29,127.7,127.7,0,0,0,232,60.67a4,4,0,0,0-2.71.3,2,2,0,0,0-.14.55,7.65,7.65,0,0,0,.14,1.11C229.54,63.93,229.76,64.13,231.13,64.22Z"/><path id="_Compound_Path_3" data-name="&lt;Compound Path&gt;" class="cls-1" d="M156.12,270.11a107.81,107.81,0,0,0,26.59,14.59,111.6,111.6,0,0,0,26,6.34,4.9,4.9,0,0,0,3.42-.31c-.2-1.51-.39-3.06-.61-4.61s-.47-3.13-.75-4.69a1.79,1.79,0,0,0-1.64-1.65l-1.38-.19a96.07,96.07,0,0,1-46.81-21c-1.91-1.61-3.8-3.25-5.56-4.76-1.23-.11-1.83,1.28-3.19.77l1.31-2.75a102.23,102.23,0,0,1-17.56-25.23,96.47,96.47,0,0,1-8.77-29.66,18.13,18.13,0,0,0-2.2-.64c-3.31-.53-6.62-1-9.94-1.49a6.86,6.86,0,0,0-1.39.1,89.23,89.23,0,0,0,2.29,14.21,104.41,104.41,0,0,0,10.44,26.73c2.35,4.09,4.92,8,7.47,12.18-.43,0-.78.19-.92.08a4.65,4.65,0,0,1-.93-1,106.58,106.58,0,0,1-10.38-17.85A104.14,104.14,0,0,1,112.47,196a11.5,11.5,0,0,0-.36-1.47,38.6,38.6,0,0,0-7.66-1.38,6.61,6.61,0,0,0-1.42.2c.21,1.83.44,3.48.58,5.13a102.82,102.82,0,0,0,4.31,21.31A116.58,116.58,0,0,0,124.75,254a101.55,101.55,0,0,0,10.65,12.91c.38.38.82.68,1.25,1a6.57,6.57,0,0,1,1.28-.82,1.12,1.12,0,0,1,1,.16,1.13,1.13,0,0,1,.17,1,8.61,8.61,0,0,1-.78,1.44c.54.58,1,1.07,1.41,1.53a109.5,109.5,0,0,0,14,11.55,118.67,118.67,0,0,0,59,21.21c1.11.09,1.56-.36,1.39-1.48-.42-2.76-.85-5.52-1.32-8.27a7.36,7.36,0,0,0-.6-1.49c-.95-.18-1.76-.4-2.58-.47a102.76,102.76,0,0,1-19.69-3.88,109.73,109.73,0,0,1-32-15.55,14.53,14.53,0,0,1-2.15-1.78C155.26,270.66,155.49,270.24,156.12,270.11ZM136,257.18c-1.48-.93-1.46-1.16.22-2.17ZM137.2,259c-.06,0-.11-.08-.17-.12s.13-.08.19-.08.11.08.17.12S137.26,259,137.2,259Zm4.31-5.16h0v-.11l-.89-1.15-.14,0,0,0c-.39.19-.89.33-1.05.64a1.8,1.8,0,0,0,.14,1.28c.2.51.62.94.81,1.45a4.15,4.15,0,0,1,.24,1.59c0,.51-.29.68-1.67,1.55a3.52,3.52,0,0,0-.64-2.94,4.63,4.63,0,0,1-.68-1.51,1.71,1.71,0,0,1,.68-2c.67-.46,1.42-.93,2.17-.1l.09,0-.07.07.07-.07.07.09c.88.16.93.22.89,1.15l0,.05v.07a1.79,1.79,0,0,1,.71.18c.73.53.66.83-.41,1.63-.11-.65-.21-1.23-.3-1.82Zm7.15,11.82c-1.17.47-2.24,1.23-3.71,1.25-.13-1.22.61-2,.86-3a8.46,8.46,0,0,0,.15-1l-.52.21h0a3.29,3.29,0,0,0-1,0c-.79.23-1.55.55-2.27.82-.52-.5-.3-.91-.13-1.35.82-2.06,1.61-4.12,2.47-6.33.9.26,1.27,1.13,1.89,2a14.27,14.27,0,0,0-1,1.21,11.75,11.75,0,0,0-.6,1.25,1.8,1.8,0,0,0,.65,2.44h0c.48-1.54,1.71-2,3.23-2.2.33,1.54-1,2.61-.94,4,1.66.12,2,0,3.5-1.73l1.17,1.2C151,264.84,149.83,265.22,148.66,265.69Z"/><path id="_Path_51" data-name="&lt;Path&gt;" class="cls-1" d="M310.12,210.95c-.13.35-.23.71-.34,1.06a90.47,90.47,0,0,1-7.34,17.19c-.14.23-.31.57-.23.77a5.28,5.28,0,0,0,.72,1c.39-.17.71-.21.87-.39a6,6,0,0,0,.76-1.16,99.44,99.44,0,0,0,6.78-15.92c.2-.62.38-1.25.55-1.88.3-1.06.21-1.38-.4-1.65S310.46,210,310.12,210.95Z"/><path id="_Path_52" data-name="&lt;Path&gt;" class="cls-1" d="M314.17,197.26a1,1,0,0,0-.77.14,1.12,1.12,0,0,0-.47.64q-.92,4.64-1.77,9.3c-.11.58.51,1.17,1,1a1.29,1.29,0,0,0,.76-.68c.69-3,1.32-6,1.9-8.65a5,5,0,0,0-.13-1.17A1,1,0,0,0,314.17,197.26Z"/><path id="_Path_53" data-name="&lt;Path&gt;" class="cls-1" d="M270.23,240.16c-.26.17-.58.36-.86.58-1.55,1.2-3,2.46-4.63,3.6a71.64,71.64,0,0,1-22,10.76c-1.43.41-2.89.73-4.31,1.14-1.24.36-1.45.92-1.07,2.55,10.06-.88,27.83-9.85,34.55-17.33A3,3,0,0,0,270.23,240.16Z"/><path id="_Path_54" data-name="&lt;Path&gt;" class="cls-1" d="M234.8,274.19c3.22-.06,7.78-1,9.53-2-.28-2.61-2.55-10.55-3.51-12.23a11,11,0,0,0-4.09,1.11A80.27,80.27,0,0,0,234.8,274.19Z"/><path id="_Path_55" data-name="&lt;Path&gt;" class="cls-1" d="M301.68,199c-4.36.84-3.66-.27-4.82,4.67,0,.15.1.34.2.63,1.12.74,2.56.78,3.87,1.18s2.86.83,4.31,1.16,2.59,1,4,.81a24.36,24.36,0,0,0,1.75-9.83C307.74,198.06,304.69,198.38,301.68,199Z"/><path id="_Path_56" data-name="&lt;Path&gt;" class="cls-1" d="M234.24,277.66c.17.07.35.21.5.18,3.11-.57,6.22-1.13,9.31-1.76.93-.19,1.29-.76,1-1.32s-.86-.56-1.43-.46c-2.65.51-5.29,1-7.94,1.55a2.68,2.68,0,0,0-1,.4C234.22,276.58,233.89,277,234.24,277.66Z"/><path id="_Compound_Path_4" data-name="&lt;Compound Path&gt;" class="cls-1" d="M242.92,184.5a20.17,20.17,0,0,0-40.33-.31c-.28,10.09,8.59,20.48,19.86,20.2C233.14,205,242.91,195.65,242.92,184.5Zm-36.74-.37c.14-8.12,7.19-16.46,16.79-16.31,8.83.13,16.79,7.9,16.16,16.44.66,8.56-7.24,16.65-16.58,16.57C214.05,200.75,206,193.21,206.18,184.13Z"/><path id="_Path_57" data-name="&lt;Path&gt;" class="cls-1" d="M293.2,214.61c-1.16,2.8-2.53,5.52-3.85,8.36a38.88,38.88,0,0,0,5.62,3.38c1.83,1,3.5,2.34,5.64,2.94a83.27,83.27,0,0,0,8.35-19.94,55.18,55.18,0,0,0-6.38-1.84c-2-.46-4-1.49-6.27-1.29C295.25,209.07,294.33,211.89,293.2,214.61Z"/><polygon id="_Path_58" data-name="&lt;Path&gt;" class="cls-1" points="222.47 341.06 222.65 341.11 222.6 340.89 222.47 341.06"/><path id="_Path_59" data-name="&lt;Path&gt;" class="cls-1" d="M232.22,281.94c1.09-7,2.14-14,3.24-20.94,1.3-8.17,2.65-16.34,3.95-24.51,1-6.15,1.88-12.32,2.82-18.48.45-2.94.9-5.88,1.39-8.82a2.19,2.19,0,0,0-.38-2.1,44.77,44.77,0,0,0-5.44-5.22c-.47.28-.88.49-1.25.75a22.84,22.84,0,0,1-11.85,4.51,7.63,7.63,0,0,0-1.75.56c-.29,2.22-.34,128.53,0,131.64,1-2.28,1-4.25,1.28-6.15,1-6.15,2.06-12.29,3-18.44.87-5.6,1.62-11.22,2.47-16.83C230.52,292.59,231.39,287.26,232.22,281.94Z"/><path id="_Path_60" data-name="&lt;Path&gt;" class="cls-1" d="M284.86,251.94a87,87,0,0,1-15,11.46c-.88.53-1.08,1-.84,1.52s.9.71,1.87.1a95.62,95.62,0,0,0,13.57-10.12,7.47,7.47,0,0,0,2.34-2.66C285.88,251.18,285.71,251.13,284.86,251.94Z"/><path id="_Path_61" data-name="&lt;Path&gt;" class="cls-1" d="M288.36,224.65a5.35,5.35,0,0,0-.67.71,74.38,74.38,0,0,1-7.57,10.35,5.07,5.07,0,0,0-.58,1.1,74.58,74.58,0,0,0,7.81,10.5c2.27-1.79,3.74-4.31,5.58-6.47a53.31,53.31,0,0,0,6.76-10c-2.08-1.2-3.87-2.36-5.77-3.3S290.46,225.1,288.36,224.65Z"/><path id="_Path_62" data-name="&lt;Path&gt;" class="cls-1" d="M261.34,251.73l6.45,11a59.05,59.05,0,0,0,10.73-7.3c2-1.63,4.21-3,5.73-5.13a71.36,71.36,0,0,0-10.56-7.72Z"/><path id="_Path_63" data-name="&lt;Path&gt;" class="cls-1" d="M288.67,248.13c-.53.6-.46.82.52,1.91a6.69,6.69,0,0,0,1-.82c2.3-2.68,4.68-5.3,6.83-8.09,1.81-2.35,3.37-4.91,5-7.39a1,1,0,0,0-.15-1.48c-.45-.35-1-.22-1.39.4s-.82,1.24-1.21,1.88a80.31,80.31,0,0,1-6.77,9.22C291.3,245.24,290,246.66,288.67,248.13Z"/><path id="_Path_64" data-name="&lt;Path&gt;" class="cls-1" d="M150.88,201.73c-.48-1.65-.54-1.68-2.58-1.41.85,10.44,10.31,28.63,17.58,34.8l1.18-1.75c-.54-.72-1-1.32-1.43-1.9a73.11,73.11,0,0,1-13.14-24.1C151.91,205.5,151.43,203.6,150.88,201.73Z"/><path id="_Compound_Path_5" data-name="&lt;Compound Path&gt;" class="cls-1" d="M325.16,214.33c1.73-6.25,3.35-12.54,3.56-19.18-1.44-.48-2.67.08-3.92.25s-2.77.38-4.14.61-2.64,0-3.73,1.1c-.05.31-.12.67-.18,1-.67,4-1.44,8.06-2.48,12a92.64,92.64,0,0,1-7.8,19.7,89.23,89.23,0,0,1-13.64,19.35c-.81.88-1.55,1.83-2.35,2.77l1.4,2.38c-.18.23-.22.33-.29.36-1.22.56-1.54-1.29-3-.9-.21.17-.64.51-1.06.88-1.82,1.59-3.56,3.3-5.47,4.76a102.27,102.27,0,0,1-19.13,12,89.48,89.48,0,0,1-16.51,6c-3.53.85-7.08,1.63-10.65,2.23-1.9.32-2.32.87-2.54,2.65-.32,2.49-.81,5-1.18,7.44a4.72,4.72,0,0,0,.19,1.31c.63,0,1.09-.06,1.55-.11,1-.12,2-.27,3-.4A105.24,105.24,0,0,0,269,280.7a111.55,111.55,0,0,0,14-8.18,16.73,16.73,0,0,1,1.91-1.13c.16-.08.46.14,1.07.34-.62.53-.88.79-1.18,1a114.24,114.24,0,0,1-18.91,10.76,105.09,105.09,0,0,1-32.22,8.7c-1.85.19-2.1.83-2.35,2.17-.36,1.92-.58,3.86-.87,5.8-.14.92-.33,1.83-.43,2.76a1,1,0,0,0,1,1.09c.83,0,1.66-.18,2.49-.25a112.56,112.56,0,0,0,21.11-3.92,117.91,117.91,0,0,0,31.72-14.33,119.93,119.93,0,0,0,14.93-11.26,26.84,26.84,0,0,0,3.71-3.82l-1.57-2.27c1.09-1.16,1.18-1.2,1.86-.68.51.38,1,.8,1.43,1.16a3.36,3.36,0,0,0,.61-.34,93.75,93.75,0,0,0,10.89-12.71A117.58,117.58,0,0,0,331,233.64a122.47,122.47,0,0,0,9.76-36.54,9,9,0,0,0-.16-4.17l-8.93,1.37A1.8,1.8,0,0,0,330,196c-.05.37,0,.75-.09,1.11-.45,2.85-.8,5.72-1.37,8.54A107.9,107.9,0,0,1,309.89,248a9.31,9.31,0,0,1-1.33,1.41c-.1.09-.45-.09-1-.23A114.27,114.27,0,0,0,318,232.49,100.42,100.42,0,0,0,325.16,214.33Zm-31.71,43.79a1.91,1.91,0,0,1,1,.2c.08,0,.12.43.07.46a1.58,1.58,0,0,1-.72.23,3.62,3.62,0,0,1-.84-.2C293.13,258.5,293.26,258.15,293.45,258.12Zm4.29,5.48s0,.07,0,.1l-.06-.06.06.06-.09,0c-.33,1-.39,1.05-1.84.85h0a.7.7,0,0,1-.28,1.09,1.19,1.19,0,0,1-.94-.16c-.26-.16-.4-.52-.6-.8.66-.65,1.25-.07,1.82-.14v0h.06l1.84-.85,0-.11,0,0c-.1-.67.08-1.45-.88-2a10.24,10.24,0,0,0-1.06.43,21.28,21.28,0,0,1-1.93,1.06,2.06,2.06,0,0,1-2.08-.38,1.48,1.48,0,0,1-.5-1.82,1.56,1.56,0,0,0,2.34.16,6.83,6.83,0,0,1,1.17-.73,2.14,2.14,0,0,1,3.27,1.37C298.32,262.36,298.51,263.09,297.74,263.6Zm5.79-5.4,0,.15-.13,0a3.77,3.77,0,0,1-2.1,1.53,4.28,4.28,0,0,1-4.93-4,1.92,1.92,0,0,1,1.29-1.92c1.61-1.82,2.11-1.85,4-.39.08.88-.66,1.25-1.14,1.78s-.84,1-1.23,1.42c1.32,2.21,1.64,2.35,4.15,1.61l.08-.09h0l0-.09-.2-1.93C304.07,256.9,303.83,257.54,303.53,258.2Z"/><path id="_Path_65" data-name="&lt;Path&gt;" class="cls-1" d="M297.63,254l0-.08h0l-.09.1Z"/><path id="_Path_66" data-name="&lt;Path&gt;" class="cls-1" d="M297.73,255.71a1,1,0,0,0,.68.34,1.47,1.47,0,0,0,1.32-1.17,1.15,1.15,0,0,0-1.19-1.19,2.21,2.21,0,0,0-.91.35A1.32,1.32,0,0,0,297.73,255.71Z"/><path id="_Path_67" data-name="&lt;Path&gt;" class="cls-1" d="M247.65,275.07a5.4,5.4,0,0,0,1.62-.32,97.85,97.85,0,0,0,17.46-7.35c.4-.21.75-.5,1.29-.87-1-1.38-1-1.4-2.11-.83A93.34,93.34,0,0,1,248.43,273a3.67,3.67,0,0,0-1.27.53,1.05,1.05,0,0,0-.29.93A1.09,1.09,0,0,0,247.65,275.07Z"/><path id="_Path_68" data-name="&lt;Path&gt;" class="cls-1" d="M260.3,253.12c-.17-.28-.56-.42-.76-.56-2.84,1.32-5.54,2.54-8.22,3.82s-5.69,1.66-8.24,3.13a57.32,57.32,0,0,0,3.32,12.28c5.35-.93,16.23-5.51,19.88-8.36C264.42,259.93,262.4,256.5,260.3,253.12Z"/><path id="_Path_69" data-name="&lt;Path&gt;" class="cls-1" d="M293.65,200.23c-.29,1-.59,2-.84,2.95a70.6,70.6,0,0,1-12,25.25c-1.12,1.48-2.29,2.93-3.42,4.41a3.31,3.31,0,0,0-.32.79,8.18,8.18,0,0,0,.56,1,4.66,4.66,0,0,0,.75.6,12.58,12.58,0,0,0,1.4-1.27,77,77,0,0,0,12.53-21,61.67,61.67,0,0,0,3.64-12.27c0-.14-.15-.31-.3-.6Z"/><path id="_Path_70" data-name="&lt;Path&gt;" class="cls-1" d="M130.1,197.27c-.35.1-.61.51-.86.74.08.63.13,1.09.21,1.55.4,2.19.8,4.37,1.23,6.55a11.11,11.11,0,0,0,.47,1.6.87.87,0,0,0,1.09.59.8.8,0,0,0,.63-1q-.86-4.64-1.77-9.27A.82.82,0,0,0,130.1,197.27Z"/><path id="_Path_71" data-name="&lt;Path&gt;" class="cls-1" d="M208.09,275.8q-3.53-.71-7.07-1.37a4.09,4.09,0,0,0-1.36-.13,1.06,1.06,0,0,0-.75.63,1.2,1.2,0,0,0,.42.91,2.16,2.16,0,0,0,1,.43c3.07.6,6.15,1.18,9.94,1.9a7.68,7.68,0,0,0-.91-1.9A2.65,2.65,0,0,0,208.09,275.8Z"/><path id="_Path_72" data-name="&lt;Path&gt;" class="cls-1" d="M207.24,260.85a14.75,14.75,0,0,0-4.11-.87,54.39,54.39,0,0,0-3.33,12.41,8.45,8.45,0,0,0,1.45.56q3.4.68,6.83,1.26a5.43,5.43,0,0,0,1.45-.2c-.35-2.35-.6-4.55-1-6.71S208.14,262.89,207.24,260.85Z"/><path id="_Path_73" data-name="&lt;Path&gt;" class="cls-1" d="M211.24,305.72c-3.5-.45-7-.8-10.51-1.34a106.49,106.49,0,0,1-18.1-4.66,115,115,0,0,1-17.88-7.86A118.16,118.16,0,0,1,145.5,279c-2.65-2.2-5.17-4.55-7.77-6.81a12.22,12.22,0,0,0-1.39-.91c-.5.46-.93.81-1.31,1.21a7.83,7.83,0,0,0-.65.88,6.39,6.39,0,0,0,2.16,2.58c3.09,2.68,6.12,5.42,9.37,7.93a123.16,123.16,0,0,0,51.36,23.49,133.27,133.27,0,0,0,16.86,2.18c.23,0,.48-.21.85-.39-.32-.95.14-2-.83-2.95C213.24,306.06,212.24,305.85,211.24,305.72Z"/><path id="_Path_74" data-name="&lt;Path&gt;" class="cls-1" d="M189.3,250.38a80.94,80.94,0,0,1-15.58-10.44L172,241.26a2.3,2.3,0,0,0,.16.47,4,4,0,0,0,.53.63,76.25,76.25,0,0,0,23,13.55,50.19,50.19,0,0,0,10.72,3c.15,0,.32-.13.65-.27l-.37-2.1A80.73,80.73,0,0,1,189.3,250.38Z"/><path id="_Path_75" data-name="&lt;Path&gt;" class="cls-1" d="M133.06,267.23c-2.12-2.47-4.33-4.86-6.37-7.4a115,115,0,0,1-15-24.5A117.21,117.21,0,0,1,101.58,198c-.12-1.2-.16-2.41-.31-3.61-.18-1.44-.66-1.92-2.11-2.17a5.61,5.61,0,0,0-1.28.07c-.55,9.12,3.35,28.47,10.53,44.33,5.5,12.15,18.45,30.94,24.41,35.13a5.42,5.42,0,0,0,2.17-2.2C134.33,268.8,133.71,268,133.06,267.23Z"/><path id="_Path_76" data-name="&lt;Path&gt;" class="cls-1" d="M301.93,276.25a125,125,0,0,1-26.16,17.5,115,115,0,0,1-17.88,7.1,119,119,0,0,1-24.59,4.88,8.61,8.61,0,0,0-3.82.81l-.29,2.74a3,3,0,0,0,.9.3c1.3-.06,2.6-.14,3.89-.28a132.57,132.57,0,0,0,29.63-6.58,125.41,125.41,0,0,0,19.8-9,128.31,128.31,0,0,0,24.42-18.06,11.63,11.63,0,0,0,1.19-1.56l-2.29-2.21C304.94,273.51,303.47,274.92,301.93,276.25Z"/><path id="_Path_77" data-name="&lt;Path&gt;" class="cls-1" d="M342.74,194.9a102.08,102.08,0,0,1-3.31,20.34,120,120,0,0,1-17.18,38,117.08,117.08,0,0,1-10.15,12.95c-1.24,1.36-2.43,2.76-3.72,4.23.46.51.8.93,1.19,1.31s.7.57,1.08.87a9,9,0,0,0,2.54-2.3c3.28-3.92,6.58-7.83,9.73-11.86a92.47,92.47,0,0,0,8.68-13.66,123,123,0,0,0,14.76-49.36,4.59,4.59,0,0,0-.32-3C343.44,192.24,342.86,192.66,342.74,194.9Z"/><path id="_Path_78" data-name="&lt;Path&gt;" class="cls-1" d="M243,220.28c-1.85,10.65-3.28,21.13-5.06,31.72,1.93.41,3.51-.47,5.14-.95,9.33-2.73,21-9.95,23.78-13.7-.85-.67-1.7-1.37-2.58-2-1.8-1.32-3.63-2.6-5.44-3.91q-7.11-5.17-14.22-10.33A12.27,12.27,0,0,0,243,220.28Z"/><path id="_Path_79" data-name="&lt;Path&gt;" class="cls-1" d="M257.19,206a9.45,9.45,0,0,0,.62,1.4q7.95,10.94,15.93,21.86c.15.21.45.3.8.53a9.93,9.93,0,0,0,1.4-1.25,70.37,70.37,0,0,0,10-16.7,44.92,44.92,0,0,0,3.23-10.32c-.35-.16-.61-.4-.84-.36C278,202.59,267.8,204.3,257.19,206Z"/><path id="_Path_80" data-name="&lt;Path&gt;" class="cls-1" d="M377.58,184l-133-20.64a43.91,43.91,0,0,0-5,5.16,41.49,41.49,0,0,1,4.49,7.46c1.11,2.7,1.15,5.62,1.91,8.44a5.35,5.35,0,0,0,1.12.25q65.24,0,130.48,0c.11,0,.23-.21.37-.35C377.83,184.17,377.72,184,377.58,184Z"/><path id="_Path_81" data-name="&lt;Path&gt;" class="cls-1" d="M139.21,208.11a8.67,8.67,0,0,0-4.1,1.59c2.17,6.9,4.56,13.5,8.31,19.65a9.9,9.9,0,0,0,1.43-.53q4.61-2.63,9.18-5.32c.28-.16.43-.55.57-.73-1.32-2.85-2.65-5.51-3.79-8.26s-2.07-5.53-3.12-8.38C144.66,206.29,142,207.44,139.21,208.11Z"/><path id="_Path_82" data-name="&lt;Path&gt;" class="cls-1" d="M146.16,199.84a78.76,78.76,0,0,0-13.51-1.95c.31,1.76.51,3.32.88,4.84s.29,3.33,1.35,4.64a2.37,2.37,0,0,0,.67.07c3.5-.92,7-1.84,10.49-2.81a4.77,4.77,0,0,0,1.15-.73c-.23-1.2-.42-2.29-.66-3.37A2.67,2.67,0,0,0,146.16,199.84Z"/><path id="_Compound_Path_6" data-name="&lt;Compound Path&gt;" class="cls-2" d="M385.46,184.4q-9.38-1.46-18.76-2.88c-3.77-.58-7.55-1.11-11.31-1.73a9.36,9.36,0,0,1-3.73-1c-.06-.44-.13-.8-.16-1.17-.24-3.06-.34-6.14-.75-9.17A131.07,131.07,0,0,0,338.55,128a133.86,133.86,0,0,0-9.93-16.84,127.64,127.64,0,0,0-10.81-13.51c-1.18-1.3-2.3-2.65-3.53-4.07.58-.68,1-1.26,1.52-1.78q5.12-5.16,10.27-10.29,11.68-11.65,23.36-23.3a3.44,3.44,0,0,0,1.4-2.18c-.37-.07-.78-.29-1-.17a8.51,8.51,0,0,0-1.49,1.24q-5.85,5.82-11.67,11.66Q325.82,79.62,315,90.5c-.64.64-1.16,1.47-2.25,1.67-.42-.35-.86-.68-1.27-1-1.73-1.56-3.38-3.21-5.19-4.67-3.4-2.75-6.79-5.53-10.36-8A124.9,124.9,0,0,0,276,67.08a125.66,125.66,0,0,0-43.84-11.3c-1.37-.08-2.73-.32-4.18-.5-1.16-7.4-2.31-14.65-3.45-21.91-.63-4-1.23-8.09-1.88-12.14-.07-.44.14-1.23-1-1.14-1,5.79-1.76,11.68-2.73,17.53S217,49.36,216.11,55.22a11.29,11.29,0,0,1-1.25.28c-2.59.24-5.19.42-7.78.7a128.41,128.41,0,0,0-26.67,6,123.89,123.89,0,0,0-23.35,10.63A121.44,121.44,0,0,0,133.6,90.29a12.63,12.63,0,0,1-3.2,2.36c-.74-.69-1.43-1.29-2.08-1.94q-11-11.13-21.94-22.28c-2.87-2.9-5.77-5.77-8.67-8.64Q95.94,58,94.13,56.28a2.75,2.75,0,0,0-.88-.65.84.84,0,0,0-.72.24c-.15.17-.26.59-.16.73A18.27,18.27,0,0,0,94,58.48q16.6,16.62,33.2,33.23a6.41,6.41,0,0,1,2.07,2.61,132.14,132.14,0,0,0-26.13,38.81,130.81,130.81,0,0,0-10.73,45.75,13.85,13.85,0,0,1-1.66.49q-6.76,1.08-13.52,2.12c-6.34,1-12.69,1.95-19,3a8,8,0,0,0-1.65.9c4.54.92,8.5,1.31,12.4,2s7.73,1.13,11.58,1.8,7.9,1,11.9,2c.05,1.42,0,2.72.16,4,.69,5.82,1.39,11.64,2.63,17.38a129.64,129.64,0,0,0,32.84,61.92,13.43,13.43,0,0,1,1,1.45c-.78.81-1.46,1.56-2.18,2.27L94.12,311a27.45,27.45,0,0,0-1.87,2.06.75.75,0,0,0,.1.72.77.77,0,0,0,.72.15,19.54,19.54,0,0,0,1.88-1.65l32.62-32.62a16,16,0,0,1,3-2.58c.55.49,1.05.89,1.5,1.34a106.9,106.9,0,0,0,9.89,8.62,128.66,128.66,0,0,0,71.69,27.38,3.34,3.34,0,0,1,2.47.84,21.41,21.41,0,0,1,.74,6.15l1.79,10c.19,1,.4,2,.56,3l.14.89,0,.09h0c.65,4.18,1.26,8.36,1.94,12.54a3.46,3.46,0,0,0,.84,2.35,11.28,11.28,0,0,0,1-3.92c.67-4.11,1.25-8.23,1.84-12.36h0l.17-1.17a6.94,6.94,0,0,1,.25-1.26l1.79-10.42a19.77,19.77,0,0,1,1-6.31c.84-.13,1.65-.29,2.47-.38,4-.43,8-.7,11.91-1.3A125.24,125.24,0,0,0,263.39,308,129.38,129.38,0,0,0,311.55,279a13.93,13.93,0,0,1,1.44-1c.82.79,1.56,1.48,2.27,2.19l32.42,32.43c.53.53,1.05,1.06,1.62,1.54a.77.77,0,0,0,1.21-.12,1.14,1.14,0,0,0,0-1,5.5,5.5,0,0,0-.94-1l-12.25-12.27q-10.58-10.58-21.15-21.16c-.64-.64-1.5-1.15-1.66-2.37q34.18-35.48,37.25-85.07c2-.35,3.92-.69,5.84-1s4-.62,6.07-.93l5.79-.9,5.8-.88c2-.31,4.07-.52,6.06-1s3.89-.14,5.93-1.39A12,12,0,0,0,385.46,184.4Zm-70.72-82.82c2.83,3.33,5.65,6.69,8.22,10.22a125.19,125.19,0,0,1,13.57,23.7,120.68,120.68,0,0,1,6.13,17.66,109.3,109.3,0,0,1,3.39,18.65c.14,1.67.25,3.34.34,5a4.34,4.34,0,0,1-.16,1c-1.1.48-1.89-.24-2.69-.32a3.84,3.84,0,0,1-.81-2.45,117.74,117.74,0,0,0-10-39.31,123.25,123.25,0,0,0-18.58-29.42c-1.43-1.71-3-3.29-4.54-4.93-.43-.47-.84-1-1.49-1.7l2.26-2.18A21.43,21.43,0,0,1,314.74,101.58Zm-6.26,19c.47.8,1,1.55,1.57,2.31A104.66,104.66,0,0,1,322,144.93a101.15,101.15,0,0,1,6.6,26.19c.14,1.26.73,2.53,0,3.95a10.41,10.41,0,0,1-1.54,0c-2.76-.41-5.52-.85-8.27-1.28-1.78-.28-1.77-.28-2.08-2-.42-2.29-.79-4.59-1.27-6.87a93.3,93.3,0,0,0-6.61-19.83,100.21,100.21,0,0,0-11.77-19.27c-1.64-2.14-3.53-4.08-5.3-6.11l-1.26-1.48,1.41-2.89c-1.41-.22-2,1.07-3.07,1-3.08-2.54-6.11-5.28-9.4-7.69a107,107,0,0,0-10.51-6.87,121.1,121.1,0,0,0-11-5.36A63.14,63.14,0,0,0,246,92.54c-4-.87-8-1.72-12.16-2.62-1-1.84-.85-4-1.22-6.11a24.59,24.59,0,0,1-.75-6,3.74,3.74,0,0,1,2.79-.27,115.1,115.1,0,0,1,26.21,6.62,119.16,119.16,0,0,1,21.48,11.28c.94.61,1.78,1.35,2.7,2a.74.74,0,0,0,1.17-.21c-2.7-3.37-16.36-11-25.81-14.56a120.69,120.69,0,0,0-28.64-6.74,29.21,29.21,0,0,1-1.55-9.37,3.78,3.78,0,0,1,2.69-.29A120.37,120.37,0,0,1,271.32,76.4a118.77,118.77,0,0,1,27.52,17.46c2.13,1.79,4.17,3.69,6.46,5.72l-1.71,2.19c.82,1.2,1,1.26,1.69.73.22-.16.4-.39.62-.57s.46-.3.84-.55a11,11,0,0,1,1.23,1,103.38,103.38,0,0,1,9.88,11.75c2.43,3.41,4.68,6.95,6.94,10.48a97.43,97.43,0,0,1,6,11.63,120.11,120.11,0,0,1,9.87,36.23,10.13,10.13,0,0,1,.08,1.11c0,1,0,2,0,3.17a3.51,3.51,0,0,1-1,.27,43,43,0,0,1-9.4-1.86,108.55,108.55,0,0,0-19.79-53.78,4.46,4.46,0,0,0-2.16-1.88C308.42,119.91,308.32,120.31,308.47,120.56Zm-20.11,3.31c1.36,1.52,2.75,3,4,4.65,2.07,2.73,4,5.54,6,8.34.47.66.81,1.42,1.38,2.47l-11.07,6.43c-1.48-1.19-2-2.85-3-4.16s-2.07-2.86-3.15-4.25-2.09-2.57-3.25-4l7.64-10.49A8.05,8.05,0,0,1,288.36,123.86Zm-.19-2.58.89-1.11c1.07.19,1.51,1,2,1.56a92.19,92.19,0,0,1,11.55,15.71l-1.3.92c-2.17-3-4.17-6-6.36-8.87S290.52,124.1,288.18,121.29Zm-2.86-2.83a9.89,9.89,0,0,1-1.53-1.2,82.2,82.2,0,0,0-13.3-10.1,7.64,7.64,0,0,1-1.33-1,.76.76,0,0,1-.1-.73c.19-.27.61-.65.81-.59a8.09,8.09,0,0,1,2.25,1c3.33,2.38,6.64,4.78,9.9,7.25,1.4,1.06,2.7,2.28,4,3.46a8.73,8.73,0,0,1,1,1.21C286.55,118.62,286,118.89,285.31,118.46Zm-16-10.28a100.33,100.33,0,0,1,12.76,9.46,6.81,6.81,0,0,1,2,2.2c-1.29,1.48-7.55,6.14-10.54,7.83-1.38-1.13-2.65-2.21-4-3.23s-2.71-2-4-3-2.87-1.68-4.18-2.86c.66-1.19,1.22-2.25,1.82-3.28,1.49-2.56,3-5.12,4.58-7.8A11.61,11.61,0,0,1,269.34,108.18ZM267,104.92c-1.27-.61-2.62-1.22-3.93-1.9a85.4,85.4,0,0,0-14.46-5.85,4.48,4.48,0,0,1-1.29-.47,1.16,1.16,0,0,1-.4-.92.86.86,0,0,1,1-.76,4,4,0,0,1,.81.2,95.8,95.8,0,0,1,18,7.47,7.94,7.94,0,0,1,.72.43C268.07,103.57,268,103.91,267,104.92Zm-.56,1.63c-2.09,4-4.18,7.55-6.44,11.14-2.09-.61-3.77-1.79-5.62-2.6s-3.8-1.51-5.65-2.36-3.92-1.06-5.67-2c.4-3.17,2.58-11,3.5-12.53A81.77,81.77,0,0,1,266.4,106.56ZM244.56,95.82c-.14.09-.36,0-.66.07l-1.26-.25c-2.19-.42-4.38-.83-6.57-1.28a4.49,4.49,0,0,1-1.54-.57,1.08,1.08,0,0,1-.32-1,1,1,0,0,1,.79-.54c3,.53,6,1.13,9,1.72a1.32,1.32,0,0,1,.76.32,1.57,1.57,0,0,1,.31,1C245.1,95.48,244.78,95.69,244.56,95.82Zm-8.9,0a33.05,33.05,0,0,1,8.8,2.13c-.84,4-2,8-3.22,12a3.72,3.72,0,0,1-.64.12c-4-.57-4.06-.6-4.67-4.52-.42-2.66-.82-5.33-1.21-8-.07-.45-.08-.91-.13-1.47A3.66,3.66,0,0,1,235.66,95.87Zm2.12,15.3c3.23.89,6.5,1.67,9.66,2.76a74.24,74.24,0,0,1,22.93,13c.57.47,1.09,1,1.77,1.63-1.7,1.65-1.83,1.67-3.11.56a67.86,67.86,0,0,0-11.73-8,74.37,74.37,0,0,0-19.2-7.4,3.91,3.91,0,0,1-.67-.34l-.54-2C237.29,111.32,237.58,111.11,237.79,111.16Zm29,21.39a2.39,2.39,0,0,1-.45.67q-11.14,8.15-22.3,16.26a3.9,3.9,0,0,1-.94.31c-.87-2.59-1-5.26-1.41-7.87s-.85-5.32-1.28-8-.93-5.3-1.28-8-.94-5.26-1.06-8C245.35,118.41,261.57,126.69,266.77,132.56Zm7.11,8.15a2.39,2.39,0,0,1,.66-.45c5.73,5,14.78,22.94,14.42,28.56-2.21.05-28.73-4-32-5C262.74,156,268.3,148.34,273.88,140.71Zm12.51,9.84A61.3,61.3,0,0,0,279,139.4c-.67-.77-1.23-1.63-2-2.7l1.17-1.63c2.13,1.53,5.62,6,8.33,10.53A74.3,74.3,0,0,1,296,169.76a3.41,3.41,0,0,1-1.05.33,1.67,1.67,0,0,1-1.53-1,16.76,16.76,0,0,1-.63-2.14A67.86,67.86,0,0,0,286.4,150.55Zm8,7.87c-.74-1.8-1.48-3.61-2.28-5.38s-1.75-3.67-2.7-5.63c1.46-1.63,3.58-2.23,5.34-3.36s3.69-2.13,5.62-3.24a4.26,4.26,0,0,1,.8.8,95.75,95.75,0,0,1,7.1,16.64c.2.62.34,1.26.48,1.89a3.6,3.6,0,0,1,0,.74,68.54,68.54,0,0,1-12.26,3.19C295.37,162.35,295.12,160.29,294.35,158.42Zm8.65,5.83c2-.57,3.94-1,6-1.6a24.72,24.72,0,0,1,2,9.57,2.92,2.92,0,0,1-1,.21c-3.58-.53-7.16-1.1-10.74-1.64a2.08,2.08,0,0,1-1.89-1.76c-.19-.9-.35-1.81-.53-2.79C298.83,165.06,301,164.84,303,164.25Zm7.52-3.79c-.71-2.12-1.34-4.05-2-6a88.4,88.4,0,0,0-5.75-13c-.69-1.27-.67-1.81,0-2.14s1,0,1.59,1.13a83.38,83.38,0,0,1,7.43,18c0,.18.13.35.18.53C312.2,159.87,312.11,160,310.53,160.46Zm1.15,1.58a1.6,1.6,0,0,1,1,.2,1.16,1.16,0,0,1,.38.71c.63,2.89,1.23,5.79,1.79,8.43a4.26,4.26,0,0,1-.17,1.08c-.11.22-.37.51-.57.51a1.65,1.65,0,0,1-1-.35c-.18-.14-.23-.49-.28-.75q-.76-4-1.5-7.91a5.67,5.67,0,0,1-.15-1.36A.78.78,0,0,1,311.68,162ZM229.29,61a4,4,0,0,1,2.71-.3,127.7,127.7,0,0,1,36.5,8.62,125.58,125.58,0,0,1,27.91,15.64c3.43,2.54,6.62,5.41,9.89,8.17.92.78,1.71,1.7,2.75,2.74a6.57,6.57,0,0,1-2.38,2.37c-.46-.39-.89-.71-1.28-1.09A120.87,120.87,0,0,0,249.58,67a119.12,119.12,0,0,0-18.45-2.79c-1.37-.1-1.59-.29-1.84-1.61a7.65,7.65,0,0,1-.14-1.11A2,2,0,0,1,229.29,61ZM221.4,28.59l.05.19-.15,0Zm-5,30.51C217.61,51,218.8,42.93,220,34.84c.18-1.19.46-2.37.69-3.53.6-.14.65.26.67.59,0,.56,0,1.12,0,1.67q0,62.3,0,124.6a6.4,6.4,0,0,1-.32,3.16,33.24,33.24,0,0,0-7.91,2.23,40.3,40.3,0,0,0-6.86,4.65c-1.78-1.7-3.22-3.15-4.75-4.5a2.85,2.85,0,0,1-1-2.94c.83-4.86,1.55-9.73,2.31-14.6l3.35-21.49q1.12-7.16,2.23-14.33,2.7-17.22,5.41-34.45Q215.1,67.51,216.38,59.1Zm-82.53,60.55c-.73-.15-1,.43-1.3.85A105.68,105.68,0,0,0,124.66,133a107.55,107.55,0,0,0-12,37.28c-.23,1.74-.44,3.49-.68,5.35a52.75,52.75,0,0,1-8.5,1.49,7,7,0,0,1-.15-4,128.81,128.81,0,0,1,2.53-15.13,117.05,117.05,0,0,1,8-23.2,119,119,0,0,1,7.5-13.71,121.57,121.57,0,0,1,14.82-18.85,3,3,0,0,1,.65-.34,7,7,0,0,0,1.31.73,1.14,1.14,0,0,0,1-.2,1.11,1.11,0,0,0,.14-1,6.29,6.29,0,0,0-.84-1.24,7.87,7.87,0,0,1,.83-1.09A137.81,137.81,0,0,1,154.15,87a121.73,121.73,0,0,1,17.66-10.16,117.09,117.09,0,0,1,17.53-6.51,127.92,127.92,0,0,1,21.08-4,6.63,6.63,0,0,1,3.36.2c.43,1.62-.27,3.13-.4,4.66s-.48,2.91-.76,4.51c-3,.41-5.81.73-8.62,1.2s-5.87,1-8.76,1.74-5.57,1.51-8.31,2.41-5.64,1.94-8.39,3.08-5.28,2.33-7.84,3.67-5.21,2.91-7.74,4.48-4.93,3-6.94,5.51c.31,0,.7.14.91,0,.94-.6,1.81-1.3,2.73-1.93a106.08,106.08,0,0,1,42-17.27c3-.52,6.07-.92,9.11-1.33a5.13,5.13,0,0,1,1.28.14,55.63,55.63,0,0,1-2,12.64c-1.16.23-2.42.52-3.69.73a95,95,0,0,0-26.75,8.62,100.15,100.15,0,0,0-21.27,14.29c-1,.91-2,1.89-3.12,2.9-.56-.28-1-.51-1.52-.77s-.78-.45-1.23-.72c-.83,1.44.9,2,.8,3.33a12.56,12.56,0,0,1-.87,1.1,92.57,92.57,0,0,0-13,17.42,94.76,94.76,0,0,0-12,33.74c-.51,3.32,0,2.79-3.32,3.33q-4.27.69-8.55,1.3a11.32,11.32,0,0,1-1.62,0,2.2,2.2,0,0,1-.47-2.12,105.31,105.31,0,0,1,3.46-18.08,103.35,103.35,0,0,1,7.78-19.72,110.41,110.41,0,0,1,8.46-13.8C133.7,121,134.44,120.52,133.85,119.66Zm23,3.33c.17.06.4.08.49.2,2.42,3.29,4.82,6.6,7.29,10-1.18,2.37-3.28,4-4.68,6.18s-2.82,4.13-4.34,6.34c-2.13-.59-3.76-2-5.62-3s-3.65-2.17-5.43-3.23C145.74,135.76,153.33,125.68,156.87,123Zm-13.62,14.85a.74.74,0,0,1-1.2.09c-.21-.24-.43-.74-.32-1a37.75,37.75,0,0,1,2.1-3.61,115.15,115.15,0,0,1,9.84-12.44,6.5,6.5,0,0,1,1-.78c.87.3,1.3.77.82,1.5a18.74,18.74,0,0,1-1.77,2.15,99.34,99.34,0,0,0-8.51,11C144.55,135.81,143.95,136.86,143.25,137.84Zm13.83-20.1a12.76,12.76,0,0,1,1.38-1.57c3.93-3.27,7.75-6.68,12.1-9.41,1-.64,2-1.32,3.08-1.91.75-.42,1.23-.08,1.49,1.05-.56.42-1.06.84-1.6,1.18A100,100,0,0,0,160,117.4a9.66,9.66,0,0,1-1.31,1C158,118.88,157.49,118.65,157.08,117.74Zm3,2.19c1.94-3,11.46-10.4,16-12.34,1.6,1.42,2.23,3.51,3.34,5.29s2.13,3.66,3.19,5.5c-1.16,1.53-2.8,2.09-4.11,3.08s-2.71,2-4,3-2.61,2.07-3.88,3.09C168.6,126.75,161.56,121.65,160.08,119.93Zm36.37-23.07c-1.75.61-3.53,1.16-5.28,1.78A80.5,80.5,0,0,0,180,103.56c-.74.39-1.5.74-2.26,1.08a3.91,3.91,0,0,1-.83.16c-.19-.22-.44-.39-.51-.62a.9.9,0,0,1,.1-.75,4.46,4.46,0,0,1,1.11-.8,91.06,91.06,0,0,1,18-7.46l.27-.09c.6-.17,1.1-.11,1.38.53S197.17,96.61,196.45,96.86Zm1.12,1.5c1,1.78,3.13,9.28,3.44,12.27-1.69,1.15-3.82,1.24-5.66,2.11S191.73,114.2,190,115s-3.66,1.77-5.6,2.72c-1.66-1.51-2.27-3.62-3.39-5.39s-2.16-3.67-3.21-5.48C180.18,104.42,192.05,99.36,197.56,98.36ZM206.83,111c.07.55.26,1,.14,1.35a2.52,2.52,0,0,1-2.23,1.78c-10.83,2.45-20.36,7.52-29,14.37-.51.4-1,.79-1.57,1.16a4.34,4.34,0,0,1-.77.29,8.27,8.27,0,0,1-1-.64,4.37,4.37,0,0,1-.55-.8A76,76,0,0,1,206.83,111Zm-3.9-.84a10.94,10.94,0,0,1-.63-1.56c-.81-3.5-2-6.9-2.63-10.25a2.4,2.4,0,0,1,2-1.23c2.43-.45,4.8-1.31,7.33-1.15.15.34.38.6.34.83q-.86,5.76-1.78,11.51a4.13,4.13,0,0,1-.37.86A11.19,11.19,0,0,1,202.93,110.17Zm5-15.78c-2.44.5-4.89,1-7.34,1.45a2,2,0,0,1-1.07,0,1.35,1.35,0,0,1-.62-.79.81.81,0,0,1,.32-.69,4.18,4.18,0,0,1,1.29-.48c2.8-.57,5.61-1.13,8.43-1.62.33-.06.73.31,1.22.53-.3.48-.41.9-.68,1.06A5.29,5.29,0,0,1,207.89,94.39Zm-78.55,77c.49-2.73,1.05-5.45,1.61-8.16a2,2,0,0,1,.42-1,1.34,1.34,0,0,1,1-.26c.19,0,.39.33.51.56a.87.87,0,0,1,0,.54c-.58,3-1.15,6-1.75,9-.15.75-.63,1.1-1.57.84A4.69,4.69,0,0,1,129.35,171.4Zm3.21-11.15a4.07,4.07,0,0,1-.72-.69c.13-.49.22-.85.33-1.2a105.56,105.56,0,0,1,7.19-17.44,11,11,0,0,1,.72-1.19.91.91,0,0,1,1.43-.25.88.88,0,0,1,.27,1.22c-.37.64-.82,1.24-1.14,1.91-2.44,5.1-4.89,10.19-6.34,15.69a8.1,8.1,0,0,1-.58,1.56A.77.77,0,0,1,132.56,160.25Zm2.5,2.43c4,.93,8,2,12.18,3.28-.23,1.16-.43,2-.54,2.77a2.2,2.2,0,0,1-2.17,2.1c-3,.41-6,.89-9.05,1.35-.8.12-1.59.53-2.42.12C132.71,170.11,133.77,164.8,135.06,162.68Zm11.39,1.39q-4.73-1.23-9.45-2.53a16.19,16.19,0,0,1-1.85-.77,87.37,87.37,0,0,1,8.29-20.12c3.94,2.34,7.63,4.29,11.25,6.56-1.37,3-2.64,5.74-3.92,8.5s-1.85,5.63-3.1,8.38A5.66,5.66,0,0,1,146.44,164.07Zm19.23-29c1.43,1.45,1.49,1.56.73,2.59s-1.54,1.86-2.27,2.82a73.27,73.27,0,0,0-13,26.92,9.13,9.13,0,0,1-.6,1.85c-.38.79-1.12.91-2.32.53C149.36,159.32,158.14,142.15,165.68,135.05Zm3.93,5.2a6.54,6.54,0,0,1,.76.72c5.2,6.7,15.36,20.87,16.46,23a9.55,9.55,0,0,1-1.24.44c-5.74,1.21-28.45,4.52-30.51,4.46C154.89,162.85,164,144.78,169.61,140.25Zm8.64-6.64a9.42,9.42,0,0,1-1-.93c4.74-5.81,21.31-14.13,28.42-14.62.08.24.28.52.24.75-1.51,10.29-3.11,20.56-4.85,31.09a14.38,14.38,0,0,1-1.87-.95Q188.72,141.3,178.25,133.61ZM138.46,92.45a125.41,125.41,0,0,1,33.12-21.51A121.05,121.05,0,0,1,208.92,61c1.88-.19,3.83-.9,5.73-.1a4,4,0,0,1-.48,3.13,138.71,138.71,0,0,0-21.33,3.37,116.27,116.27,0,0,0-20.3,7,118.3,118.3,0,0,0-19,10.65A123.13,123.13,0,0,0,136.85,98.9l-2.27-2.4A21.67,21.67,0,0,1,138.46,92.45ZM97.71,174.09A126.59,126.59,0,0,1,110.59,129a122.16,122.16,0,0,1,10-16.45A116.08,116.08,0,0,1,132,98.81c.25-.26.53-.49.83-.76a5.68,5.68,0,0,1,2.42,2.09,9.79,9.79,0,0,1-.92,1.31,119.81,119.81,0,0,0-32.4,67.6c-.26,2.12-.42,4.25-.65,6.37-.07.63-.25,1.25-.4,2l-3,.66A8.62,8.62,0,0,1,97.71,174.09Zm-13,14.86c-5.15-.79-10.3-1.54-15.45-2.32-.59-.09-1.17-.28-2.17-.53a5.41,5.41,0,0,1,1.1-.47c3.64-.28,129.55,0,131.63.28A25.13,25.13,0,0,0,206,200.06a37.77,37.77,0,0,1-5.82,6.09,3.71,3.71,0,0,1-2.94.36c-4.77-.78-9.55-1.51-14.33-2.26l-24.26-3.79c-7.81-1.23-15.61-2.49-23.42-3.71-8.64-1.35-17.28-2.64-25.92-4C101.1,191.51,92.93,190.21,84.74,188.95Zm70.92,82.13a14.53,14.53,0,0,0,2.15,1.78,109.73,109.73,0,0,0,32,15.55,102.76,102.76,0,0,0,19.69,3.88c.83.07,1.64.3,2.58.47a7.36,7.36,0,0,1,.6,1.49c.47,2.75.91,5.51,1.32,8.27.17,1.12-.29,1.57-1.39,1.48a118.67,118.67,0,0,1-59-21.21,109.5,109.5,0,0,1-14-11.55c-.46-.46-.88-.95-1.41-1.53a8.61,8.61,0,0,0,.78-1.44,1.13,1.13,0,0,0-.17-1,1.12,1.12,0,0,0-1-.16,6.57,6.57,0,0,0-1.28.82c-.42-.35-.87-.65-1.25-1A101.55,101.55,0,0,1,124.75,254a116.58,116.58,0,0,1-16.81-34.21,102.82,102.82,0,0,1-4.31-21.31c-.14-1.65-.37-3.3-.58-5.13a6.61,6.61,0,0,1,1.42-.2,38.6,38.6,0,0,1,7.66,1.38,11.5,11.5,0,0,1,.36,1.47,104.14,104.14,0,0,0,9.14,33.24A106.58,106.58,0,0,0,132,247.1a4.65,4.65,0,0,0,.93,1c.15.11.49,0,.92-.08-2.55-4.14-5.12-8.1-7.47-12.18a104.41,104.41,0,0,1-10.44-26.73,89.23,89.23,0,0,1-2.29-14.21,6.86,6.86,0,0,1,1.39-.1c3.32.47,6.63,1,9.94,1.49a18.13,18.13,0,0,1,2.2.64,96.47,96.47,0,0,0,8.77,29.66,102.23,102.23,0,0,0,17.56,25.23l-1.31,2.75c1.36.51,2-.88,3.19-.77,1.76,1.51,3.65,3.15,5.56,4.76a96.07,96.07,0,0,0,46.81,21l1.38.19a1.79,1.79,0,0,1,1.64,1.65c.28,1.56.52,3.12.75,4.69s.41,3.1.61,4.61a4.9,4.9,0,0,1-3.42.31,111.6,111.6,0,0,1-26-6.34,107.81,107.81,0,0,1-26.59-14.59C155.49,270.24,155.26,270.66,155.67,271.08Zm30.69-63.88c-5.47,7.5-10.85,15.07-16.56,22.64-2.41-1.8-5.75-6.17-8.47-11.34a64.76,64.76,0,0,1-6.56-17.1c.43-.14.71-.32.94-.28Q171,203.55,186.24,206c.13,0,.23.26.38.44A2.59,2.59,0,0,1,186.36,207.2ZM189,228.67c2-1.42,4-2.79,5.87-4.27s3.9-2.81,5.86-4.31c.27.44.49.66.53.91q2.36,15.17,4.68,30.34a2.12,2.12,0,0,1-.19.76c-7.46-.63-23.23-8.63-28.55-14.61,1.65-1.77,3.81-2.9,5.69-4.38S187,230.15,189,228.67Zm-11.4,34.93c2.3-3.83,4.21-7.54,6.58-11.16,2.9,1.35,5.61,2.73,8.41,3.89s5.55,2,8.35,3c.19,1.58-.43,2.86-.77,4.18s-.78,2.87-1.17,4.31a16.44,16.44,0,0,1-1.31,4.08A83.27,83.27,0,0,1,177.61,263.6Zm19.55,10.91a1.32,1.32,0,0,1-.81.58,1.54,1.54,0,0,1-.81-.12,93.13,93.13,0,0,1-18.43-7.72,1.62,1.62,0,0,1-.62-.52,1.06,1.06,0,0,1-.09-.76c.07-.23.32-.4.55-.67a7.21,7.21,0,0,1,1,.32c1.17.56,2.35,1.12,3.49,1.72a75.86,75.86,0,0,0,13.65,5.49,7.27,7.27,0,0,1,1.77.74A1,1,0,0,1,197.16,274.52Zm-20.94-11.81c-3.45-1.59-6.22-3.93-9.15-6a42.15,42.15,0,0,1-7.14-6.45,80,80,0,0,1,10.33-7.66c2.28,1.09,4,3.13,6.09,4.57l6.48,4.38C180.48,255.38,178.64,259.12,176.22,262.71ZM142.3,232.05a1.12,1.12,0,0,1,1,.25c.82,1.12,1.57,2.3,2.32,3.47a77.42,77.42,0,0,0,9.07,11.6c.43.46.79,1,1.17,1.47-.21.35-.3.66-.5.79a.93.93,0,0,1-.76.08,2.8,2.8,0,0,1-.87-.67c-1.07-1.16-2.15-2.31-3.17-3.51a118.62,118.62,0,0,1-8.28-11.17,4,4,0,0,1-.59-1.24A.87.87,0,0,1,142.3,232.05Zm-1.18-1.15a.84.84,0,0,1-.74-.11,2.93,2.93,0,0,1-.64-.88,98.21,98.21,0,0,1-7.53-18.2c0-.09-.05-.18-.08-.27-.21-.57-.21-1.09.42-1.41s1.1,0,1.39.86a94,94,0,0,0,4.14,11.2c1.07,2.26,2.19,4.5,3.29,6.74.2.41.37.82.59,1.31A4.18,4.18,0,0,1,141.11,230.91Zm14.51,15.44c-3.9-4.5-7.76-9-10.69-14.27a7.56,7.56,0,0,1-.35-.91,4.13,4.13,0,0,1,.85-1c3.27-1.93,6.57-3.83,9.93-5.77a5.87,5.87,0,0,1,1.06,1A77.17,77.17,0,0,0,164.14,236a4.19,4.19,0,0,1,.42.92c-2.34,3.47-4.8,7-7.57,10.41A7.87,7.87,0,0,1,155.63,246.35Zm1.9,5.43a.77.77,0,0,1,1.2-.2c1.28,1.07,2.51,2.19,3.77,3.29a77.24,77.24,0,0,0,10.73,7.92,14,14,0,0,1,1.38.94c.65.51.58.83-.4,1.79-.68-.39-1.41-.77-2.12-1.2a103.25,103.25,0,0,1-11.63-8.59,27.61,27.61,0,0,1-2.93-3A1.07,1.07,0,0,1,157.53,251.78Zm8.11-20.31c.46.58.89,1.18,1.43,1.9l-1.18,1.75c-7.27-6.17-16.73-24.35-17.58-34.8,2-.26,2.11-.24,2.58,1.41.54,1.88,1,3.77,1.6,5.64A73.11,73.11,0,0,0,165.63,231.47Zm-14.82-17c1.14,2.74,2.47,5.41,3.79,8.26-.14.19-.29.57-.57.73q-4.57,2.69-9.18,5.32a9.9,9.9,0,0,1-1.43.53c-3.75-6.14-6.14-12.75-8.31-19.65a8.67,8.67,0,0,1,4.1-1.59c2.77-.67,5.45-1.82,8.48-2C148.74,209,149.68,211.79,150.81,214.51Zm-4.76-9.87c-3.49,1-7,1.88-10.49,2.81a2.37,2.37,0,0,1-.67-.07c-1.06-1.31-1-3.06-1.35-4.64s-.57-3.09-.88-4.84a78.76,78.76,0,0,1,13.51,1.95,2.67,2.67,0,0,1,.38.69c.24,1.08.43,2.17.66,3.37A4.77,4.77,0,0,1,146.05,204.64Zm-13.17,2.61a.8.8,0,0,1-.63,1,.87.87,0,0,1-1.09-.59,11.11,11.11,0,0,1-.47-1.6c-.43-2.18-.83-4.37-1.23-6.55-.08-.45-.12-.91-.21-1.55.25-.23.51-.64.86-.74a.82.82,0,0,1,1,.7Q132,202.6,132.88,207.24Zm67.45,69a2.16,2.16,0,0,1-1-.43,1.2,1.2,0,0,1-.42-.91,1.06,1.06,0,0,1,.75-.63,4.09,4.09,0,0,1,1.36.13q3.54.67,7.07,1.37a2.65,2.65,0,0,1,1.28.46,7.68,7.68,0,0,1,.91,1.9C206.49,277.43,203.41,276.85,200.34,276.25Zm7.75-2q-3.42-.58-6.83-1.26a8.45,8.45,0,0,1-1.45-.56A54.39,54.39,0,0,1,203.13,260a14.75,14.75,0,0,1,4.11.87c.9,2,.86,4.3,1.27,6.45s.67,4.37,1,6.71A5.43,5.43,0,0,1,208.09,274.22Zm-1.67-15.28a50.19,50.19,0,0,1-10.72-3,76.25,76.25,0,0,1-23-13.55,4,4,0,0,1-.53-.63,2.3,2.3,0,0,1-.16-.47l1.68-1.33a75,75,0,0,0,33,16.63l.37,2.1C206.73,258.81,206.56,259,206.41,258.94Zm-73.6,12.87c-6-4.2-18.91-23-24.41-35.13-7.18-15.86-11.08-35.22-10.53-44.33a5.61,5.61,0,0,1,1.28-.07c1.45.25,1.93.72,2.11,2.17.15,1.2.2,2.41.31,3.61a117.21,117.21,0,0,0,10.14,37.28,115,115,0,0,0,15,24.5c2,2.54,4.25,4.93,6.37,7.4.66.76,1.27,1.56,1.93,2.38A5.42,5.42,0,0,1,132.81,271.81Zm81.34,37.74a133.27,133.27,0,0,1-16.86-2.18,123.16,123.16,0,0,1-51.36-23.49c-3.25-2.5-6.28-5.25-9.37-7.93a6.39,6.39,0,0,1-2.16-2.58,7.83,7.83,0,0,1,.65-.88c.38-.4.81-.75,1.31-1.21a12.22,12.22,0,0,1,1.39.91c2.6,2.26,5.12,4.61,7.77,6.81a118.16,118.16,0,0,0,19.25,12.86,115,115,0,0,0,17.88,7.86,106.49,106.49,0,0,0,18.1,4.66c3.49.54,7,.88,10.51,1.34,1,.13,2,.33,2.93.49,1,.9.51,2,.83,2.95C214.63,309.34,214.38,309.57,214.15,309.55ZM202.59,184.19a20.17,20.17,0,0,1,40.33.31c0,11.15-9.78,20.46-20.47,19.89C211.18,204.67,202.3,194.28,202.59,184.19Zm19.89,156.87.13-.17.05.22Zm4.77-26.31c-1,6.15-2,12.29-3,18.44-.31,1.9-.3,3.86-1.28,6.15-.33-3.11-.28-129.42,0-131.64a7.63,7.63,0,0,1,1.75-.56,22.84,22.84,0,0,0,11.85-4.51c.37-.27.78-.47,1.25-.75a44.77,44.77,0,0,1,5.44,5.22,2.19,2.19,0,0,1,.38,2.1c-.49,2.93-.94,5.87-1.39,8.82-.94,6.16-1.85,12.32-2.82,18.48-1.29,8.17-2.65,16.34-3.95,24.51-1.11,7-2.16,14-3.24,20.94-.83,5.33-1.71,10.65-2.51,16C228.86,303.52,228.11,309.15,227.24,314.75Zm81.33-65.36a9.31,9.31,0,0,0,1.33-1.41,107.9,107.9,0,0,0,18.67-42.35c.58-2.82.93-5.69,1.37-8.54.06-.37,0-.74.09-1.11a1.8,1.8,0,0,1,1.59-1.69l8.93-1.37a9,9,0,0,1,.16,4.17A122.47,122.47,0,0,1,331,233.64a117.58,117.58,0,0,1-12.73,21.94,93.75,93.75,0,0,1-10.89,12.71,3.36,3.36,0,0,1-.61.34c-.45-.36-.93-.78-1.43-1.16-.68-.51-.77-.48-1.86.68l1.57,2.27a26.84,26.84,0,0,1-3.71,3.82,119.93,119.93,0,0,1-14.93,11.26,117.91,117.91,0,0,1-31.72,14.33,112.56,112.56,0,0,1-21.11,3.92c-.83.07-1.66.21-2.49.25a1,1,0,0,1-1-1.09c.1-.92.29-1.84.43-2.76.29-1.93.52-3.88.87-5.8.25-1.34.51-2,2.35-2.17a105.09,105.09,0,0,0,32.22-8.7,114.24,114.24,0,0,0,18.91-10.76c.3-.21.56-.47,1.18-1-.62-.21-.92-.42-1.07-.34a16.73,16.73,0,0,0-1.91,1.13,111.55,111.55,0,0,1-14,8.18,105.24,105.24,0,0,1-32.18,9.87c-1,.13-2,.28-3,.4-.46.05-.92.07-1.55.11a4.72,4.72,0,0,1-.19-1.31c.37-2.48.86-5,1.18-7.44.23-1.78.64-2.34,2.54-2.65,3.58-.59,7.13-1.38,10.65-2.23a89.48,89.48,0,0,0,16.51-6,102.27,102.27,0,0,0,19.13-12c1.92-1.47,3.65-3.17,5.47-4.76.42-.36.85-.7,1.06-.88,1.41-.38,1.74,1.46,3,.9.07,0,.11-.13.29-.36l-1.4-2.38c.8-.95,1.54-1.89,2.35-2.77a89.23,89.23,0,0,0,13.64-19.35,92.64,92.64,0,0,0,7.8-19.7c1-4,1.81-8,2.48-12,.06-.36.12-.72.18-1,1.09-1.07,2.47-.89,3.73-1.1s2.76-.43,4.14-.61,2.48-.74,3.92-.25c-.2,6.64-1.82,12.94-3.56,19.18A100.42,100.42,0,0,1,318,232.49a114.27,114.27,0,0,1-10.45,16.67C308.12,249.3,308.46,249.48,308.57,249.39Zm-15.64-8.54c-1.84,2.17-3.31,4.69-5.58,6.47a74.58,74.58,0,0,1-7.81-10.5,5.07,5.07,0,0,1,.58-1.1,74.38,74.38,0,0,0,7.57-10.35,5.35,5.35,0,0,1,.67-.71c2.1.45,3.67,2,5.55,2.93s3.69,2.1,5.77,3.3A53.31,53.31,0,0,1,292.93,240.84Zm7.61-8.19c.43-.62.94-.75,1.39-.4a1,1,0,0,1,.15,1.48c-1.65,2.48-3.2,5-5,7.39-2.15,2.79-4.53,5.42-6.83,8.09a6.69,6.69,0,0,1-1,.82c-1-1.09-1.05-1.31-.52-1.91,1.29-1.47,2.63-2.89,3.88-4.38a80.31,80.31,0,0,0,6.77-9.22C299.72,233.9,300.11,233.27,300.53,232.66Zm-13.71,19.58a7.47,7.47,0,0,1-2.34,2.66A95.62,95.62,0,0,1,270.91,265c-1,.6-1.58.55-1.87-.1s0-1,.84-1.52a87,87,0,0,0,15-11.46C285.71,251.13,285.88,251.18,286.82,252.23Zm-2.58-1.9c-1.52,2.12-3.77,3.5-5.73,5.13a59.05,59.05,0,0,1-10.73,7.3l-6.45-11,12.34-9.12A71.36,71.36,0,0,1,284.24,250.33ZM247.16,273.5a3.67,3.67,0,0,1,1.27-.53,93.34,93.34,0,0,0,17.48-7.28c1.08-.56,1.1-.55,2.11.83-.54.37-.89.66-1.29.87a97.85,97.85,0,0,1-17.46,7.35,5.4,5.4,0,0,1-1.62.32,1.09,1.09,0,0,1-.78-.64A1.05,1.05,0,0,1,247.16,273.5Zm-.77-1.71a57.32,57.32,0,0,1-3.32-12.28c2.55-1.46,5.57-1.85,8.24-3.13s5.39-2.51,8.22-3.82c.2.14.59.29.76.56,2.11,3.38,4.12,6.81,6,10.31C262.63,266.28,251.75,270.86,246.4,271.79Zm-9-13c-.38-1.63-.18-2.19,1.07-2.55,1.43-.42,2.88-.74,4.31-1.14a71.64,71.64,0,0,0,22-10.76c1.59-1.13,3.09-2.4,4.63-3.6.29-.22.6-.41.86-.58a3,3,0,0,1,1.71,1.29C265.22,248.93,247.46,257.9,237.39,258.78Zm3.42,1.16c1,1.68,3.23,9.62,3.51,12.23-1.75,1-6.31,2-9.53,2a80.27,80.27,0,0,1,1.93-13.14A11,11,0,0,1,240.82,259.94Zm-5.1,15.91c2.64-.53,5.29-1,7.94-1.55.56-.11,1.12-.2,1.43.46s-.09,1.13-1,1.32c-3.09.63-6.2,1.19-9.31,1.76-.15,0-.33-.12-.5-.18-.35-.63,0-1.07.45-1.41A2.68,2.68,0,0,1,235.71,275.85Zm77.21-68.22a1.29,1.29,0,0,1-.76.68c-.51.2-1.12-.39-1-1q.86-4.65,1.77-9.3a1.12,1.12,0,0,1,.47-.64,1,1,0,0,1,.77-.14,1,1,0,0,1,.53.55,5,5,0,0,1,.13,1.17C314.25,201.66,313.61,204.65,312.92,207.63ZM311.48,210c.61.27.69.59.4,1.65-.18.63-.35,1.26-.55,1.88a99.44,99.44,0,0,1-6.78,15.92,6,6,0,0,1-.76,1.16c-.16.18-.48.23-.87.39a5.28,5.28,0,0,1-.72-1c-.08-.2.1-.54.23-.77A90.47,90.47,0,0,0,309.77,212c.12-.35.22-.71.34-1.06C310.46,210,310.86,209.74,311.48,210Zm-2.27-2.59c-1.37.2-2.64-.52-4-.81s-2.89-.71-4.31-1.16-2.75-.44-3.87-1.18c-.1-.29-.24-.48-.2-.63,1.17-4.94.46-3.84,4.82-4.67,3-.58,6.05-.9,9.27-1.37A24.36,24.36,0,0,1,309.2,207.42Zm-6.64.1a55.18,55.18,0,0,1,6.38,1.84,83.27,83.27,0,0,1-8.35,19.94c-2.13-.6-3.81-1.94-5.64-2.94a38.88,38.88,0,0,1-5.62-3.38c1.32-2.83,2.69-5.55,3.85-8.36s2.06-5.54,3.1-8.39C298.58,206,300.52,207,302.57,207.51Zm-10.3,5.42a77,77,0,0,1-12.53,21,12.58,12.58,0,0,1-1.4,1.27,4.66,4.66,0,0,1-.75-.6,8.18,8.18,0,0,1-.56-1,3.31,3.31,0,0,1,.32-.79c1.13-1.48,2.29-2.93,3.42-4.41a70.6,70.6,0,0,0,12-25.25c.25-1,.55-1.94.84-2.95l2-.17c.15.29.32.46.3.6A61.67,61.67,0,0,1,292.27,212.94Zm-6.36-1.11a70.37,70.37,0,0,1-10,16.7,9.93,9.93,0,0,1-1.4,1.25c-.35-.23-.65-.33-.8-.53q-8-10.92-15.93-21.86a9.45,9.45,0,0,1-.62-1.4c10.61-1.67,20.85-3.38,31.12-4.83.23,0,.49.21.84.36A44.92,44.92,0,0,1,285.91,211.82Zm-27.07,19.6c1.81,1.31,3.64,2.59,5.44,3.91.88.65,1.73,1.35,2.58,2-2.77,3.76-14.45,11-23.78,13.7-1.63.48-3.21,1.36-5.14.95,1.78-10.59,3.21-21.07,5.06-31.72a12.27,12.27,0,0,1,1.62.81Q251.74,226.24,258.84,231.43Zm49,44.24a128.31,128.31,0,0,1-24.42,18.06,125.41,125.41,0,0,1-19.8,9A132.57,132.57,0,0,1,234,309.3c-1.29.14-2.59.21-3.89.28a3,3,0,0,1-.9-.3l.29-2.74a8.61,8.61,0,0,1,3.82-.81,119,119,0,0,0,24.59-4.88,115,115,0,0,0,17.88-7.1,125,125,0,0,0,26.16-17.5c1.54-1.33,3-2.75,4.78-4.36l2.29,2.21A11.63,11.63,0,0,1,307.81,275.66Zm38.53-80.28a123,123,0,0,1-14.76,49.36,92.47,92.47,0,0,1-8.68,13.66c-3.14,4-6.45,7.94-9.73,11.86a9,9,0,0,1-2.54,2.3c-.38-.3-.76-.56-1.08-.87s-.73-.8-1.19-1.31c1.29-1.47,2.48-2.87,3.72-4.23a117.08,117.08,0,0,0,10.15-12.95,120,120,0,0,0,17.18-38,102.08,102.08,0,0,0,3.31-20.34c.12-2.24.7-2.66,3.29-2.5A4.59,4.59,0,0,1,346.34,195.38Zm31.24-10.74q-65.24,0-130.48,0a5.35,5.35,0,0,1-1.12-.25c-.76-2.81-.8-5.74-1.91-8.44a41.49,41.49,0,0,0-4.49-7.46,43.91,43.91,0,0,1,5-5.16l133,20.64c.14,0,.25.21.38.32C377.81,184.43,377.7,184.64,377.59,184.64Z"/><path id="_Path_83" data-name="&lt;Path&gt;" class="cls-2" d="M186.74,314.08a2.58,2.58,0,0,0-2.4,2.55,2.5,2.5,0,0,0,2.51,2.41,2.65,2.65,0,0,0,2.45-2.54A2.6,2.6,0,0,0,186.74,314.08Z"/><path id="_Path_84" data-name="&lt;Path&gt;" class="cls-2" d="M90.27,151.92a2.63,2.63,0,0,0,2.58-2.4A2.8,2.8,0,0,0,90.37,147a2.91,2.91,0,0,0-2.57,2.48A2.52,2.52,0,0,0,90.27,151.92Z"/><path id="_Path_85" data-name="&lt;Path&gt;" class="cls-2" d="M186.89,55.47a2.6,2.6,0,0,0,2.4-2.55,2.51,2.51,0,0,0-2.56-2.35,2.48,2.48,0,0,0-2.38,2.51A2.54,2.54,0,0,0,186.89,55.47Z"/><path id="_Path_86" data-name="&lt;Path&gt;" class="cls-2" d="M354,151.9a2.55,2.55,0,0,0,2.38-2.55A2.48,2.48,0,1,0,354,151.9Z"/><path id="_Path_87" data-name="&lt;Path&gt;" class="cls-2" d="M257.45,55.51a2.8,2.8,0,0,0,2.5-2.52,2.5,2.5,0,0,0-2.47-2.47A2.37,2.37,0,0,0,255,53,2.58,2.58,0,0,0,257.45,55.51Z"/><path id="_Path_88" data-name="&lt;Path&gt;" class="cls-2" d="M354,217.73a2.47,2.47,0,1,0,2.41,2.51A2.52,2.52,0,0,0,354,217.73Z"/><path id="_Path_89" data-name="&lt;Path&gt;" class="cls-2" d="M90.32,217.73a2.34,2.34,0,0,0-2.43,2.43,2.46,2.46,0,0,0,2.44,2.46,2.77,2.77,0,0,0,2.51-2.48A2.56,2.56,0,0,0,90.32,217.73Z"/><path id="_Path_90" data-name="&lt;Path&gt;" class="cls-2" d="M153.82,300.58a2.23,2.23,0,0,0-2.36,2.45,2.56,2.56,0,0,0,2.5,2.45,2.68,2.68,0,0,0,2.42-2.55A2.52,2.52,0,0,0,153.82,300.58Z"/><path id="_Path_91" data-name="&lt;Path&gt;" class="cls-2" d="M290.45,300.6a2.19,2.19,0,0,0-2.47,2.3,2.53,2.53,0,0,0,2.26,2.64,2.86,2.86,0,0,0,2.61-2.71A2.51,2.51,0,0,0,290.45,300.6Z"/><path id="_Path_92" data-name="&lt;Path&gt;" class="cls-2" d="M290.27,69a2.58,2.58,0,0,0,2.58-2.38,2.53,2.53,0,0,0-2.36-2.59,2.5,2.5,0,0,0-2.52,2.4A2.37,2.37,0,0,0,290.27,69Z"/><path id="_Path_93" data-name="&lt;Path&gt;" class="cls-2" d="M154,69a2.49,2.49,0,0,0,0-5,2.55,2.55,0,0,0-2.64,2.3A2.61,2.61,0,0,0,154,69Z"/><path id="_Path_94" data-name="&lt;Path&gt;" class="cls-2" d="M337.87,253.14a2.55,2.55,0,0,0,2.57,2.39,2.76,2.76,0,0,0,2.41-2.6,2.47,2.47,0,0,0-2.62-2.31A2.37,2.37,0,0,0,337.87,253.14Z"/><path id="_Path_95" data-name="&lt;Path&gt;" class="cls-2" d="M337.87,116.52a2.61,2.61,0,0,0,2.45,2.49,2.55,2.55,0,0,0,2.51-2.44,2.59,2.59,0,0,0-2.46-2.49A2.55,2.55,0,0,0,337.87,116.52Z"/><path id="_Path_96" data-name="&lt;Path&gt;" class="cls-2" d="M106.41,116.66a2.58,2.58,0,0,0-2.38-2.58,2.49,2.49,0,0,0-2.57,2.33,2.57,2.57,0,0,0,2.36,2.59A2.51,2.51,0,0,0,106.41,116.66Z"/><path id="_Path_97" data-name="&lt;Path&gt;" class="cls-2" d="M106.41,253.1a2.54,2.54,0,0,0-2.45-2.48,2.52,2.52,0,0,0-2.48,2.41,2.59,2.59,0,0,0,2.44,2.5A2.56,2.56,0,0,0,106.41,253.1Z"/><path id="_Path_98" data-name="&lt;Path&gt;" class="cls-2" d="M257.35,314.09a2.47,2.47,0,0,0,.18,4.93A2.53,2.53,0,0,0,260,316.5,2.78,2.78,0,0,0,257.35,314.09Z"/><path id="_Path_99" data-name="&lt;Path&gt;" class="cls-2" d="M303.42,258.39l.13,0,0-.06Z"/><path id="_Path_100" data-name="&lt;Path&gt;" class="cls-2" d="M299.27,256.78c.39-.45.8-.94,1.23-1.42s1.22-.9,1.14-1.78c-1.85-1.46-2.35-1.42-4,.39h0l0,.08a2.21,2.21,0,0,1,.91-.35,1.15,1.15,0,0,1,1.19,1.19,1.47,1.47,0,0,1-1.32,1.17,1,1,0,0,1-.68-.34,1.32,1.32,0,0,1-.09-1.67l0,0,.09-.1a1.92,1.92,0,0,0-1.29,1.92,4.28,4.28,0,0,0,4.93,4,3.77,3.77,0,0,0,2.1-1.53C300.9,259.13,300.58,259,299.27,256.78Z"/><path id="_Path_101" data-name="&lt;Path&gt;" class="cls-2" d="M294.81,260.32a6.83,6.83,0,0,0-1.17.73,1.56,1.56,0,0,1-2.34-.16,1.48,1.48,0,0,0,.5,1.82,2.06,2.06,0,0,0,2.08.38,21.28,21.28,0,0,0,1.93-1.06,10.24,10.24,0,0,1,1.06-.43c1,.55.77,1.33.88,2,.77-.51.58-1.23.34-1.91A2.14,2.14,0,0,0,294.81,260.32Z"/><path id="_Path_102" data-name="&lt;Path&gt;" class="cls-2" d="M297.76,263.7s0-.06,0-.1l0,0Z"/><path id="_Path_103" data-name="&lt;Path&gt;" class="cls-2" d="M295.77,264.58h0v0h0Z"/><path id="_Path_104" data-name="&lt;Path&gt;" class="cls-2" d="M293.95,264.73c.2.28.34.63.6.8a1.19,1.19,0,0,0,.94.16.7.7,0,0,0,.28-1.09C295.2,264.66,294.6,264.08,293.95,264.73Z"/><path id="_Path_105" data-name="&lt;Path&gt;" class="cls-2" d="M294.47,258.78c.05,0,0-.43-.07-.46a1.91,1.91,0,0,0-1-.2c-.19,0-.32.38-.54.68a3.62,3.62,0,0,0,.84.2A1.58,1.58,0,0,0,294.47,258.78Z"/><path id="_Path_106" data-name="&lt;Path&gt;" class="cls-2" d="M303.53,258.2c.3-.65.54-1.3-.2-1.93Z"/><path id="_Path_107" data-name="&lt;Path&gt;" class="cls-2" d="M303.5,258.29l0,.06,0-.15,0,.09Z"/><path id="_Path_108" data-name="&lt;Path&gt;" class="cls-2" d="M297.76,263.7l-.06-.06,0,.11Z"/><path id="_Path_109" data-name="&lt;Path&gt;" class="cls-2" d="M297.66,263.74l-1.84.85C297.28,264.79,297.33,264.78,297.66,263.74Z"/><path id="_Path_110" data-name="&lt;Path&gt;" class="cls-2" d="M295.77,264.58h0Z"/><polygon id="_Path_111" data-name="&lt;Path&gt;" class="cls-2" points="145.43 263.13 145.43 263.13 145.42 263.13 145.43 263.13"/><path id="_Path_112" data-name="&lt;Path&gt;" class="cls-2" d="M147.72,264.89c-.06-1.36,1.27-2.43.94-4-1.52.25-2.75.66-3.23,2.2l.52-.21a8.46,8.46,0,0,1-.15,1c-.25.94-1,1.76-.86,3,1.47,0,2.54-.78,3.71-1.25s2.38-.85,3.73-1.33l-1.17-1.2C149.67,264.87,149.38,265,147.72,264.89Z"/><polygon id="_Path_113" data-name="&lt;Path&gt;" class="cls-2" points="145.43 263.13 145.42 263.13 145.42 263.13 145.43 263.13"/><path id="_Path_114" data-name="&lt;Path&gt;" class="cls-2" d="M144.77,260.69a11.75,11.75,0,0,1,.6-1.25,14.27,14.27,0,0,1,1-1.21c-.62-.86-1-1.74-1.89-2-.86,2.21-1.66,4.27-2.47,6.33-.17.44-.39.85.13,1.35.72-.27,1.48-.59,2.27-.82a3.29,3.29,0,0,1,1,0A1.8,1.8,0,0,1,144.77,260.69Z"/><path id="_Path_115" data-name="&lt;Path&gt;" class="cls-2" d="M140.47,252.56l0,0,.07-.07Z"/><path id="_Path_116" data-name="&lt;Path&gt;" class="cls-2" d="M138.3,252.66a1.71,1.71,0,0,0-.68,2,4.63,4.63,0,0,0,.68,1.51,3.52,3.52,0,0,1,.64,2.94c1.38-.87,1.65-1,1.67-1.55a4.15,4.15,0,0,0-.24-1.59c-.19-.51-.61-.94-.81-1.45a1.8,1.8,0,0,1-.14-1.28c.17-.31.67-.45,1.05-.64C139.72,251.72,139,252.19,138.3,252.66Z"/><path id="_Path_117" data-name="&lt;Path&gt;" class="cls-2" d="M136,257.18l.22-2.17C134.53,256,134.51,256.25,136,257.18Z"/><path id="_Path_118" data-name="&lt;Path&gt;" class="cls-2" d="M142.28,254.07a1.79,1.79,0,0,0-.71-.18c.09.59.19,1.17.3,1.82C142.94,254.89,143,254.6,142.28,254.07Z"/><path id="_Path_119" data-name="&lt;Path&gt;" class="cls-2" d="M141.51,253.86h.06v-.07Z"/><path id="_Path_120" data-name="&lt;Path&gt;" class="cls-2" d="M140.63,252.61l.89,1.15C141.55,252.83,141.51,252.76,140.63,252.61Z"/><path id="_Path_121" data-name="&lt;Path&gt;" class="cls-2" d="M140.49,252.58l.14,0-.07-.09Z"/><path id="_Path_122" data-name="&lt;Path&gt;" class="cls-2" d="M141.56,253.81l0-.05v.11h0Z"/><path id="_Path_123" data-name="&lt;Path&gt;" class="cls-2" d="M137,258.92c.06,0,.11.11.17.12s.13,0,.19-.08-.11-.11-.17-.12S137.09,258.89,137,258.92Z"/><path id="_Path_124" data-name="&lt;Path&gt;" class="cls-2" d="M302.29,107.81a4.12,4.12,0,0,0-5.21,3.58,3.35,3.35,0,0,0,1,2.77,3,3,0,0,0,3.25.65,13.68,13.68,0,0,1-2.22-.8c-1.13-.69-1.29-1.58-.42-2.53a29,29,0,0,1,2.81-2.63,1.06,1.06,0,0,1,1.5.2,1,1,0,0,1,.07,1.49,11,11,0,0,1-.86.69c-.11.1-.1.32-.19.64L303.5,113a3.09,3.09,0,0,0,.91-3.17A3.05,3.05,0,0,0,302.29,107.81Z"/><path id="_Path_125" data-name="&lt;Path&gt;" class="cls-2" d="M295.05,102.38a1.22,1.22,0,0,0,.35-1.51,2.84,2.84,0,0,0-1.62-1.57c-.92,2.5-2.82,3.85-4.92,5.22l2.16,2.25a9.44,9.44,0,0,1,.7-1.49,7.28,7.28,0,0,1,1.16-1.19C293.58,103.5,294.34,103,295.05,102.38Z"/><path id="_Path_126" data-name="&lt;Path&gt;" class="cls-2" d="M297.42,102.38h0l0,0,0-.08Z"/><path id="_Path_127" data-name="&lt;Path&gt;" class="cls-2" d="M297.43,102.41a9.14,9.14,0,0,1-4.92,5.6,3.84,3.84,0,0,0,1.79,1.79c1.15-1.25,2.25-2.35,3.25-3.55C298.82,104.74,298.77,104.18,297.43,102.41Z"/><path id="_Path_128" data-name="&lt;Path&gt;" class="cls-2" d="M297.26,102.39l.14,0,0,0,0,0Z"/><path id="_Path_129" data-name="&lt;Path&gt;" class="cls-2" d="M296.86,102.49l.4-.1-.33,0S296.88,102.44,296.86,102.49Z"/><path id="_Path_130" data-name="&lt;Path&gt;" class="cls-2" d="M140.37,116l1.83-1.67a10.89,10.89,0,0,1-3.93-3.92c-.6-1-1.42-1-2.36-.32a7.5,7.5,0,0,0-.92,1C136.9,112,138.17,113.13,140.37,116Z"/><path id="_Path_131" data-name="&lt;Path&gt;" class="cls-2" d="M140.78,109.11c.51.54,1,1,1.57,1.57l1.58,1.62,1.38-.91c-1-1.19-1.67-2.06-2.41-2.88a10.15,10.15,0,0,0-1.63-1.49,2.08,2.08,0,0,0-2.12-.15c-.5.22-1,.53-.75,1.37C139.4,107.87,140.12,108.41,140.78,109.11Z"/><path id="_Path_132" data-name="&lt;Path&gt;" class="cls-2" d="M148,103.62h0v0Z"/><path id="_Path_133" data-name="&lt;Path&gt;" class="cls-2" d="M150.1,106.47c-.46-1-.6-2-1.6-2.7a1.4,1.4,0,0,0-.49-.14.46.46,0,0,1,0,.23c0,.07-.14.18-.2.17a6.38,6.38,0,0,1-3.63-2l-1.8,2c2.47,1,4.69,1.9,6.91,2.77C149.45,106.8,149.65,106.64,150.1,106.47Z"/><path id="_Path_134" data-name="&lt;Path&gt;" class="cls-2" d="M151.84,103.49c.43.19.85.34,1.19-.22a6.18,6.18,0,0,0-1.94-3.54.79.79,0,0,1-.21,1.15c-.85-.33-1.77-.72-2.72-1a6.18,6.18,0,0,0-1.35-.11l1.19,3.84,1-1.33Z"/><path id="_Path_135" data-name="&lt;Path&gt;" class="cls-2" d="M148,103.61h0v0Z"/><path id="_Path_136" data-name="&lt;Path&gt;" class="cls-2" d="M151,99.58h0l.14.14-.11-.18Z"/><path id="_Path_137" data-name="&lt;Path&gt;" class="cls-2" d="M148.83,97.7l2.08.1L150.35,96Z"/><path id="_Path_138" data-name="&lt;Path&gt;" class="cls-2" d="M150.95,97.81h0l0,.05,0,0Z"/><path id="_Path_139" data-name="&lt;Path&gt;" class="cls-2" d="M151,99.55q0-.85,0-1.73h0l0,0c0,.57,0,1.15,0,1.73h0Z"/><path id="_Path_140" data-name="&lt;Path&gt;" class="cls-2" d="M239.13,184.26c.63-8.55-7.33-16.31-16.16-16.44-9.6-.15-16.65,8.19-16.79,16.31-.16,9.08,7.87,16.63,16.37,16.7C231.88,200.91,239.79,192.82,239.13,184.26Z"/></g><circle id="_Path_141" data-name="&lt;Path&gt;" class="cls-2" cx="393.5" cy="156.71" r="7.08"/><circle id="_Path_142" data-name="&lt;Path&gt;" class="cls-2" cx="48.87" cy="217.32" r="7.08"/><g id="zybrM5"><g id="_Group_2" data-name="&lt;Group&gt;"><path id="_Path_143" data-name="&lt;Path&gt;" class="cls-3" d="M361.69,102.9c0,.42,0,.85,0,1.27q0,58.88,0,117.75v1.29l-25,4.08L325.37,174h-.16v55.22l-25,4.08c-.21-.75-.26-119-.06-120.29l25-4.08,11.34,50.8.2,0V107.09a7.6,7.6,0,0,1,.74-.2l14.8-2.41,9-1.44a.91.91,0,0,0,.25-.13Z"/><path id="_Path_144" data-name="&lt;Path&gt;" class="cls-3" d="M80.63,148.83c1.86-.33,3.73-.67,5.6-1l15.09-2.46,5.09-.82V264.85l-3.23.55-15.09,2.46c-2.13.35-4.25.71-6.38,1a8.5,8.5,0,0,1-1.07,0Z"/><path id="_Compound_Path_7" data-name="&lt;Compound Path&gt;" class="cls-3" d="M276.28,177q0,20.8,0,41.6a22.4,22.4,0,0,1-16.51,21.18c-2,.51-4.11.75-6.17,1.09l-15.19,2.47c-2.1.34-4.18.77-6.29,1-8.13.85-15-4.11-16.63-12.07a19.73,19.73,0,0,1-.36-3.8q0-41.5,0-83a22.39,22.39,0,0,1,16.46-21.22c2.05-.52,4.17-.77,6.27-1.11,5.45-.9,10.89-1.8,16.35-2.66a42.45,42.45,0,0,1,7.09-.9,14.9,14.9,0,0,1,14.85,13.66c.09,1,.14,2,.14,2.94Q276.29,156.58,276.28,177Zm-35.5,5.69q0,16.88,0,33.75c0,.33,0,.66,0,1a1.85,1.85,0,0,0,2.19,1.82c1.81-.27,3.61-.58,5.41-.9a2.62,2.62,0,0,0,2.17-2.13,5,5,0,0,0,.05-1.17q0-33.8,0-67.6c0-.29,0-.59,0-.88a1.84,1.84,0,0,0-2.14-1.77q-2.76.41-5.51.92a2.67,2.67,0,0,0-2.17,2.56c0,.33,0,.65,0,1Q240.78,166,240.78,182.68Z"/><path id="_Path_145" data-name="&lt;Path&gt;" class="cls-3" d="M191.35,200.66v1c0,10.24-.07,20.48,0,30.71.08,9.29-6.78,18.57-16.09,21.12a59.1,59.1,0,0,1-6,1.1q-7.54,1.25-15.09,2.46c-2.48.4-5,.91-7.46,1.13a14.82,14.82,0,0,1-16.26-12.53,20.35,20.35,0,0,1-.25-3.42c0-27.61,0-55.22,0-82.82,0-9.49,6.92-18.78,16.17-21.26,2-.53,4-.77,6.07-1.11q7.54-1.25,15.09-2.46c2.48-.4,5-.9,7.46-1.11a14.81,14.81,0,0,1,16.16,13,19.44,19.44,0,0,1,.19,2.64q0,14.13,0,28.26c0,.29,0,.58,0,.94l-25.55,7.25c0-.47,0-.85,0-1.23q0-11.43,0-22.86c0-.33,0-.66,0-1a1.8,1.8,0,0,0-2.12-1.87c-1,.09-1.94.28-2.91.43l-2.32.38a2.8,2.8,0,0,0-2.49,2.82c0,.26,0,.52,0,.78q0,33.61,0,67.22c0,.33,0,.66,0,1a1.8,1.8,0,0,0,2.11,1.8c1-.1,2.07-.3,3.1-.46l2.22-.37a2.76,2.76,0,0,0,2.4-2.69c0-.29,0-.59,0-.88q0-12.81,0-25.61v-1.3Z"/></g></g><g id="D4PB2P"><g id="_Group_3" data-name="&lt;Group&gt;"><path id="_Path_146" data-name="&lt;Path&gt;" d="M206.35,296.6l14.81-2.35V273l3.37-.53v46.11l-3.35.53v-22l-14.82,2.35v22L203,322v-.34q0-22.71,0-45.42c0-.32.11-.37.39-.41,1-.14,2-.31,3-.47Z"/><path id="_Compound_Path_8" data-name="&lt;Compound Path&gt;" d="M166.77,281.6l10.18,44.5-3.44.55-2.74-12.18-2.43.38-8.6,1.36c-.29,0-.66,0-.84.17s-.17.54-.23.82q-1.23,5.86-2.45,11.72c-.07.36-.19.52-.58.56-1,.12-1.94.3-3,.46,0-.15,0-.28.07-.4l4.47-20.93,4.21-19.75q.68-3.19,1.35-6.38c0-.2.12-.28.35-.31C164.32,282,165.53,281.8,166.77,281.6Zm-2,4.09c-1.58,9.19-3.61,18.34-5.39,27.58l10.78-1.71C168.41,302.9,166.37,294.32,164.8,285.69Z"/><path id="_Path_147" data-name="&lt;Path&gt;" d="M276.12,307.4v3l-18.86,3V267.25l18.85-3v3l-15.47,2.45V288l13.58-2.15v2.84l-13.57,2.15v19Z"/><path id="_Path_148" data-name="&lt;Path&gt;" d="M326.59,256.26v3l-15.46,2.45V280l13.58-2.15v2.84l-1.9.31-8.66,1.37c-.92.15-1.84.31-2.76.43-.27,0-.29.15-.29.37,0,1.74,0,3.48,0,5.22v13.48l15.47-2.45v3l-18.84,3V259.25Z"/><path id="_Path_149" data-name="&lt;Path&gt;" d="M184.8,324.85V281.71l-8.81,1.4v-3l21-3.33v3l-8.82,1.4v.42q0,21.15,0,42.3c0,.31-.05.45-.4.49C186.8,324.51,185.82,324.69,184.8,324.85Z"/><path id="_Path_150" data-name="&lt;Path&gt;" d="M280.7,266.5v-2.29c0-.7,0-.68.69-.78,1.34-.2,2.68-.43,4-.64l3.64-.57,4-.65,3.64-.57,3.63-.58,1.41-.22v3l-2.45.39-6.17,1c-.17,0-.22.1-.21.26s0,.18,0,.27q0,21.1,0,42.21c0,.44,0,.43-.45.5l-2.92.47V265.11Z"/><path id="_Path_151" data-name="&lt;Path&gt;" d="M234.36,317v-.46q0-22.59,0-45.17c0-.45,0-.46.44-.54l2.86-.46.08,0v43.1l12.5-2v2.29c0,.68,0,.67-.68.78l-5.54.89-4.8.75Z"/></g></g><g id="mSAUzp"><g id="_Group_4" data-name="&lt;Group&gt;"><path id="_Path_152" data-name="&lt;Path&gt;" d="M167.62,69.56l1.71-.3,2-.34.41-.06.38,1.46q3.35,13.19,6.69,26.39c.34,1.35.6,2.72.9,4.08,0,.21.1.42.15.64h.07c.06-.32.13-.64.19-1,.45-2.42,1-4.82,1.58-7.21q1.79-7.64,3.57-15.28L188,66.21l0-.13,4-.69v38l-2.66.46v-.33q0-13.8,0-27.59c0-2,.13-4,.19-6,0-.15,0-.3,0-.51-2.56,12-5.52,23.9-8.22,35.84l-3,.51c0-.1-.07-.18-.09-.27q-2.6-10.28-5.2-20.56c-.78-3.11-1.54-6.22-2.3-9.34-.21-.86-.39-1.73-.58-2.59a1,1,0,0,0-.11-.29c0,.57,0,1.15.07,1.72.05,1.67.14,3.34.15,5q0,13.64,0,27.29v.4l-.79.14-1.59.27a2.59,2.59,0,0,1-.36,0Z"/><path id="_Path_153" data-name="&lt;Path&gt;" d="M211,100.14l-.51-2Q208,88.06,205.41,78c-.9-3.53-1.78-7.06-2.54-10.63a.6.6,0,0,0-.1-.23c0,.07,0,.14,0,.21.07,2.38.2,4.76.21,7.15,0,8.87,0,17.74,0,26.61v.42l-2.63.45c-.07-.23-.1-37.26,0-37.95l4-.69c0,.1.07.2.09.29q3.5,13.8,7,27.6c.34,1.34.59,2.7.89,4.05,0,.21.1.43.15.64h.06c0-.21.09-.42.13-.63.48-2.61,1.09-5.2,1.7-7.78l3.45-14.77q1.39-5.93,2.76-11.86a.4.4,0,0,1,.38-.37c1.25-.19,2.49-.42,3.75-.63v38l-2.62.45c0-.1,0-.17,0-.23s0-.2,0-.31q0-13.49,0-27c0-1.63.09-3.26.14-4.89,0-.61,0-1.22.07-1.83a.35.35,0,0,0,0-.21c-.1.49-.2,1-.3,1.46-.63,3.11-1.34,6.21-2.06,9.3q-1.79,7.65-3.57,15.31l-2.22,9.54c0,.06,0,.12-.06.21Z"/><path id="_Path_154" data-name="&lt;Path&gt;" d="M249,93.69l-3.08.52-6.52-15.63-.14.37q-3.14,8.59-6.27,17.17a.49.49,0,0,1-.44.37c-.87.13-1.75.29-2.62.44l-.25,0,.15-.39q4-10.05,7.92-20.1a.73.73,0,0,0,0-.63q-3.74-8.28-7.46-16.56l-.13-.32,3.19-.54,6,14.66.14-.34L244,60.34q.67-1.88,1.35-3.76a.34.34,0,0,1,.29-.26l2.83-.47.09,0-.12.33q-3.69,9.57-7.38,19.14a.67.67,0,0,0,0,.57l7.79,17.38Z"/><path id="_Path_155" data-name="&lt;Path&gt;" d="M268.15,52.47,271,52a.77.77,0,0,1,0,.16l-8.39,39.21-3.38.58-8.44-36.52,2.91-.49,7.19,32.65c.47-1.94.86-3.89,1.26-5.83s.8-3.91,1.2-5.86l1.2-5.86,1.2-5.83,1.2-5.86Z"/></g></g><g id="_Group_5" data-name="&lt;Group&gt;"><g id="_Group_6" data-name="&lt;Group&gt;"><path id="_Path_156" data-name="&lt;Path&gt;" class="cls-4" d="M221.88,14.53A170.34,170.34,0,0,1,352.72,75.77L369.07,73A185,185,0,0,0,221.88,0c-82.15,0-152,53.78-176.13,128l16.38-2.79C86.46,60.61,148.88,14.53,221.88,14.53Z"/><path id="_Path_157" data-name="&lt;Path&gt;" class="cls-4" d="M221.88,355.83A170.34,170.34,0,0,1,91,294.59l-16.36,2.78a185,185,0,0,0,147.19,73c82.15,0,152-53.78,176.13-128l-16.38,2.79C357.3,309.76,294.87,355.83,221.88,355.83Z"/></g><g id="_Group_7" data-name="&lt;Group&gt;"><polygon id="_Path_158" data-name="&lt;Path&gt;" class="cls-4" points="443.83 67.64 0 143.13 0 157.87 443.86 82.37 443.86 67.83 443.83 67.64"/><polygon id="_Path_159" data-name="&lt;Path&gt;" class="cls-4" points="0 287.97 0 302.71 443.86 227.21 443.86 212.48 0 287.97"/></g></g></g></g></svg>